{
.appVersion = "3516";
.formatVersion = 3;
axes = (
{
name = Weight;
tag = wght;
}
);
classes = (
{
code = "A Aacute Abreve Abreveacute Abrevedotbelow Abrevegrave Abrevehookabove Abrevetilde Acaron Acircumflex Acircumflexacute Acircumflexdotbelow Acircumflexgrave Acircumflexhookabove Acircumflextilde Adblgrave Adieresis Adieresismacron Adotbelow Agrave Ahookabove Ainvertedbreve Amacron Aogonek Aring Aringacute Atilde AE AEacute";
name = Adiacritics;
},
{
code = "Y Yacute Ycircumflex Ydieresis Ydotaccent Ydotbelow Ygrave Yhookabove Ymacron Ytilde ";
name = Ydiacritics;
},
{
automatic = 1;

glyphs = (
{
glyphname = A;
kernLeft = KO_A;
kernRight = KO_A;
lastChange = "2026-03-13 10:15:51 +0000";
layers = (
{
anchors = (
{
name = bottom;
pos = (305,0);
},
{
name = ogonek;
pos = (590,0);
},
{
name = top;
pos = (306,700);
}
);
background = {
shapes = (
{
pos = (0,700);
ref = V;
scale = (1,-1);
}
);
};
layerId = "A5EF4BC6-6509-4D3B-8B47-D449F40BB885";
shapes = (
{
closed = 1;
nodes = (
(45,0,l),
(271,581,l),
(298,658,ls),
(301,667,o),
(310,667,o),
(313,658,cs),
(340,581,l),
(565,0,l),
(590,0,l),
(318,700,l),
(293,700,l),
(20,0,l)
);
},
{
closed = 1;
nodes = (
(489,234,l),
(477,256,l),
(131,256,l),
(122,234,l)
);
}
);
width = 610;
},
{
anchors = (
{
name = bottom;
pos = (387,0);
},
{
name = ogonek;
pos = (753,0);
},
{
name = top;
pos = (387,700);
}
);
background = {
anchors = (
{
name = bottom;
pos = (387,0);
},
{
name = ogonek;
pos = (696,10);
},
{
name = top;
pos = (387,700);
}
);
shapes = (
{
pos = (0,700);
ref = V;
scale = (1,-1);
}
);
};
layerId = "0EDB233F-674C-46BF-8D38-84A6CD2C2EDF";
shapes = (
{
closed = 1;
nodes = (
(229,0,l),
(351,423,l),
(374,532,ls),
(377,550,o),
(396,550,o),
(399,532,cs),
(422,423,l),
(544,0,l),
(753,0,l),
(537,700,l),
(235,700,l),
(20,0,l)
);
},
{
closed = 1;
nodes = (
(528,133,l),
(496,293,l),
(262,293,l),
(231,133,l)
);
}
);
width = 773;
},
{
anchors = (
{
name = bottom;
pos = (348,0);
},
{
name = ogonek;
pos = (676,0);
},
{
name = top;
pos = (348,700);
}
);
background = {
shapes = (
{
pos = (0,700);
ref = V;
scale = (1,-1);
}
);
};
layerId = "A22F00EF-5553-43E5-A27F-95FD0E0BDB40";
shapes = (
{
closed = 1;
nodes = (
(136,0,l),
(307,496,l),
(339,601,ls),
(342,611,o),
(353,611,o),
(356,601,cs),
(387,496,l),
(560,0,l),
(676,0,l),
(434,700,l),
(260,700,l),
(20,0,l)
);
},
{
closed = 1;
nodes = (
(541,177,l),
(515,273,l),
(203,273,l),
(177,177,l)
);
}
);
width = 696;
}
);
metricRight = V;
unicode = 65;
userData = {
KernOnName = A;
com.schriftgestaltung.Glyphs.ColorIndex = 3;
com.schriftgestaltung.Glyphs.layer.rightMetricsKey = "==V";
com.schriftgestaltung.Glyphs.rightMetricsKey = V;
};
},
{
glyphname = AE;
kernLeft = KO_A;
kernRight = KO_E;
lastChange = "2026-03-13 10:15:51 +0000";
layers = (
{
anchors = (
{
name = bottom;
pos = (458,0);
},
{
name = top;
pos = (452,700);
}
);
layerId = "A5EF4BC6-6509-4D3B-8B47-D449F40BB885";
shapes = (
{
closed = 1;
nodes = (
(47,0,l),
(138,234,l),
(430,234,l),
(430,0,l),
(852,0,l),
(852,22,l),
(454,22,l),
(454,339,l),
(834,339,l),
(834,361,l),
(454,361,l),
(454,678,l),
(852,678,l),
(852,700,l),
(294,700,l),
(20,0,l)
);
},
{
closed = 1;
nodes = (
(310,679,l),
(430,678,l),
(430,256,l),
(146,256,l)
);
}
);
width = 917;
},
{
anchors = (
{
name = bottom;
pos = (511,0);
},
{
name = top;
pos = (567,700);
}
);
layerId = "0EDB233F-674C-46BF-8D38-84A6CD2C2EDF";
shapes = (
{
closed = 1;
nodes = (
(228,0,l),
(272,137,l),
(452,137,l),
(452,0,l),
(981,0,l),
(981,180,l),
(652,180,l),
(652,275,l),
(942,275,l),
(942,425,l),
(652,425,l),
(652,520,l),
(981,520,l),
(981,700,l),
(239,700,l),
(20,0,l)
);
},
{
closed = 1;
nodes = (
(379,532,l),
(452,532,l),
(452,295,l),
(313,295,l)
);
}
);
width = 1033;
},
{
anchors = (
{
name = bottom;
pos = (459,0);
},
{
name = top;
pos = (475,700);
}
);
background = {
anchors = (
{
name = bottom;
pos = (459,0);
},
{
name = top;
pos = (459,687);
}
);
};
layerId = "A22F00EF-5553-43E5-A27F-95FD0E0BDB40";
shapes = (
{
closed = 1;
nodes = (
(135,0,l),
(198,177,l),
(418,177,l),
(418,0,l),
(896,0,l),
(896,103,l),
(522,103,l),
(522,301,l),
(879,301,l),
(879,399,l),
(522,399,l),
(522,599,l),
(896,599,l),
(896,700,l),
(273,700,l),
(20,0,l)
);
},
{
closed = 1;
nodes = (
(348,599,l),
(418,599,l),
(418,273,l),
(229,273,l)
);
}
);
width = 975;
}
);
metricLeft = A;
metricRight = E;
unicode = 198;
userData = {
com.schriftgestaltung.Glyphs.leftMetricsKey = A;
com.schriftgestaltung.Glyphs.rightMetricsKey = E;
};
},
{
glyphname = B;
kernLeft = KO_H;
kernRight = KO_B;
lastChange = "2026-03-13 10:15:51 +0000";
layers = (
{
anchors = (
{
name = bottom;
pos = (291,0);
},
{
name = center;
pos = (118,181);
},
{
name = top;
pos = (291,700);
}
);
layerId = "A5EF4BC6-6509-4D3B-8B47-D449F40BB885";
shapes = (
{
closed = 1;
nodes = (
(368,0,ls),
(495,0,o),
(589,67,o),
(589,181,cs),
(589,265,o),
(538,324,o),
(440,352,c),
(530,374,o),
(578,432,o),
(578,517,cs),
(578,631,o),
(495,700,o),
(368,700,cs),
(103,700,l),
(103,0,l)
);
},
{
closed = 1;
nodes = (
(127,341,l),
(368,341,ls),
(474,341,o),
(565,280,o),
(565,181,cs),
(565,82,o),
(482,22,o),
(368,22,cs),
(127,22,l)
);
},
{
closed = 1;
nodes = (
(127,678,l),
(368,678,ls),
(481,678,o),
(554,617,o),
(554,517,cs),
(554,419,o),
(481,363,o),
(368,363,cs),
(127,363,l)
);
}
);
width = 669;
},
{
anchors = (
{
name = bottom;
pos = (335,0);
},
{
name = center;
pos = (167,221);
},
{
name = top;
pos = (335,700);
}
);
layerId = "0EDB233F-674C-46BF-8D38-84A6CD2C2EDF";
shapes = (
{
closed = 1;
nodes = (
(449,0,ls),
(599,0,o),
(695,74,o),
(695,203,cs),
(695,289,o),
(658,348,o),
(589,367,c),
(644,394,o),
(673,446,o),
(673,508,cs),
(673,631,o),
(571,700,o),
(415,700,cs),
(76,700,l),
(76,0,l)
);
},
{
closed = 1;
nodes = (
(276,281,l),
(435,281,ls),
(472,281,o),
(503,260,o),
(503,221,cs),
(503,182,o),
(472,160,o),
(435,160,cs),
(276,160,l)
);
},
{
closed = 1;
nodes = (
(276,540,l),
(415,540,ls),
(452,540,o),
(483,519,o),
(483,480,cs),
(483,441,o),
(452,420,o),
(415,420,cs),
(276,420,l)
);
}
);
width = 743;
},
{
anchors = (
{
name = bottom;
pos = (321,0);
},
{
name = center;
pos = (143,193);
},
{
name = top;
pos = (321,700);
}
);
background = {
shapes = (
{
closed = 1;
nodes = (
(353,0,ls),
(465,0,o),
(547,67,o),
(547,181,cs),
(547,259,o),
(508,329,o),
(425,352,c),
(495,368,o),
(537,431,o),
(537,517,cs),
(537,631,o),
(465,700,o),
(353,700,cs),
(121,700,l),
(121,0,l)
);
},
{
closed = 1;
nodes = (
(145,341,l),
(353,341,ls),
(445,341,o),
(523,280,o),
(523,181,cs),
(523,82,o),
(452,22,o),
(353,22,cs),
(145,22,l)
);
},
{
closed = 1;
nodes = (
(145,678,l),
(353,678,ls),
(451,678,o),
(513,617,o),
(513,517,cs),
(513,419,o),
(451,363,o),
(353,363,cs),
(145,363,l)
);
},
{
closed = 1;
nodes = (
(390,0,ls),
(540,0,o),
(636,74,o),
(636,203,cs),
(636,289,o),
(599,348,o),
(530,367,c),
(585,394,o),
(614,446,o),
(614,508,cs),
(614,631,o),
(512,700,o),
(356,700,cs),
(62,700,l),
(62,0,l)
);
},
{
closed = 1;
nodes = (
(262,281,l),
(376,281,ls),
(413,281,o),
(444,260,o),
(444,221,cs),
(444,182,o),
(413,161,o),
(376,161,cs),
(262,160,l)
);
},
{
closed = 1;
nodes = (
(262,540,l),
(356,540,ls),
(393,540,o),
(424,519,o),
(424,480,cs),
(424,441,o),
(393,420,o),
(356,420,cs),
(262,420,l)
);
}
);
};
layerId = "A22F00EF-5553-43E5-A27F-95FD0E0BDB40";
shapes = (
{
closed = 1;
nodes = (
(389,0,ls),
(537,0,o),
(628,70,o),
(628,193,cs),
(628,272,o),
(584,335,o),
(505,358,c),
(573,386,o),
(611,441,o),
(611,510,cs),
(611,631,o),
(524,700,o),
(380,700,cs),
(88,700,l),
(88,0,l)
);
},
{
closed = 1;
nodes = (
(197,304,l),
(388,304,ls),
(468,304,o),
(520,262,o),
(520,196,cs),
(520,131,o),
(469,94,o),
(388,94,cs),
(197,94,l)
);
},
{
closed = 1;
nodes = (
(197,606,l),
(380,606,ls),
(456,606,o),
(503,568,o),
(503,504,cs),
(503,438,o),
(456,398,o),
(380,398,cs),
(197,398,l)
);
}
);
width = 698;
}
);
metricLeft = H;
unicode = 66;
userData = {
KernOnName = B;
com.schriftgestaltung.Glyphs.ColorIndex = 3;
com.schriftgestaltung.Glyphs.layer.leftMetricsKey = "==H";
com.schriftgestaltung.Glyphs.leftMetricsKey = H;
};
},
{
glyphname = Bstroke;
lastChange = "2026-03-13 10:15:51 +0000";
layers = (
{
layerId = "A5EF4BC6-6509-4D3B-8B47-D449F40BB885";
shapes = (
{
alignment = -1;
pos = (29,0);
ref = B;
},
{
closed = 1;
nodes = (
(272,171,l),
(272,191,l),
(20,191,l),
(20,171,l)
);
}
);
width = 698;
},
{
layerId = "A22F00EF-5553-43E5-A27F-95FD0E0BDB40";
shapes = (
{
alignment = -1;
pos = (38,0);
ref = B;
},
{
closed = 1;
nodes = (
(336,148,l),
(336,238,l),
(25,238,l),
(25,148,l)
);
}
);
width = 736;
},
{
layerId = "0EDB233F-674C-46BF-8D38-84A6CD2C2EDF";
shapes = (
{
alignment = -1;
pos = (56,0);
ref = B;
},
{
closed = 1;
nodes = (
(417,180,l),
(417,257,l),
(30,257,l),
(30,180,l)
);
}
);
width = 799;
}
);
metricLeft = t;
metricRight = B;
unicode = 579;
},
{
glyphname = C;
kernLeft = KO_O;
kernRight = KO_C;
lastChange = "2026-03-13 10:15:51 +0000";
layers = (
{
anchors = (
{
name = bottom;
pos = (404,0);
},
{
name = center;
pos = (308,350);
},
{
name = top;
pos = (394,700);
}
);
background = {
anchors = (
{
name = bottom;
pos = (334,0);
},
{
name = center;
pos = (334,350);
},
{
name = ogonek;
pos = (414,0);
},
{
name = top;
pos = (334,675);
},
{
name = topleft;
pos = (39,700);
},
{
name = topright;
pos = (447,700);
}
);
shapes = (
{
closed = 1;
nodes = (
(616,83,l),
(565,36,o),
(496,10,o),
(414,10,cs),
(231,10,o),
(111,143,o),
(111,351,cs),
(111,557,o),
(231,690,o),
(414,690,cs),
(487,690,o),
(550,669,o),
(600,630,c),
(607,654,l),
(555,691,o),
(489,712,o),
(414,712,cs),
(218,712,o),
(85,569,o),
(85,351,cs),
(85,131,o),
(218,-12,o),
(414,-12,cs),
(498,-12,o),
(570,14,o),
(626,61,c)
);
},
{
pos = (15,0);
ref = O;
}
);
};
layerId = "A5EF4BC6-6509-4D3B-8B47-D449F40BB885";
shapes = (
{
closed = 1;
nodes = (
(498,-12,o),
(570,14,o),
(626,61,c),
(616,83,l),
(565,36,o),
(496,10,o),
(414,10,cs),
(219,10,o),
(91,143,o),
(91,351,cs),
(91,557,o),
(219,690,o),
(414,690,cs),
(487,690,o),
(550,669,o),
(600,630,c),
(607,654,l),
(555,691,o),
(489,712,o),
(414,712,cs),
(206,712,o),
(65,569,o),
(65,351,cs),
(65,131,o),
(206,-12,o),
(414,-12,cs)
);
}
);
width = 678;
},
{
anchors = (
{
name = bottom;
pos = (410,0);
},
{
name = center;
pos = (379,355);
},
{
name = top;
pos = (410,700);
}
);
background = {
anchors = (
{
name = bottom;
pos = (370,0);
},
{
name = center;
pos = (370,350);
},
{
name = ogonek;
pos = (452,0);
},
{
name = top;
pos = (370,675);
},
{
name = topleft;
pos = (65,700);
},
{
name = topright;
pos = (486,700);
}
);
};
layerId = "0EDB233F-674C-46BF-8D38-84A6CD2C2EDF";
shapes = (
{
closed = 1;
nodes = (
(518,-12,o),
(585,5,o),
(641,37,c),
(587,185,l),
(554,169,o),
(509,160,o),
(469,160,cs),
(333,160,o),
(255,230,o),
(255,350,cs),
(255,470,o),
(333,540,o),
(469,540,cs),
(509,540,o),
(554,531,o),
(587,515,c),
(641,663,l),
(585,695,o),
(518,712,o),
(442,712,cs),
(196,712,o),
(40,572,o),
(40,350,cs),
(40,128,o),
(196,-12,o),
(442,-12,cs)
);
}
);
width = 679;
},
{
anchors = (
{
name = bottom;
pos = (402,0);
},
{
name = center;
pos = (319,350);
},
{
name = top;
pos = (394,700);
}
);
background = {
anchors = (
{
name = bottom;
pos = (316,0);
},
{
name = center;
pos = (327,350);
},
{
name = ogonek;
pos = (404,0);
},
{
name = top;
pos = (318,687);
},
{
name = topleft;
pos = (41,700);
},
{
name = topright;
pos = (436,700);
}
);
shapes = (
{
closed = 1;
nodes = (
(481,-12,o),
(546,9,o),
(599,47,c),
(566,138,l),
(525,110,o),
(472,91,o),
(404,91,cs),
(267,91,o),
(189,193,o),
(189,350,cs),
(189,507,o),
(267,609,o),
(404,609,cs),
(472,609,o),
(525,590,o),
(566,562,c),
(599,653,l),
(546,691,o),
(481,712,o),
(404,712,cs),
(199,712,o),
(71,557,o),
(71,350,cs),
(71,143,o),
(199,-12,o),
(404,-12,cs)
);
},
{
pos = (6,0);
ref = O;
}
);
};
layerId = "A22F00EF-5553-43E5-A27F-95FD0E0BDB40";
shapes = (
{
closed = 1;
nodes = (
(487,-12,o),
(548,9,o),
(599,47,c),
(566,138,l),
(527,110,o),
(478,91,o),
(414,91,cs),
(258,91,o),
(169,193,o),
(169,350,cs),
(169,507,o),
(258,609,o),
(414,609,cs),
(478,609,o),
(527,590,o),
(566,562,c),
(599,653,l),
(548,691,o),
(487,712,o),
(414,712,cs),
(191,712,o),
(51,557,o),
(51,350,cs),
(51,143,o),
(191,-12,o),
(414,-12,cs)
);
}
);
width = 643;
}
);
metricLeft = O;
metricRight = "=I/2";
unicode = 67;
userData = {
KernOnName = C;
com.schriftgestaltung.Glyphs.ColorIndex = 3;
com.schriftgestaltung.Glyphs.layer.leftMetricsKey = "==O";
com.schriftgestaltung.Glyphs.leftMetricsKey = O;
};
},
{
glyphname = D;
kernLeft = KO_H;
kernRight = KO_O;
lastChange = "2026-03-13 10:15:51 +0000";
layers = (
{
anchors = (
{
name = bottom;
pos = (350,0);
},
{
name = center;
pos = (116,350);
},
{
name = ogonek;
pos = (390,0);
},
{
name = top;
pos = (350,700);
},
{
name = topleft;
pos = (38,700);
},
{
name = topright;
pos = (421,700);
}
);
background = {
shapes = (
{
pos = (-7,0);
ref = O;
}
);
};
layerId = "A5EF4BC6-6509-4D3B-8B47-D449F40BB885";
shapes = (
{
closed = 1;
nodes = (
(322,0,ls),
(531,0,o),
(672,138,o),
(672,351,cs),
(672,562,o),
(531,700,o),
(322,700,cs),
(103,700,l),
(103,0,l)
);
},
{
closed = 1;
nodes = (
(127,678,l),
(322,678,ls),
(518,678,o),
(646,550,o),
(646,351,cs),
(646,150,o),
(518,22,o),
(322,22,cs),
(127,22,l)
);
}
);
width = 737;
},
{
anchors = (
{
name = bottom;
pos = (375,0);
},
{
name = center;
pos = (180,350);
},
{
name = ogonek;
pos = (422,0);
},
{
name = top;
pos = (375,700);
},
{
name = topleft;
pos = (70,700);
},
{
name = topright;
pos = (453,700);
}
);
background = {
shapes = (
{
pos = (-14,0);
ref = O;
}
);
};
layerId = "0EDB233F-674C-46BF-8D38-84A6CD2C2EDF";
shapes = (
{
closed = 1;
nodes = (
(384,0,ls),
(620,0,o),
(768,134,o),
(768,351,cs),
(768,566,o),
(620,700,o),
(384,700,cs),
(76,700,l),
(76,0,l)
);
},
{
closed = 1;
nodes = (
(286,520,l),
(384,520,ls),
(486,520,o),
(553,458,o),
(553,350,cs),
(553,242,o),
(486,180,o),
(384,180,cs),
(286,180,l)
);
}
);
width = 808;
},
{
anchors = (
{
name = bottom;
pos = (356,0);
},
{
name = center;
pos = (143,350);
},
{
name = ogonek;
pos = (342,0);
},
{
name = top;
pos = (356,700);
},
{
name = topleft;
pos = (-10,700);
},
{
name = topright;
pos = (373,700);
}
);
background = {
shapes = (
{
pos = (-12,0);
ref = O;
}
);
};
layerId = "A22F00EF-5553-43E5-A27F-95FD0E0BDB40";
shapes = (
{
closed = 1;
nodes = (
(348,0,ls),
(560,0,o),
(692,149,o),
(692,351,cs),
(692,551,o),
(560,700,o),
(348,700,cs),
(88,700,l),
(88,0,l)
);
},
{
closed = 1;
nodes = (
(193,597,l),
(348,597,ls),
(492,597,o),
(575,501,o),
(575,351,cs),
(575,200,o),
(492,103,o),
(348,103,cs),
(193,103,l)
);
}
);
width = 743;
}
);
metricLeft = H;
metricRight = O;
unicode = 68;
userData = {
com.schriftgestaltung.Glyphs.ColorIndex = 3;
com.schriftgestaltung.Glyphs.layer.leftMetricsKey = "==H";
com.schriftgestaltung.Glyphs.layer.rightMetricsKey = "==O";
com.schriftgestaltung.Glyphs.leftMetricsKey = H;
com.schriftgestaltung.Glyphs.rightMetricsKey = O;
};
},
{
glyphname = DZcaron;
lastChange = "2026-03-13 10:15:51 +0000";
layers = (
{
anchors = (
{
name = bottom;
pos = (934,0);
},
{
name = center;
pos = (116,350);
},
{
name = ogonek;
pos = (390,0);
},
{
name = top;
pos = (934,857);
},
{
name = topleft;
pos = (38,700);
},
{
name = topright;
pos = (421,700);
}
);
background = {
shapes = (
{
closed = 1;
nodes = (
(322,0,ls),
(531,0,o),
(672,138,o),
(672,351,cs),
(672,562,o),
(531,700,o),
(322,700,cs),
(103,700,l),
(103,0,l)
);
},
{
closed = 1;
nodes = (
(127,678,l),
(322,678,ls),
(518,678,o),
(646,550,o),
(646,351,cs),
(646,150,o),
(518,22,o),
(322,22,cs),
(127,22,l)
);
},
{
closed = 1;
nodes = (
(1150,0,l),
(1150,22,l),
(733,22,ls),
(722,22,o),
(719,28,o),
(729,38,cs),
(755,64,l),
(1145,678,l),
(1145,700,l),
(715,700,l),
(715,678,l),
(1111,678,l),
(1119,678,o),
(1125,672,o),
(1116,663,cs),
(1092,637,l),
(701,21,l),
(701,0,l)
);
},
{
closed = 1;
nodes = (
(942,796,l),
(1034,938,l),
(1012,938,l),
(949,845,l),
(936,818,ls),
(933,812,o),
(925,812,o),
(922,818,cs),
(909,845,l),
(847,938,l),
(824,938,l),
(916,796,l)
);
}
);
};
layerId = "A5EF4BC6-6509-4D3B-8B47-D449F40BB885";
shapes = (
{
closed = 1;
nodes = (
(322,0,ls),
(531,0,o),
(672,138,o),
(672,351,cs),
(672,562,o),
(531,700,o),
(322,700,cs),
(103,700,l),
(103,0,l)
);
},
{
closed = 1;
nodes = (
(127,678,l),
(322,678,ls),
(518,678,o),
(646,550,o),
(646,351,cs),
(646,150,o),
(518,22,o),
(322,22,cs),
(127,22,l)
);
},
{
closed = 1;
nodes = (
(1153,0,l),
(1153,22,l),
(736,22,ls),
(725,22,o),
(722,28,o),
(732,38,cs),
(758,64,l),
(1148,678,l),
(1148,700,l),
(718,700,l),
(718,678,l),
(1114,678,l),
(1122,678,o),
(1128,672,o),
(1119,663,cs),
(1095,637,l),
(704,21,l),
(704,0,l)
);
},
{
closed = 1;
nodes = (
(945,796,l),
(1037,938,l),
(1015,938,l),
(952,845,l),
(939,818,ls),
(936,812,o),
(928,812,o),
(925,818,cs),
(912,845,l),
(850,938,l),
(827,938,l),
(919,796,l)
);
}
);
width = 1205;
},
{
anchors = (
{
name = bottom;
pos = (1120,0);
},
{
name = center;
pos = (180,350);
},
{
name = ogonek;
pos = (422,0);
},
{
name = top;
pos = (1120,914);
},
{
name = topleft;
pos = (70,700);
},
{
name = topright;
pos = (453,700);
}
);
background = {
shapes = (
{
closed = 1;
nodes = (
(384,0,ls),
(620,0,o),
(768,134,o),
(768,351,cs),
(768,566,o),
(620,700,o),
(384,700,cs),
(76,700,l),
(76,0,l)
);
},
{
closed = 1;
nodes = (
(286,520,l),
(384,520,ls),
(486,520,o),
(553,458,o),
(553,350,cs),
(553,242,o),
(486,180,o),
(384,180,cs),
(286,180,l)
);
},
{
closed = 1;
nodes = (
(1411,0,l),
(1411,180,l),
(1105,180,ls),
(1089,180,o),
(1084,191,o),
(1100,205,cs),
(1182,275,l),
(1411,539,l),
(1411,700,l),
(837,700,l),
(837,520,l),
(1154,520,l),
(1171,520,o),
(1176,507,o),
(1160,494,cs),
(1072,420,l),
(839,161,l),
(839,0,l)
);
},
{
closed = 1;
nodes = (
(1217,772,l),
(1306,914,l),
(1168,914,l),
(1141,876,l),
(1128,846,ls),
(1125,838,o),
(1113,838,o),
(1110,846,cs),
(1097,876,l),
(1070,914,l),
(932,914,l),
(1021,772,l)
);
}
);
};
layerId = "0EDB233F-674C-46BF-8D38-84A6CD2C2EDF";
shapes = (
{
closed = 1;
nodes = (
(384,0,ls),
(620,0,o),
(768,134,o),
(768,351,cs),
(768,566,o),
(620,700,o),
(384,700,cs),
(76,700,l),
(76,0,l)
);
},
{
closed = 1;
nodes = (
(286,520,l),
(384,520,ls),
(486,520,o),
(553,458,o),
(553,350,cs),
(553,242,o),
(486,180,o),
(384,180,cs),
(286,180,l)
);
},
{
closed = 1;
nodes = (
(1412,0,l),
(1412,180,l),
(1106,180,ls),
(1090,180,o),
(1085,191,o),
(1101,205,cs),
(1183,275,l),
(1412,539,l),
(1412,700,l),
(838,700,l),
(838,520,l),
(1155,520,l),
(1172,520,o),
(1177,507,o),
(1161,494,cs),
(1073,420,l),
(840,161,l),
(840,0,l)
);
},
{
closed = 1;
nodes = (
(1218,772,l),
(1307,914,l),
(1169,914,l),
(1142,876,l),
(1129,846,ls),
(1126,838,o),
(1114,838,o),
(1111,846,cs),
(1098,876,l),
(1071,914,l),
(933,914,l),
(1022,772,l)
);
}
);
width = 1450;
},
{
anchors = (
{
name = bottom;
pos = (998,0);
},
{
name = center;
pos = (143,350);
},
{
name = ogonek;
pos = (342,0);
},
{
name = top;
pos = (998,907);
},
{
name = topleft;
pos = (-10,700);
},
{
name = topright;
pos = (373,700);
}
);
background = {
shapes = (
{
closed = 1;
nodes = (
(348,0,ls),
(560,0,o),
(692,149,o),
(692,351,cs),
(692,551,o),
(560,700,o),
(348,700,cs),
(88,700,l),
(88,0,l)
);
},
{
closed = 1;
nodes = (
(193,597,l),
(348,597,ls),
(492,597,o),
(575,501,o),
(575,351,cs),
(575,200,o),
(492,103,o),
(348,103,cs),
(193,103,l)
);
},
{
closed = 1;
nodes = (
(1256,0,l),
(1256,103,l),
(893,103,ls),
(886,103,o),
(882,111,o),
(888,117,cs),
(947,186,l),
(1255,632,l),
(1255,700,l),
(748,700,l),
(748,597,l),
(1104,597,l),
(1110,597,o),
(1114,589,o),
(1109,583,cs),
(1047,508,l),
(739,68,l),
(739,0,l)
);
},
{
closed = 1;
nodes = (
(1049,782,l),
(1142,924,l),
(1054,924,l),
(1015,867,l),
(1003,837,ls),
(999,829,o),
(993,829,o),
(989,837,cs),
(978,867,l),
(939,924,l),
(851,924,l),
(944,782,l)
);
}
);
};
layerId = "A22F00EF-5553-43E5-A27F-95FD0E0BDB40";
shapes = (
{
closed = 1;
nodes = (
(348,0,ls),
(560,0,o),
(692,149,o),
(692,351,cs),
(692,551,o),
(560,700,o),
(348,700,cs),
(88,700,l),
(88,0,l)
);
},
{
closed = 1;
nodes = (
(193,597,l),
(348,597,ls),
(492,597,o),
(575,501,o),
(575,351,cs),
(575,200,o),
(492,103,o),
(348,103,cs),
(193,103,l)
);
},
{
closed = 1;
nodes = (
(1257,0,l),
(1257,103,l),
(894,103,ls),
(887,103,o),
(883,111,o),
(889,117,cs),
(948,186,l),
(1256,632,l),
(1256,700,l),
(749,700,l),
(749,597,l),
(1105,597,l),
(1111,597,o),
(1115,589,o),
(1110,583,cs),
(1048,508,l),
(740,68,l),
(740,0,l)
);
},
{
closed = 1;
nodes = (
(1050,782,l),
(1143,924,l),
(1055,924,l),
(1016,867,l),
(1004,837,ls),
(1000,829,o),
(994,829,o),
(990,837,cs),
(979,867,l),
(940,924,l),
(852,924,l),
(945,782,l)
);
}
);
width = 1301;
}
);
unicode = 452;
},
{
glyphname = Dcroat;
kernRight = KO_O;
lastChange = "2026-03-13 10:15:51 +0000";
layers = (
{
layerId = "A5EF4BC6-6509-4D3B-8B47-D449F40BB885";
shapes = (
{
closed = 1;
nodes = (
(353,0,ls),
(562,0,o),
(703,138,o),
(703,351,cs),
(703,562,o),
(562,700,o),
(353,700,cs),
(134,700,l),
(134,360,l),
(20,360,l),
(20,340,l),
(134,340,l),
(134,0,l)
);
},
{
closed = 1;
nodes = (
(158,340,l),
(272,340,l),
(272,360,l),
(158,360,l),
(158,678,l),
(353,678,ls),
(549,678,o),
(677,550,o),
(677,351,cs),
(677,150,o),
(549,22,o),
(353,22,cs),
(158,22,l)
);
}
);
width = 768;
},
{
layerId = "0EDB233F-674C-46BF-8D38-84A6CD2C2EDF";
shapes = (
{
closed = 1;
nodes = (
(420,0,ls),
(656,0,o),
(804,134,o),
(804,351,cs),
(804,566,o),
(656,700,o),
(420,700,cs),
(112,700,l),
(112,422,l),
(30,422,l),
(30,268,l),
(112,268,l),
(112,0,l)
);
},
{
closed = 1;
nodes = (
(322,268,l),
(403,268,l),
(403,422,l),
(322,422,l),
(322,520,l),
(420,520,ls),
(522,520,o),
(589,458,o),
(589,350,cs),
(589,242,o),
(522,180,o),
(420,180,cs),
(322,180,l)
);
}
);
width = 844;
},
{
layerId = "A22F00EF-5553-43E5-A27F-95FD0E0BDB40";
shapes = (
{
closed = 1;
nodes = (
(386,0,ls),
(598,0,o),
(730,149,o),
(730,351,cs),
(730,551,o),
(598,700,o),
(386,700,cs),
(126,700,l),
(126,395,l),
(25,395,l),
(25,305,l),
(126,305,l),
(126,0,l)
);
},
{
closed = 1;
nodes = (
(231,305,l),
(336,305,l),
(336,395,l),
(231,395,l),
(231,597,l),
(386,597,ls),
(530,597,o),
(613,501,o),
(613,351,cs),
(613,200,o),
(530,103,o),
(386,103,cs),
(231,103,l)
);
}
);
width = 781;
}
);
unicode = 272;
userData = {
KernOnName = Dcroat;
};
},
{
glyphname = Dzcaron;
lastChange = "2026-03-13 10:15:51 +0000";
layers = (
{
layerId = "A5EF4BC6-6509-4D3B-8B47-D449F40BB885";
shapes = (
{
closed = 1;
nodes = (
(322,0,ls),
(531,0,o),
(672,138,o),
(672,351,cs),
(672,562,o),
(531,700,o),
(322,700,cs),
(103,700,l),
(103,0,l)
);
},
{
closed = 1;
nodes = (
(127,678,l),
(322,678,ls),
(518,678,o),
(646,550,o),
(646,351,cs),
(646,150,o),
(518,22,o),
(322,22,cs),
(127,22,l)
);
},
{
closed = 1;
nodes = (
(1128,0,l),
(1128,22,l),
(805,22,ls),
(795,22,o),
(792,26,o),
(798,33,cs),
(836,79,l),
(1128,519,l),
(1128,522,l),
(758,522,l),
(758,500,l),
(1082,500,ls),
(1090,500,o),
(1093,493,o),
(1088,487,cs),
(1051,443,l),
(758,2,l),
(758,0,l)
);
},
{
closed = 1;
nodes = (
(954,618,l),
(1046,760,l),
(1024,760,l),
(961,667,l),
(948,640,ls),
(945,634,o),
(937,634,o),
(934,640,cs),
(921,667,l),
(859,760,l),
(836,760,l),
(928,618,l)
);
}
);
width = 1178;
},
{
layerId = "0EDB233F-674C-46BF-8D38-84A6CD2C2EDF";
shapes = (
{
closed = 1;
nodes = (
(384,0,ls),
(620,0,o),
(768,134,o),
(768,351,cs),
(768,566,o),
(620,700,o),
(384,700,cs),
(76,700,l),
(76,0,l)
);
},
{
closed = 1;
nodes = (
(286,520,l),
(384,520,ls),
(486,520,o),
(553,458,o),
(553,350,cs),
(553,242,o),
(486,180,o),
(384,180,cs),
(286,180,l)
);
},
{
closed = 1;
nodes = (
(1300,0,l),
(1300,154,l),
(1062,154,ls),
(1050,154,o),
(1046,163,o),
(1058,171,cs),
(1097,198,l),
(1300,407,l),
(1300,546,l),
(840,546,l),
(840,391,l),
(1076,391,ls),
(1086,391,o),
(1093,383,o),
(1080,374,cs),
(1041,348,l),
(840,140,l),
(840,0,l)
);
},
{
closed = 1;
nodes = (
(1168,618,l),
(1257,760,l),
(1119,760,l),
(1092,722,l),
(1079,692,ls),
(1076,684,o),
(1064,684,o),
(1061,692,cs),
(1048,722,l),
(1021,760,l),
(883,760,l),
(972,618,l)
);
}
);
width = 1332;
},
{
layerId = "A22F00EF-5553-43E5-A27F-95FD0E0BDB40";
shapes = (
{
closed = 1;
nodes = (
(348,0,ls),
(560,0,o),
(692,149,o),
(692,351,cs),
(692,551,o),
(560,700,o),
(348,700,cs),
(88,700,l),
(88,0,l)
);
},
{
closed = 1;
nodes = (
(193,597,l),
(348,597,ls),
(492,597,o),
(575,501,o),
(575,351,cs),
(575,200,o),
(492,103,o),
(348,103,cs),
(193,103,l)
);
},
{
closed = 1;
nodes = (
(1190,0,l),
(1190,90,l),
(912,90,ls),
(907,90,o),
(894,95,o),
(908,107,cs),
(947,141,l),
(1190,467,l),
(1190,536,l),
(777,536,l),
(777,446,l),
(1054,446,ls),
(1062,446,o),
(1070,440,o),
(1058,429,cs),
(1021,395,l),
(777,69,l),
(777,0,l)
);
},
{
closed = 1;
nodes = (
(1035,618,l),
(1128,760,l),
(1040,760,l),
(1001,703,l),
(989,673,ls),
(985,665,o),
(979,665,o),
(975,673,cs),
(964,703,l),
(925,760,l),
(837,760,l),
(930,618,l)
);
}
);
width = 1238;
}
);
unicode = 453;
},
{
color = 4;
glyphname = Eth;
kernRight = KO_O;
lastChange = "2026-03-13 10:15:51 +0000";
layers = (
{
anchors = (
{
name = bottom;
pos = (384,0);
},
{
name = top;
pos = (384,700);
}
);
background = {
anchors = (
{
name = bottom;
pos = (381,0);
},
{
name = center;
pos = (147,350);
},
{
name = ogonek;
pos = (421,0);
},
{
name = top;
pos = (381,700);
},
{
name = topleft;
pos = (69,700);
},
{
name = topright;
pos = (452,700);
}
);
shapes = (
{
closed = 1;
nodes = (
(353,0,ls),
(562,0,o),
(703,138,o),
(703,351,cs),
(703,562,o),
(562,700,o),
(353,700,cs),
(134,700,l),
(134,0,l)
);
},
{
closed = 1;
nodes = (
(158,678,l),
(353,678,ls),
(549,678,o),
(677,550,o),
(677,351,cs),
(677,150,o),
(549,22,o),
(353,22,cs),
(158,22,l)
);
},
{
closed = 1;
nodes = (
(272,340,l),
(272,360,l),
(20,360,l),
(20,340,l)
);
}
);
};
layerId = "A5EF4BC6-6509-4D3B-8B47-D449F40BB885";
shapes = (
{
closed = 1;
nodes = (
(353,0,ls),
(562,0,o),
(703,138,o),
(703,351,cs),
(703,562,o),
(562,700,o),
(353,700,cs),
(134,700,l),
(134,0,l)
);
},
{
closed = 1;
nodes = (
(158,678,l),
(353,678,ls),
(549,678,o),
(677,550,o),
(677,351,cs),
(677,150,o),
(549,22,o),
(353,22,cs),
(158,22,l)
);
},
{
closed = 1;
nodes = (
(272,340,l),
(272,360,l),
(20,360,l),
(20,340,l)
);
}
);
width = 768;
},
{
anchors = (
{
name = bottom;
pos = (422,0);
},
{
name = top;
pos = (422,700);
}
);
background = {
anchors = (
{
name = bottom;
pos = (411,0);
},
{
name = center;
pos = (216,350);
},
{
name = ogonek;
pos = (458,0);
},
{
name = top;
pos = (411,700);
},
{
name = topleft;
pos = (106,700);
},
{
name = topright;
pos = (489,700);
}
);
shapes = (
{
closed = 1;
nodes = (
(420,0,ls),
(656,0,o),
(804,134,o),
(804,351,cs),
(804,566,o),
(656,700,o),
(420,700,cs),
(112,700,l),
(112,0,l)
);
},
{
closed = 1;
nodes = (
(322,520,l),
(420,520,ls),
(522,520,o),
(589,458,o),
(589,350,cs),
(589,242,o),
(522,180,o),
(420,180,cs),
(322,180,l)
);
},
{
closed = 1;
nodes = (
(403,268,l),
(403,422,l),
(30,422,l),
(30,268,l)
);
}
);
};
layerId = "0EDB233F-674C-46BF-8D38-84A6CD2C2EDF";
shapes = (
{
closed = 1;
nodes = (
(420,0,ls),
(656,0,o),
(804,134,o),
(804,351,cs),
(804,566,o),
(656,700,o),
(420,700,cs),
(112,700,l),
(112,0,l)
);
},
{
closed = 1;
nodes = (
(322,520,l),
(420,520,ls),
(522,520,o),
(589,458,o),
(589,350,cs),
(589,242,o),
(522,180,o),
(420,180,cs),
(322,180,l)
);
},
{
closed = 1;
nodes = (
(403,268,l),
(403,422,l),
(30,422,l),
(30,268,l)
);
}
);
width = 844;
},
{
anchors = (
{
name = bottom;
pos = (391,0);
},
{
name = top;
pos = (391,700);
}
);
background = {
anchors = (
{
name = bottom;
pos = (394,0);
},
{
name = center;
pos = (181,350);
},
{
name = ogonek;
pos = (380,0);
},
{
name = top;
pos = (394,700);
},
{
name = topleft;
pos = (28,700);
},
{
name = topright;
pos = (411,700);
}
);
shapes = (
{
closed = 1;
nodes = (
(386,0,ls),
(598,0,o),
(730,149,o),
(730,351,cs),
(730,551,o),
(598,700,o),
(386,700,cs),
(126,700,l),
(126,0,l)
);
},
{
closed = 1;
nodes = (
(231,597,l),
(386,597,ls),
(530,597,o),
(613,501,o),
(613,351,cs),
(613,200,o),
(530,103,o),
(386,103,cs),
(231,103,l)
);
},
{
closed = 1;
nodes = (
(336,305,l),
(336,395,l),
(25,395,l),
(25,305,l)
);
}
);
};
layerId = "A22F00EF-5553-43E5-A27F-95FD0E0BDB40";
shapes = (
{
closed = 1;
nodes = (
(386,0,ls),
(598,0,o),
(730,149,o),
(730,351,cs),
(730,551,o),
(598,700,o),
(386,700,cs),
(126,700,l),
(126,0,l)
);
},
{
closed = 1;
nodes = (
(231,597,l),
(386,597,ls),
(530,597,o),
(613,501,o),
(613,351,cs),
(613,200,o),
(530,103,o),
(386,103,cs),
(231,103,l)
);
},
{
closed = 1;
nodes = (
(336,305,l),
(336,395,l),
(25,395,l),
(25,305,l)
);
}
);
width = 781;
},
{
associatedMasterId = "A5EF4BC6-6509-4D3B-8B47-D449F40BB885";
layerId = "9CC32C0F-5D6B-49D0-A31F-1AF82E767B89";
name = "12 Mar 26 at 16:02";
shapes = (
{
alignment = -1;
pos = (31,0);
ref = D;
},
{
pos = (-30,99);
ref = _part.stroke;
}
);
width = 768;
},
{
associatedMasterId = "A22F00EF-5553-43E5-A27F-95FD0E0BDB40";
layerId = "0D36BE9C-DF1C-4DB9-B61B-A490420662CE";
name = "12 Mar 26 at 16:02";
shapes = (
{
alignment = -1;
pos = (38,0);
ref = D;
},
{
pos = (-25,85);
ref = _part.stroke;
}
);
width = 781;
},
{
associatedMasterId = "0EDB233F-674C-46BF-8D38-84A6CD2C2EDF";
layerId = "3BFD312E-BE2F-4723-8BDB-72A0F8CA3515";
name = "12 Mar 26 at 16:02";
shapes = (
{
alignment = -1;
pos = (36,0);
ref = D;
},
{
pos = (-20,70);
ref = _part.stroke;
}
);
width = 844;
}
);
metricLeft = t;
unicode = 208;
userData = {
com.schriftgestaltung.Glyphs.rightMetricsKey = O;
};
},
{
glyphname = E;
kernLeft = KO_H;
kernRight = KO_E;
lastChange = "2026-03-13 10:15:51 +0000";
layers = (
{
anchors = (
{
name = bottom;
pos = (306,0);
},
{
name = ogonek;
pos = (503,0);
},
{
name = top;
pos = (306,700);
},
{
name = topleft;
pos = (13,700);
}
);
layerId = "A5EF4BC6-6509-4D3B-8B47-D449F40BB885";
shapes = (
{
closed = 1;
nodes = (
(524,0,l),
(524,22,l),
(128,22,l),
(128,339,l),
(506,339,l),
(506,361,l),
(128,361,l),
(128,678,l),
(524,678,l),
(524,700,l),
(103,700,l),
(103,0,l)
);
}
);
width = 589;
},
{
anchors = (
{
name = bottom;
pos = (350,0);
},
{
name = ogonek;
pos = (580,0);
},
{
name = top;
pos = (350,700);
},
{
name = topleft;
pos = (49,700);
}
);
layerId = "0EDB233F-674C-46BF-8D38-84A6CD2C2EDF";
shapes = (
{
closed = 1;
nodes = (
(605,0,l),
(605,165,l),
(276,165,l),
(276,273,l),
(567,273,l),
(567,427,l),
(276,427,l),
(276,535,l),
(605,535,l),
(605,700,l),
(76,700,l),
(76,0,l)
);
}
);
width = 657;
},
{
anchors = (
{
name = bottom;
pos = (329,0);
},
{
name = ogonek;
pos = (531,0);
},
{
name = top;
pos = (329,700);
},
{
name = topleft;
pos = (20,700);
}
);
background = {
anchors = (
{
name = bottom;
pos = (314,0);
},
{
name = ogonek;
pos = (502,0);
},
{
name = top;
pos = (314,675);
},
{
name = topleft;
pos = (35,700);
}
);
shapes = (
{
closed = 1;
nodes = (
(522,0,l),
(522,22,l),
(145,22,l),
(145,339,l),
(505,339,l),
(505,361,l),
(145,361,l),
(145,678,l),
(522,678,l),
(522,700,l),
(121,700,l),
(121,0,l)
);
},
{
closed = 1;
nodes = (
(551,0,l),
(551,180,l),
(272,180,l),
(272,270,l),
(534,270,l),
(534,430,l),
(272,430,l),
(272,520,l),
(551,520,l),
(551,700,l),
(62,700,l),
(62,0,l)
);
}
);
};
layerId = "A22F00EF-5553-43E5-A27F-95FD0E0BDB40";
shapes = (
{
closed = 1;
nodes = (
(566,0,l),
(566,103,l),
(195,103,l),
(195,301,l),
(548,301,l),
(548,399,l),
(195,399,l),
(195,597,l),
(566,597,l),
(566,700,l),
(88,700,l),
(88,0,l)
);
}
);
width = 645;
}
);
metricLeft = H;
unicode = 69;
userData = {
KernOnName = E;
com.schriftgestaltung.Glyphs.ColorIndex = 3;
com.schriftgestaltung.Glyphs.layer.leftMetricsKey = "==H";
com.schriftgestaltung.Glyphs.leftMetricsKey = H;
};
},
{
glyphname = Ecircumflexdotbelow;
kernLeft = KO_H;
kernRight = KO_E;
lastChange = "2026-03-13 10:15:51 +0000";
layers = (
{
anchors = (
{
name = bottom;
pos = (306,-228);
},
{
name = ogonek;
pos = (503,0);
},
{
name = top;
pos = (306,887);
},
{
name = topleft;
pos = (13,700);
}
);
layerId = "A5EF4BC6-6509-4D3B-8B47-D449F40BB885";
shapes = (
{
closed = 1;
nodes = (
(318,-228,l),
(318,-110,l),
(294,-110,l),
(294,-228,l)
);
},
{
closed = 1;
nodes = (
(223,796,l),
(286,889,l),
(299,916,ls),
(302,922,o),
(310,922,o),
(313,916,cs),
(326,889,l),
(389,796,l),
(411,796,l),
(319,938,l),
(293,938,l),
(201,796,l)
);
},
{
ref = E;
}
);
width = 589;
},
{
anchors = (
{
name = bottom;
pos = (350,-204);
},
{
name = ogonek;
pos = (580,0);
},
{
name = top;
pos = (350,920);
},
{
name = topleft;
pos = (49,700);
}
);
layerId = "0EDB233F-674C-46BF-8D38-84A6CD2C2EDF";
shapes = (
{
closed = 1;
nodes = (
(458,-204,l),
(458,-72,l),
(241,-72,l),
(241,-204,l)
);
},
{
closed = 1;
nodes = (
(300,772,l),
(327,810,l),
(340,840,ls),
(343,848,o),
(355,848,o),
(358,840,cs),
(371,810,l),
(398,772,l),
(536,772,l),
(447,914,l),
(251,914,l),
(162,772,l)
);
},
{
ref = E;
}
);
width = 657;
},
{
anchors = (
{
name = bottom;
pos = (329,-214);
},
{
name = ogonek;
pos = (531,0);
},
{
name = top;
pos = (329,917);
},
{
name = topleft;
pos = (20,700);
}
);
layerId = "A22F00EF-5553-43E5-A27F-95FD0E0BDB40";
shapes = (
{
closed = 1;
nodes = (
(383,-214,l),
(383,-96,l),
(275,-96,l),
(275,-214,l)
);
},
{
closed = 1;
nodes = (
(271,782,l),
(310,839,l),
(321,869,ls),
(325,877,o),
(331,877,o),
(335,869,cs),
(347,839,l),
(386,782,l),
(474,782,l),
(381,924,l),
(276,924,l),
(183,782,l)
);
},
{
ref = E;
}
);
width = 645;
}
);
unicode = 7878;
},
{
glyphname = Edotbelow;
kernLeft = KO_H;
kernRight = KO_E;
lastChange = "2026-03-13 10:15:51 +0000";
layers = (
{
anchors = (
{
name = bottom;
pos = (306,-228);
},
{
name = ogonek;
pos = (503,0);
},
{
name = top;
pos = (306,700);
},
{
name = topleft;
pos = (13,700);
}
);
background = {
shapes = (
{
ref = E;
},
{
pos = (6,0);
ref = dotbelowcomb;
}
);
};
layerId = "A5EF4BC6-6509-4D3B-8B47-D449F40BB885";
shapes = (
{
closed = 1;
nodes = (
(524,0,l),
(524,22,l),
(128,22,l),
(128,339,l),
(506,339,l),
(506,361,l),
(128,361,l),
(128,678,l),
(524,678,l),
(524,700,l),
(103,700,l),
(103,0,l)
);
},
{
closed = 1;
nodes = (
(318,-228,l),
(318,-110,l),
(294,-110,l),
(294,-228,l)
);
}
);
width = 589;
},
{
anchors = (
{
name = bottom;
pos = (350,-204);
},
{
name = ogonek;
pos = (580,0);
},
{
name = top;
pos = (350,700);
},
{
name = topleft;
pos = (49,700);
}
);
background = {
shapes = (
{
ref = E;
},
{
pos = (49,0);
ref = dotbelowcomb;
}
);
};
layerId = "0EDB233F-674C-46BF-8D38-84A6CD2C2EDF";
shapes = (
{
closed = 1;
nodes = (
(605,0,l),
(605,165,l),
(276,165,l),
(276,273,l),
(567,273,l),
(567,427,l),
(276,427,l),
(276,535,l),
(605,535,l),
(605,700,l),
(76,700,l),
(76,0,l)
);
},
{
closed = 1;
nodes = (
(458,-204,l),
(458,-72,l),
(241,-72,l),
(241,-204,l)
);
}
);
width = 657;
},
{
anchors = (
{
name = bottom;
pos = (329,-214);
},
{
name = ogonek;
pos = (531,0);
},
{
name = top;
pos = (329,700);
},
{
name = topleft;
pos = (20,700);
}
);
background = {
shapes = (
{
ref = E;
},
{
pos = (29,0);
ref = dotbelowcomb;
}
);
};
layerId = "A22F00EF-5553-43E5-A27F-95FD0E0BDB40";
shapes = (
{
closed = 1;
nodes = (
(566,0,l),
(566,103,l),
(195,103,l),
(195,301,l),
(548,301,l),
(548,399,l),
(195,399,l),
(195,597,l),
(566,597,l),
(566,700,l),
(88,700,l),
(88,0,l)
);
},
{
closed = 1;
nodes = (
(383,-214,l),
(383,-96,l),
(275,-96,l),
(275,-214,l)
);
}
);
width = 645;
}
);
unicode = 7864;
},
{
glyphname = Schwa;
kernRight = KO_O;
lastChange = "2026-03-13 10:15:51 +0000";
layers = (
{
anchors = (
{
name = "abkhasian-hook.case";
pos = (690,325);
},
{
name = bottom;
pos = (384,0);
},
{
name = top;
pos = (384,700);
}
);
layerId = "A5EF4BC6-6509-4D3B-8B47-D449F40BB885";
shapes = (
{
closed = 1;
nodes = (
(558,-12,o),
(703,123,o),
(703,357,cs),
(703,576,o),
(560,712,o),
(376,712,cs),
(286,712,o),
(196,693,o),
(120,641,c),
(129,621,l),
(209,675,o),
(278,690,o),
(376,690,cs),
(550,690,o),
(679,559,o),
(679,357,cs),
(679,140,o),
(547,10,o),
(373,10,cs),
(137,10,o),
(86,184,o),
(86,303,c),
(690,303,l),
(690,325,l),
(68,325,l),
(65,303,l),
(71,156,o),
(130,-12,o),
(373,-12,cs)
);
}
);
width = 768;
},
{
anchors = (
{
name = "abkhasian-hook.case";
pos = (636,412);
},
{
name = bottom;
pos = (388,0);
},
{
name = top;
pos = (387,700);
}
);
layerId = "0EDB233F-674C-46BF-8D38-84A6CD2C2EDF";
shapes = (
{
closed = 1;
nodes = (
(580,-12,o),
(735,121,o),
(735,341,cs),
(735,544,o),
(623,711,o),
(357,711,cs),
(273,711,o),
(168,689,o),
(87,647,c),
(106,503,l),
(186,538,o),
(263,554,o),
(336,554,cs),
(483,554,o),
(547,479,o),
(547,341,cs),
(547,238,o),
(507,148,o),
(369,148,cs),
(271,148,o),
(223,195,o),
(215,258,c),
(636,258,l),
(636,412,l),
(57,412,l),
(40,304,l),
(41,115,o),
(154,-12,o),
(369,-12,cs)
);
}
);
width = 775;
},
{
anchors = (
{
name = "abkhasian-hook.case";
pos = (632,370);
},
{
name = bottom;
pos = (374,0);
},
{
name = top;
pos = (374,700);
}
);
layerId = "A22F00EF-5553-43E5-A27F-95FD0E0BDB40";
shapes = (
{
closed = 1;
nodes = (
(626,-8,o),
(703,207,o),
(703,340,cs),
(703,533,o),
(598,712,o),
(346,712,cs),
(258,712,o),
(169,691,o),
(100,645,c),
(119,554,l),
(187,594,o),
(275,612,o),
(342,612,cs),
(489,612,o),
(583,521,o),
(583,340,cs),
(583,193,o),
(492,91,o),
(363,91,cs),
(197,91,o),
(151,200,o),
(147,285,c),
(633,285,l),
(632,370,l),
(55,370,l),
(51,318,l),
(51,166,o),
(124,-8,o),
(363,-8,cs)
);
}
);
width = 754;
}
);
metricLeft = O;
metricRight = O;
unicode = 399;
},
{
glyphname = Ezh;
lastChange = "2026-03-13 10:15:51 +0000";
layers = (
{
anchors = (
{
name = bottom;
pos = (307,0);
},
{
name = top;
pos = (307,700);
}
);
background = {
shapes = (
{
ref = three;
}
);
};
layerId = "A5EF4BC6-6509-4D3B-8B47-D449F40BB885";
shapes = (
{
closed = 1;
nodes = (
(443,-8,o),
(550,71,o),
(550,192,cs),
(550,309,o),
(448,396,o),
(211,390,c),
(219,380,l),
(545,692,l),
(545,700,l),
(100,700,l),
(100,678,l),
(492,678,ls),
(499,678,o),
(502,673,o),
(494,667,cs),
(451,633,l),
(190,380,l),
(190,369,l),
(228,369,ls),
(428,369,o),
(526,299,o),
(526,192,cs),
(526,85,o),
(427,14,o),
(291,14,cs),
(208,14,o),
(114,43,o),
(56,86,c),
(44,67,l),
(110,21,o),
(209,-8,o),
(291,-8,cs)
);
}
);
width = 630;
},
{
anchors = (
{
name = bottom;
pos = (306,0);
},
{
name = top;
pos = (306,700);
}
);
background = {
shapes = (
{
ref = three;
}
);
};
layerId = "0EDB233F-674C-46BF-8D38-84A6CD2C2EDF";
shapes = (
{
closed = 1;
nodes = (
(454,-11,o),
(623,63,o),
(623,218,cs),
(623,335,o),
(512,428,o),
(340,434,c),
(353,377,l),
(577,559,l),
(577,700,l),
(49,700,l),
(49,530,l),
(287,530,ls),
(302,530,o),
(308,517,o),
(295,507,cs),
(259,485,l),
(169,410,l),
(169,292,l),
(276,292,ls),
(375,292,o),
(426,275,o),
(426,230,cs),
(426,186,o),
(377,166,o),
(292,166,cs),
(217,166,o),
(154,175,o),
(80,228,c),
(19,62,l),
(108,3,o),
(199,-11,o),
(309,-11,cs)
);
}
);
width = 671;
},
{
anchors = (
{
name = bottom;
pos = (304,0);
},
{
name = top;
pos = (304,700);
}
);
background = {
shapes = (
{
ref = three;
}
);
};
layerId = "A22F00EF-5553-43E5-A27F-95FD0E0BDB40";
shapes = (
{
closed = 1;
nodes = (
(433,-8,o),
(574,52,o),
(574,209,cs),
(574,350,o),
(461,415,o),
(248,418,c),
(278,381,l),
(544,632,l),
(544,700,l),
(70,700,l),
(70,606,l),
(377,606,ls),
(387,606,o),
(391,600,o),
(382,593,cs),
(341,561,l),
(169,385,l),
(169,321,l),
(257,321,ls),
(400,321,o),
(466,277,o),
(466,207,cs),
(466,139,o),
(400,93,o),
(289,93,cs),
(206,93,o),
(132,116,o),
(74,158,c),
(35,66,l),
(110,14,o),
(196,-8,o),
(294,-8,cs)
);
}
);
width = 644;
}
);
metricRight = B;
unicode = 439;
},
{
glyphname = F;
kernLeft = KO_H;
kernRight = KO_F;
lastChange = "2026-03-13 10:15:51 +0000";
layers = (
{
anchors = (
{
name = bottom;
pos = (258,0);
},
{
name = center;
pos = (145,179);
},
{
name = ogonek;
pos = (503,0);
},
{
name = top;
pos = (258,700);
},
{
name = topleft;
pos = (13,700);
}
);
layerId = "A5EF4BC6-6509-4D3B-8B47-D449F40BB885";
shapes = (
{
closed = 1;
nodes = (
(128,0,l),
(128,339,l),
(506,339,l),
(506,361,l),
(128,361,l),
(128,678,l),
(524,678,l),
(524,700,l),
(103,700,l),
(103,0,l)
);
}
);
width = 576;
},
{
anchors = (
{
name = bottom;
pos = (287,0);
},
{
name = center;
pos = (204,124);
},
{
name = ogonek;
pos = (580,0);
},
{
name = top;
pos = (287,700);
},
{
name = topleft;
pos = (49,700);
}
);
layerId = "0EDB233F-674C-46BF-8D38-84A6CD2C2EDF";
shapes = (
{
closed = 1;
nodes = (
(286,0,l),
(286,255,l),
(567,255,l),
(567,415,l),
(286,415,l),
(286,520,l),
(605,520,l),
(605,700,l),
(76,700,l),
(76,0,l)
);
}
);
width = 643;
},
{
anchors = (
{
name = bottom;
pos = (269,0);
},
{
name = center;
pos = (153,158);
},
{
name = ogonek;
pos = (531,0);
},
{
name = top;
pos = (269,700);
},
{
name = topleft;
pos = (20,700);
}
);
background = {
anchors = (
{
name = bottom;
pos = (276,0);
},
{
name = center;
pos = (163,179);
},
{
name = top;
pos = (276,675);
}
);
shapes = (
{
closed = 1;
nodes = (
(272,0,l),
(272,239,l),
(524,239,l),
(524,403,l),
(272,403,l),
(272,520,l),
(541,520,l),
(541,700,l),
(62,700,l),
(62,0,l)
);
},
{
closed = 1;
nodes = (
(146,0,l),
(146,339,l),
(493,339,l),
(493,361,l),
(146,361,l),
(146,678,l),
(526,678,l),
(526,700,l),
(121,700,l),
(121,0,l)
);
}
);
};
layerId = "A22F00EF-5553-43E5-A27F-95FD0E0BDB40";
shapes = (
{
closed = 1;
nodes = (
(195,0,l),
(195,301,l),
(548,301,l),
(548,399,l),
(195,399,l),
(195,597,l),
(566,597,l),
(566,700,l),
(88,700,l),
(88,0,l)
);
}
);
width = 610;
}
);
metricLeft = H;
unicode = 70;
userData = {
KernOnName = F;
com.schriftgestaltung.Glyphs.ColorIndex = 3;
com.schriftgestaltung.Glyphs.layer.leftMetricsKey = "==H";
com.schriftgestaltung.Glyphs.leftMetricsKey = H;
};
},
{
glyphname = G;
kernLeft = KO_O;
kernRight = KO_G;
lastChange = "2026-03-13 10:15:51 +0000";
layers = (
{
anchors = (
{
name = bottom;
pos = (432,0);
},
{
name = top;
pos = (404,700);
}
);
background = {
shapes = (
{
pos = (-5,0);
ref = C;
},
{
pos = (-5,0);
ref = O;
}
);
};
layerId = "A5EF4BC6-6509-4D3B-8B47-D449F40BB885";
shapes = (
{
closed = 1;
nodes = (
(524,-12,o),
(610,14,o),
(676,61,c),
(676,361,l),
(374,361,l),
(374,339,l),
(652,339,l),
(651,70,l),
(592,31,o),
(514,10,o),
(424,10,cs),
(223,10,o),
(91,143,o),
(91,351,cs),
(91,557,o),
(223,690,o),
(424,690,cs),
(513,690,o),
(590,669,o),
(650,630,c),
(657,654,l),
(595,691,o),
(515,712,o),
(424,712,cs),
(210,712,o),
(65,569,o),
(65,351,cs),
(65,131,o),
(210,-12,o),
(424,-12,cs)
);
}
);
width = 769;
},
{
anchors = (
{
name = bottom;
pos = (444,0);
},
{
name = top;
pos = (434,700);
}
);
background = {
shapes = (
{
pos = (-10,0);
ref = O;
},
{
pos = (-10,0);
ref = C;
}
);
};
layerId = "0EDB233F-674C-46BF-8D38-84A6CD2C2EDF";
shapes = (
{
closed = 1;
nodes = (
(539,-12,o),
(633,11,o),
(712,54,c),
(712,426,l),
(425,426,l),
(425,266,l),
(531,266,l),
(531,160,l),
(505,153,o),
(476,150,o),
(449,150,cs),
(326,150,o),
(255,224,o),
(255,350,cs),
(255,470,o),
(339,540,o),
(486,540,cs),
(537,540,o),
(593,531,o),
(635,515,c),
(689,663,l),
(623,695,o),
(544,712,o),
(454,712,cs),
(201,712,o),
(40,572,o),
(40,350,cs),
(40,128,o),
(192,-12,o),
(432,-12,cs)
);
}
);
width = 778;
},
{
anchors = (
{
name = bottom;
pos = (439,0);
},
{
name = top;
pos = (420,700);
}
);
background = {
shapes = (
{
pos = (-14,0);
ref = O;
},
{
pos = (-14,0);
ref = C;
}
);
};
layerId = "A22F00EF-5553-43E5-A27F-95FD0E0BDB40";
shapes = (
{
closed = 1;
nodes = (
(519,-12,o),
(614,23,o),
(686,86,c),
(686,401,l),
(392,401,l),
(392,299,l),
(584,299,l),
(584,136,l),
(540,109,o),
(487,91,o),
(420,91,cs),
(261,91,o),
(169,193,o),
(169,350,cs),
(169,507,o),
(268,609,o),
(440,609,cs),
(513,609,o),
(570,593,o),
(615,569,c),
(648,660,l),
(591,693,o),
(522,712,o),
(440,712,cs),
(201,712,o),
(51,557,o),
(51,350,cs),
(51,143,o),
(193,-12,o),
(420,-12,cs)
);
}
);
width = 764;
}
);
metricLeft = O;
unicode = 71;
userData = {
KernOnName = G;
com.schriftgestaltung.Glyphs.ColorIndex = 3;
com.schriftgestaltung.Glyphs.layer.leftMetricsKey = "==O";
com.schriftgestaltung.Glyphs.leftMetricsKey = O;
};
},
{
glyphname = Gstroke;
lastChange = "2026-03-13 10:15:51 +0000";
layers = (
{
anchors = (
{
name = bottom;
pos = (366,0);
},
{
name = top;
pos = (366,700);
}
);
background = {
shapes = (
{
ref = G;
}
);
};
layerId = "A5EF4BC6-6509-4D3B-8B47-D449F40BB885";
shapes = (
{
closed = 1;
nodes = (
(493,-12,o),
(569,14,o),
(626,61,c),
(626,361,l),
(602,361,l),
(601,70,l),
(551,31,o),
(483,10,o),
(404,10,cs),
(223,10,o),
(91,143,o),
(91,351,cs),
(91,557,o),
(223,690,o),
(424,690,cs),
(513,690,o),
(590,669,o),
(650,630,c),
(657,654,l),
(595,691,o),
(515,712,o),
(424,712,cs),
(210,712,o),
(65,569,o),
(65,351,cs),
(65,131,o),
(210,-12,o),
(404,-12,cs)
);
},
{
closed = 1;
nodes = (
(742,194,l),
(742,216,l),
(496,216,l),
(496,194,l)
);
}
);
width = 792;
},
{
anchors = (
{
name = bottom;
pos = (352,0);
},
{
name = top;
pos = (352,700);
}
);
background = {
anchors = (
{
name = bottom;
pos = (344,0);
},
{
name = top;
pos = (344,700);
}
);
shapes = (
{
ref = G;
}
);
};
layerId = "0EDB233F-674C-46BF-8D38-84A6CD2C2EDF";
shapes = (
{
closed = 1;
nodes = (
(529,-12,o),
(613,11,o),
(692,54,c),
(692,440,l),
(511,440,l),
(511,160,l),
(485,153,o),
(466,150,o),
(439,150,cs),
(326,150,o),
(255,224,o),
(255,350,cs),
(255,476,o),
(339,550,o),
(486,550,cs),
(537,550,o),
(593,538,o),
(635,515,c),
(689,663,l),
(623,695,o),
(544,712,o),
(454,712,cs),
(201,712,o),
(40,572,o),
(40,350,cs),
(40,128,o),
(192,-12,o),
(422,-12,cs)
);
},
{
closed = 1;
nodes = (
(765,223,l),
(765,383,l),
(438,383,l),
(438,223,l)
);
}
);
width = 795;
},
{
anchors = (
{
name = bottom;
pos = (359,0);
},
{
name = top;
pos = (359,700);
}
);
background = {
shapes = (
{
ref = G;
}
);
};
layerId = "A22F00EF-5553-43E5-A27F-95FD0E0BDB40";
shapes = (
{
closed = 1;
nodes = (
(499,-12,o),
(594,23,o),
(666,86,c),
(666,401,l),
(564,401,l),
(564,136,l),
(520,109,o),
(467,91,o),
(410,91,cs),
(261,91,o),
(169,193,o),
(169,350,cs),
(169,507,o),
(268,609,o),
(440,609,cs),
(513,609,o),
(570,593,o),
(615,569,c),
(648,660,l),
(591,693,o),
(522,712,o),
(440,712,cs),
(201,712,o),
(51,557,o),
(51,350,cs),
(51,143,o),
(193,-12,o),
(410,-12,cs)
);
},
{
closed = 1;
nodes = (
(754,209,l),
(754,312,l),
(469,312,l),
(469,209,l)
);
}
);
width = 794;
}
);
unicode = 484;
},
{
glyphname = H;
kernLeft = KO_H;
kernRight = KO_H;
lastChange = "2026-03-13 10:15:51 +0000";
layers = (
{
anchors = (
{
name = bottom;
pos = (350,0);
},
{
name = bottomright;
pos = (597,0);
},
{
name = center;
pos = (350,514);
},
{
name = top;
pos = (350,700);
},
{
name = topleft;
pos = (8,700);
}
);
layerId = "A5EF4BC6-6509-4D3B-8B47-D449F40BB885";
shapes = (
{
closed = 1;
nodes = (
(127,0,l),
(127,339,l),
(573,339,l),
(573,0,l),
(597,0,l),
(597,700,l),
(573,700,l),
(573,361,l),
(127,361,l),
(127,700,l),
(103,700,l),
(103,0,l)
);
}
);
width = 700;
},
{
anchors = (
{
name = bottom;
pos = (398,0);
},
{
name = bottomright;
pos = (720,0);
},
{
name = center;
pos = (398,563);
},
{
name = top;
pos = (398,700);
},
{
name = topleft;
pos = (41,700);
}
);
layerId = "0EDB233F-674C-46BF-8D38-84A6CD2C2EDF";
shapes = (
{
closed = 1;
nodes = (
(286,0,l),
(286,264,l),
(510,264,l),
(510,0,l),
(720,0,l),
(720,700,l),
(510,700,l),
(510,434,l),
(286,434,l),
(286,700,l),
(76,700,l),
(76,0,l)
);
}
);
width = 796;
},
{
anchors = (
{
name = bottom;
pos = (372,0);
},
{
name = bottomright;
pos = (656,0);
},
{
name = center;
pos = (372,538);
},
{
name = top;
pos = (372,700);
},
{
name = topleft;
pos = (26,700);
}
);
background = {
shapes = (
{
closed = 1;
nodes = (
(272,0,l),
(272,269,l),
(472,269,l),
(472,0,l),
(682,0,l),
(682,700,l),
(472,700,l),
(472,429,l),
(272,429,l),
(272,700,l),
(62,700,l),
(62,0,l)
);
},
{
closed = 1;
nodes = (
(145,0,l),
(145,339,l),
(591,339,l),
(591,0,l),
(615,0,l),
(615,700,l),
(591,700,l),
(591,361,l),
(145,361,l),
(145,700,l),
(121,700,l),
(121,0,l)
);
}
);
};
layerId = "A22F00EF-5553-43E5-A27F-95FD0E0BDB40";
shapes = (
{
closed = 1;
nodes = (
(202,0,l),
(202,299,l),
(542,299,l),
(542,0,l),
(656,0,l),
(656,700,l),
(542,700,l),
(542,401,l),
(202,401,l),
(202,700,l),
(88,700,l),
(88,0,l)
);
}
);
width = 744;
}
);
unicode = 72;
userData = {
KernOnName = H;
com.schriftgestaltung.Glyphs.ColorIndex = 3;
};
},
{
glyphname = Hbar;
lastChange = "2026-03-13 10:15:51 +0000";
layers = (
{
layerId = "A5EF4BC6-6509-4D3B-8B47-D449F40BB885";
shapes = (
{
closed = 1;
nodes = (
(760,503,l),
(760,525,l),
(20,525,l),
(20,503,l)
);
},
{
pos = (29,0);
ref = H;
}
);
width = 780;
},
{
layerId = "0EDB233F-674C-46BF-8D38-84A6CD2C2EDF";
shapes = (
{
closed = 1;
nodes = (
(869,492,l),
(869,636,l),
(30,636,l),
(30,492,l)
);
},
{
pos = (64,0);
ref = H;
}
);
width = 899;
},
{
layerId = "A22F00EF-5553-43E5-A27F-95FD0E0BDB40";
shapes = (
{
closed = 1;
nodes = (
(813,494,l),
(813,581,l),
(25,581,l),
(25,494,l)
);
},
{
pos = (46,0);
ref = H;
}
);
width = 838;
}
);
metricLeft = t;
metricRight = "=|t";
unicode = 294;
},
{
color = 4;
glyphname = I;
kernLeft = KO_I;
kernRight = KO_I;
lastChange = "2026-03-13 10:15:51 +0000";
layers = (
{
anchors = (
{
name = bottom;
pos = (115,0);
},
{
name = center;
pos = (116,350);
},
{
name = ogonek;
pos = (127,0);
},
{
name = top;
pos = (115,700);
},
{
name = topleft;
pos = (20,700);
}
);
layerId = "A5EF4BC6-6509-4D3B-8B47-D449F40BB885";
shapes = (
{
closed = 1;
nodes = (
(127,0,l),
(127,700,l),
(103,700,l),
(103,0,l)
);
}
);
width = 230;
},
{
anchors = (
{
name = bottom;
pos = (181,0);
},
{
name = center;
pos = (181,350);
},
{
name = ogonek;
pos = (286,0);
},
{
name = top;
pos = (181,700);
},
{
name = topleft;
pos = (20,700);
}
);
layerId = "0EDB233F-674C-46BF-8D38-84A6CD2C2EDF";
shapes = (
{
closed = 1;
nodes = (
(286,0,l),
(286,700,l),
(76,700,l),
(76,0,l)
);
}
);
width = 362;
},
{
anchors = (
{
name = bottom;
pos = (145,0);
},
{
name = center;
pos = (145,350);
},
{
name = ogonek;
pos = (201,0);
},
{
name = top;
pos = (144,700);
},
{
name = topleft;
pos = (20,700);
}
);
layerId = "A22F00EF-5553-43E5-A27F-95FD0E0BDB40";
shapes = (
{
closed = 1;
nodes = (
(201,0,l),
(201,700,l),
(88,700,l),
(88,0,l)
);
}
);
width = 289;
}
);
unicode = 73;
userData = {
KernOnName = I;
com.schriftgestaltung.Glyphs.ColorIndex = 3;
};
},
{
glyphname = IJ;
kernLeft = KO_I;
kernRight = KO_J;
lastChange = "2026-03-13 10:15:51 +0000";
layers = (
{
background = {
shapes = (
{
ref = I;
},
{
pos = (230,0);
ref = _part.Jcomb;
}
);
};
layerId = "A5EF4BC6-6509-4D3B-8B47-D449F40BB885";
shapes = (
{
closed = 1;
nodes = (
(127,0,l),
(127,700,l),
(103,700,l),
(103,0,l)
);
},
{
closed = 1;
nodes = (
(461,-12,o),
(531,39,o),
(531,141,cs),
(531,700,l),
(507,700,l),
(507,141,ls),
(507,52,o),
(447,10,o),
(371,10,cs),
(312,10,o),
(259,36,o),
(238,71,c),
(238,43,l),
(265,10,o),
(317,-12,o),
(371,-12,cs)
);
}
);
width = 634;
},
{
background = {
shapes = (
{
ref = I;
},
{
pos = (362,0);
ref = _part.Jcomb;
}
);
};
layerId = "0EDB233F-674C-46BF-8D38-84A6CD2C2EDF";
shapes = (
{
closed = 1;
nodes = (
(286,0,l),
(286,700,l),
(76,700,l),
(76,0,l)
);
},
{
closed = 1;
nodes = (
(677,-12,o),
(783,85,o),
(783,264,cs),
(783,700,l),
(573,700,l),
(573,264,ls),
(573,202,o),
(543,171,o),
(485,171,cs),
(448,171,o),
(424,175,o),
(397,181,c),
(397,3,l),
(425,-7,o),
(457,-12,o),
(502,-12,cs)
);
}
);
width = 859;
},
{
background = {
shapes = (
{
ref = I;
},
{
pos = (289,0);
ref = _part.Jcomb;
}
);
};
layerId = "A22F00EF-5553-43E5-A27F-95FD0E0BDB40";
shapes = (
{
closed = 1;
nodes = (
(201,0,l),
(201,700,l),
(88,700,l),
(88,0,l)
);
},
{
closed = 1;
nodes = (
(564,-12,o),
(646,58,o),
(646,180,cs),
(646,700,l),
(533,700,l),
(533,180,ls),
(533,122,o),
(489,93,o),
(417,93,cs),
(379,93,o),
(336,98,o),
(310,115,c),
(310,11,l),
(349,-4,o),
(393,-12,o),
(436,-12,cs)
);
}
);
width = 734;
}
);
unicode = 306;
},
{
color = 4;
glyphname = Idieresis;
kernLeft = KO_I;
kernRight = KO_I;
lastChange = "2026-03-13 10:15:51 +0000";
layers = (
{
anchors = (
{
name = bottom;
pos = (115,0);
},
{
name = center;
pos = (116,350);
},
{
name = ogonek;
pos = (127,0);
},
{
name = top;
pos = (115,881);
},
{
name = topleft;
pos = (20,700);
}
);
layerId = "A5EF4BC6-6509-4D3B-8B47-D449F40BB885";
shapes = (
{
closed = 1;
nodes = (
(127,0,l),
(127,700,l),
(103,700,l),
(103,0,l)
);
},
{
closed = 1;
nodes = (
(186,810,l),
(186,928,l),
(162,928,l),
(162,810,l)
);
},
{
closed = 1;
nodes = (
(67,810,l),
(67,928,l),
(43,928,l),
(43,810,l)
);
}
);
width = 230;
},
{
anchors = (
{
name = bottom;
pos = (181,0);
},
{
name = center;
pos = (181,350);
},
{
name = ogonek;
pos = (286,0);
},
{
name = top;
pos = (181,893);
},
{
name = topleft;
pos = (20,700);
}
);
layerId = "0EDB233F-674C-46BF-8D38-84A6CD2C2EDF";
shapes = (
{
closed = 1;
nodes = (
(286,0,l),
(286,700,l),
(76,700,l),
(76,0,l)
);
},
{
closed = 1;
nodes = (
(360,772,l),
(360,904,l),
(211,904,l),
(211,772,l)
);
},
{
closed = 1;
nodes = (
(151,772,l),
(151,904,l),
(2,904,l),
(2,772,l)
);
}
);
width = 362;
},
{
anchors = (
{
name = bottom;
pos = (145,0);
},
{
name = center;
pos = (145,350);
},
{
name = ogonek;
pos = (201,0);
},
{
name = top;
pos = (144,914);
},
{
name = topleft;
pos = (20,700);
}
);
layerId = "A22F00EF-5553-43E5-A27F-95FD0E0BDB40";
shapes = (
{
closed = 1;
nodes = (
(201,0,l),
(201,700,l),
(88,700,l),
(88,0,l)
);
},
{
closed = 1;
nodes = (
(278,796,l),
(278,914,l),
(180,914,l),
(180,796,l)
);
},
{
closed = 1;
nodes = (
(108,796,l),
(108,914,l),
(10,914,l),
(10,796,l)
);
}
);
width = 289;
}
);
unicode = 207;
},
{
glyphname = Istroke;
lastChange = "2026-03-13 10:15:51 +0000";
layers = (
{
background = {
anchors = (
{
name = bottom;
pos = (115,0);
},
{
name = center;
pos = (116,350);
},
{
name = ogonek;
pos = (127,0);
},
{
name = top;
pos = (115,700);
},
{
name = topleft;
pos = (20,700);
}
);
shapes = (
{
closed = 1;
nodes = (
(127,0,l),
(127,700,l),
(103,700,l),
(103,0,l)
);
},
{
closed = 1;
nodes = (
(241,340,l),
(241,360,l),
(-11,360,l),
(-11,340,l)
);
}
);
};
layerId = "A5EF4BC6-6509-4D3B-8B47-D449F40BB885";
shapes = (
{
closed = 1;
nodes = (
(127,0,l),
(127,700,l),
(103,700,l),
(103,0,l)
);
},
{
closed = 1;
nodes = (
(241,340,l),
(241,360,l),
(-11,360,l),
(-11,340,l)
);
}
);
width = 230;
},
{
background = {
anchors = (
{
name = bottom;
pos = (145,0);
},
{
name = center;
pos = (145,350);
},
{
name = ogonek;
pos = (201,0);
},
{
name = top;
pos = (144,700);
},
{
name = topleft;
pos = (20,700);
}
);
shapes = (
{
closed = 1;
nodes = (
(201,0,l),
(201,700,l),
(88,700,l),
(88,0,l)
);
},
{
closed = 1;
nodes = (
(300,305,l),
(300,395,l),
(-11,395,l),
(-11,305,l)
);
}
);
};
layerId = "A22F00EF-5553-43E5-A27F-95FD0E0BDB40";
shapes = (
{
closed = 1;
nodes = (
(201,0,l),
(201,700,l),
(88,700,l),
(88,0,l)
);
},
{
closed = 1;
nodes = (
(300,305,l),
(300,395,l),
(-11,395,l),
(-11,305,l)
);
}
);
width = 289;
},
{
background = {
anchors = (
{
name = bottom;
pos = (181,0);
},
{
name = center;
pos = (181,350);
},
{
name = ogonek;
pos = (286,0);
},
{
name = top;
pos = (181,700);
},
{
name = topleft;
pos = (20,700);
}
);
shapes = (
{
closed = 1;
nodes = (
(286,0,l),
(286,700,l),
(76,700,l),
(76,0,l)
);
},
{
closed = 1;
nodes = (
(368,268,l),
(368,422,l),
(-5,422,l),
(-5,268,l)
);
}
);
};
layerId = "0EDB233F-674C-46BF-8D38-84A6CD2C2EDF";
shapes = (
{
closed = 1;
nodes = (
(286,0,l),
(286,700,l),
(76,700,l),
(76,0,l)
);
},
{
closed = 1;
nodes = (
(368,268,l),
(368,422,l),
(-5,422,l),
(-5,268,l)
);
}
);
width = 362;
},
{
associatedMasterId = "A5EF4BC6-6509-4D3B-8B47-D449F40BB885";
layerId = "239C2027-A3CA-42FF-A915-C9D7EFAEF442";
name = "12 Mar 26 at 16:02";
shapes = (
{
ref = I;
},
{
pos = (-61,99);
ref = _part.stroke;
}
);
width = 230;
},
{
associatedMasterId = "A22F00EF-5553-43E5-A27F-95FD0E0BDB40";
layerId = "812D5ECE-764D-47F9-A852-5EB9EF0AF621";
name = "12 Mar 26 at 16:02";
shapes = (
{
ref = I;
},
{
pos = (-61,85);
ref = _part.stroke;
}
);
width = 289;
},
{
associatedMasterId = "0EDB233F-674C-46BF-8D38-84A6CD2C2EDF";
layerId = "DE5996B7-96BC-4478-AE7A-78F9E42F88AA";
name = "12 Mar 26 at 16:02";
shapes = (
{
ref = I;
},
{
pos = (-55,70);
ref = _part.stroke;
}
);
width = 362;
}
);
unicode = 407;
},
{
glyphname = J;
kernLeft = KO_J;
kernRight = KO_J;
lastChange = "2026-03-13 10:15:51 +0000";
layers = (
{
anchors = (
{
name = bottom;
pos = (214,0);
},
{
name = top;
pos = (300,700);
}
);
layerId = "A5EF4BC6-6509-4D3B-8B47-D449F40BB885";
shapes = (
{
closed = 1;
nodes = (
(242,-12,o),
(312,39,o),
(312,141,cs),
(312,700,l),
(288,700,l),
(288,141,ls),
(288,52,o),
(228,10,o),
(152,10,cs),
(93,10,o),
(39,39,o),
(19,84,c),
(10,58,l),
(31,17,o),
(90,-12,o),
(152,-12,cs)
);
}
);
width = 415;
},
{
anchors = (
{
name = bottom;
pos = (214,0);
},
{
name = top;
pos = (355,700);
}
);
layerId = "0EDB233F-674C-46BF-8D38-84A6CD2C2EDF";
shapes = (
{
closed = 1;
nodes = (
(352,-12,o),
(458,85,o),
(458,264,cs),
(458,700,l),
(248,700,l),
(248,264,l),
(248,202,o),
(218,171,o),
(160,171,cs),
(123,171,o),
(99,178,o),
(72,194,c),
(10,33,l),
(60,4,o),
(98,-12,o),
(177,-12,cs)
);
}
);
width = 534;
},
{
anchors = (
{
name = bottom;
pos = (214,0);
},
{
name = top;
pos = (325,700);
}
);
layerId = "A22F00EF-5553-43E5-A27F-95FD0E0BDB40";
shapes = (
{
closed = 1;
nodes = (
(300,-12,o),
(382,58,o),
(382,180,cs),
(382,700,l),
(269,700,l),
(269,180,l),
(269,121,o),
(232,91,o),
(172,91,cs),
(126,91,o),
(75,105,o),
(44,139,c),
(10,46,l),
(56,7,o),
(115,-12,o),
(172,-12,cs)
);
}
);
width = 470;
}
);
metricRight = H;
unicode = 74;
userData = {
KernOnName = J;
com.schriftgestaltung.Glyphs.ColorIndex = 3;
com.schriftgestaltung.Glyphs.layer.rightMetricsKey = "==H";
com.schriftgestaltung.Glyphs.rightMetricsKey = H;
com.typemytype.robofont.layerData = {
background = {
anchors = (
);
components = (
);
contours = (
{
points = (
{
segmentType = line;
smooth = 0;
x = 455;
y = 700;
},
{
segmentType = line;
smooth = 0;
x = 313;
y = 700;
},
{
segmentType = line;
smooth = 0;
x = 313;
y = 190;
},
{
smooth = 0;
x = 313;
y = 157;
},
{
smooth = 0;
x = 305;
y = 116;
},
{
segmentType = curve;
smooth = 1;
x = 254;
y = 116;
},
{
smooth = 0;
x = 209;
y = 116;
},
{
smooth = 0;
x = 185;
y = 123;
},
{
segmentType = curve;
smooth = 0;
x = 153;
y = 139;
},
{
segmentType = line;
smooth = 0;
x = 127;
y = 19;
},
{
smooth = 0;
x = 162;
y = -1;
},
{
smooth = 0;
x = 210;
y = -12;
},
{
segmentType = curve;
smooth = 1;
x = 254;
y = -12;
},
{
smooth = 0;
x = 425;
y = -12;
},
{
smooth = 0;
x = 455;
y = 97;
},
{
segmentType = curve;
smooth = 0;
x = 455;
y = 190;
}
);
}
);
lib = {
};
name = J;
unicodes = (
);
width = 447;
};
};
};
},
{
glyphname = K;
kernLeft = KO_H;
kernRight = KO_K;
lastChange = "2026-03-13 10:15:51 +0000";
layers = (
{
anchors = (
{
name = bottom;
pos = (300,0);
},
{
name = bottomright;
pos = (547,0);
},
{
name = center;
pos = (116,543);
},
{
name = top;
pos = (300,700);
}
);
background = {
shapes = (
{
ref = K.cv01;
},
{
ref = H;
}
);
};
layerId = "A5EF4BC6-6509-4D3B-8B47-D449F40BB885";
shapes = (
{
closed = 1;
nodes = (
(127,0,l),
(127,339,l),
(257,339,l),
(542,700,l),
(513,700,l),
(247,361,l),
(127,361,l),
(127,700,l),
(103,700,l),
(103,0,l)
);
},
{
closed = 1;
nodes = (
(567,0,l),
(261,361,l),
(246,344,l),
(537,0,l)
);
}
);
width = 600;
},
{
anchors = (
{
name = bottom;
pos = (385,0);
},
{
name = bottomright;
pos = (665,0);
},
{
name = center;
pos = (170,586);
},
{
name = top;
pos = (385,700);
}
);
background = {
shapes = (
{
ref = K.cv01;
},
{
ref = H;
}
);
};
layerId = "0EDB233F-674C-46BF-8D38-84A6CD2C2EDF";
shapes = (
{
closed = 1;
nodes = (
(286,0,l),
(286,270,l),
(453,270,l),
(719,700,l),
(499,700,l),
(335,430,l),
(286,430,l),
(286,700,l),
(76,700,l),
(76,0,l)
);
},
{
closed = 1;
nodes = (
(725,0,l),
(517,412,l),
(352,284,l),
(491,0,l)
);
}
);
width = 746;
},
{
anchors = (
{
name = bottom;
pos = (332,0);
},
{
name = bottomright;
pos = (576,0);
},
{
name = center;
pos = (143,574);
},
{
name = top;
pos = (332,700);
}
);
background = {
shapes = (
{
ref = K.cv01;
},
{
ref = H;
}
);
};
layerId = "A22F00EF-5553-43E5-A27F-95FD0E0BDB40";
shapes = (
{
closed = 1;
nodes = (
(202,0,l),
(202,302,l),
(314,302,l),
(618,700,l),
(497,700,l),
(269,399,l),
(202,399,l),
(202,700,l),
(88,700,l),
(88,0,l)
);
},
{
closed = 1;
nodes = (
(646,0,l),
(358,386,l),
(277,314,l),
(509,0,l)
);
}
);
width = 674;
}
);
metricLeft = H;
unicode = 75;
userData = {
com.schriftgestaltung.Glyphs.ColorIndex = 3;
com.schriftgestaltung.Glyphs.layer.leftMetricsKey = "==H";
com.schriftgestaltung.Glyphs.leftMetricsKey = H;
};
},
{
glyphname = L;
kernLeft = KO_H;
kernRight = KO_L;
lastChange = "2026-03-13 10:15:51 +0000";
layers = (
{
anchors = (
{
name = bottom;
pos = (317,0);
},
{
name = center;
pos = (115,416);
},
{
name = top;
pos = (115,700);
},
{
name = topright;
pos = (394,700);
}
);
layerId = "A5EF4BC6-6509-4D3B-8B47-D449F40BB885";
shapes = (
{
closed = 1;
nodes = (
(530,0,l),
(530,22,l),
(128,22,l),
(128,700,l),
(103,700,l),
(103,0,l)
);
}
);
width = 535;
},
{
anchors = (
{
name = bottom;
pos = (333,0);
},
{
name = center;
pos = (182,416);
},
{
name = top;
pos = (182,700);
},
{
name = topright;
pos = (421,700);
}
);
layerId = "0EDB233F-674C-46BF-8D38-84A6CD2C2EDF";
shapes = (
{
closed = 1;
nodes = (
(594,0,l),
(594,180,l),
(288,180,l),
(288,700,l),
(76,700,l),
(76,0,l)
);
}
);
width = 604;
},
{
anchors = (
{
name = bottom;
pos = (334,0);
},
{
name = center;
pos = (146,350);
},
{
name = top;
pos = (146,700);
},
{
name = topright;
pos = (397,700);
}
);
background = {
shapes = (
{
closed = 1;
nodes = (
(540,0,l),
(540,170,l),
(273,170,l),
(273,700,l),
(62,700,l),
(62,0,l)
);
},
{
closed = 1;
nodes = (
(528,0,l),
(528,22,l),
(145,22,l),
(145,700,l),
(121,700,l),
(121,0,l)
);
}
);
};
layerId = "A22F00EF-5553-43E5-A27F-95FD0E0BDB40";
shapes = (
{
closed = 1;
nodes = (
(564,0,l),
(564,103,l),
(204,103,l),
(204,700,l),
(88,700,l),
(88,0,l)
);
}
);
width = 571;
}
);
metricLeft = H;
metricRight = T;
unicode = 76;
userData = {
KernOnName = L;
com.schriftgestaltung.Glyphs.ColorIndex = 3;
com.schriftgestaltung.Glyphs.layer.leftMetricsKey = "==H";
com.schriftgestaltung.Glyphs.leftMetricsKey = H;
};
},
{
glyphname = Lj;
lastChange = "2026-03-13 10:15:51 +0000";
layers = (
{
layerId = "A5EF4BC6-6509-4D3B-8B47-D449F40BB885";
shapes = (
{
closed = 1;
nodes = (
(530,0,l),
(530,22,l),
(128,22,l),
(128,700,l),
(103,700,l),
(103,0,l)
);
},
{
closed = 1;
nodes = (
(603,-176,o),
(629,-115,o),
(629,1,cs),
(629,522,l),
(605,522,l),
(605,1,l),
(605,-105,o),
(583,-161,o),
(514,-197,c),
(526,-215,l)
);
},
{
closed = 1;
nodes = (
(629,632,l),
(629,750,l),
(605,750,l),
(605,632,l)
);
}
);
width = 722;
},
{
layerId = "0EDB233F-674C-46BF-8D38-84A6CD2C2EDF";
shapes = (
{
closed = 1;
nodes = (
(594,0,l),
(594,180,l),
(288,180,l),
(288,700,l),
(76,700,l),
(76,0,l)
);
},
{
closed = 1;
nodes = (
(744,-222,o),
(870,-164,o),
(870,28,cs),
(870,546,l),
(674,546,l),
(674,28,ls),
(674,-16,o),
(649,-43,o),
(612,-49,c),
(655,-222,l)
);
},
{
closed = 1;
nodes = (
(881,618,l),
(881,750,l),
(664,750,l),
(664,618,l)
);
}
);
width = 936;
},
{
layerId = "A22F00EF-5553-43E5-A27F-95FD0E0BDB40";
shapes = (
{
closed = 1;
nodes = (
(564,0,l),
(564,103,l),
(204,103,l),
(204,700,l),
(88,700,l),
(88,0,l)
);
},
{
closed = 1;
nodes = (
(683,-199,o),
(761,-132,o),
(761,9,cs),
(761,536,l),
(653,536,l),
(653,6,ls),
(653,-70,o),
(616,-113,o),
(559,-129,c),
(589,-222,l)
);
},
{
closed = 1;
nodes = (
(761,632,l),
(761,750,l),
(653,750,l),
(653,632,l)
);
}
);
width = 839;
}
);
unicode = 456;
},
{
color = 9;
glyphname = Lj.ss01;
lastChange = "2026-03-13 10:15:51 +0000";
layers = (
{
anchors = (
{
name = bottom;
pos = (616,-250);
},
{
name = center;
pos = (115,416);
},
{
name = top;
pos = (624,703);
},
{
name = topright;
pos = (394,700);
}
);
layerId = "A5EF4BC6-6509-4D3B-8B47-D449F40BB885";
shapes = (
{
closed = 1;
nodes = (
(530,0,l),
(530,22,l),
(128,22,l),
(128,700,l),
(103,700,l),
(103,0,l)
);
},
{
closed = 1;
nodes = (
(610,-176,o),
(636,-115,o),
(636,1,cs),
(636,522,l),
(612,522,l),
(612,1,l),
(612,-105,o),
(590,-161,o),
(521,-197,c),
(533,-215,l)
);
},
{
closed = 1;
nodes = (
(636,632,l),
(636,750,l),
(612,750,l),
(612,632,l)
);
}
);
width = 729;
},
{
anchors = (
{
name = bottom;
pos = (708,-250);
},
{
name = center;
pos = (146,350);
},
{
name = top;
pos = (709,750);
},
{
name = topright;
pos = (397,700);
}
);
layerId = "A22F00EF-5553-43E5-A27F-95FD0E0BDB40";
shapes = (
{
closed = 1;
nodes = (
(564,0,l),
(564,103,l),
(204,103,l),
(204,700,l),
(88,700,l),
(88,0,l)
);
},
{
closed = 1;
nodes = (
(685,-199,o),
(763,-132,o),
(763,9,cs),
(763,536,l),
(655,536,l),
(655,6,ls),
(655,-70,o),
(618,-113,o),
(561,-129,c),
(591,-222,l)
);
},
{
closed = 1;
nodes = (
(763,632,l),
(763,750,l),
(655,750,l),
(655,632,l)
);
}
);
width = 841;
},
{
anchors = (
{
name = bottom;
pos = (779,-250);
},
{
name = center;
pos = (182,416);
},
{
name = top;
pos = (768,753);
},
{
name = topright;
pos = (421,700);
}
);
layerId = "0EDB233F-674C-46BF-8D38-84A6CD2C2EDF";
shapes = (
{
closed = 1;
nodes = (
(594,0,l),
(594,180,l),
(288,180,l),
(288,700,l),
(76,700,l),
(76,0,l)
);
},
{
closed = 1;
nodes = (
(740,-222,o),
(866,-164,o),
(866,28,cs),
(866,546,l),
(670,546,l),
(670,28,ls),
(670,-16,o),
(645,-43,o),
(608,-49,c),
(651,-222,l)
);
},
{
closed = 1;
nodes = (
(877,618,l),
(877,750,l),
(660,750,l),
(660,618,l)
);
}
);
width = 932;
}
);
},
{
color = 4;
glyphname = Lslash;
lastChange = "2026-03-13 10:15:51 +0000";
layers = (
{
background = {
shapes = (
{
pos = (-17,0);
ref = L;
}
);
};
layerId = "A5EF4BC6-6509-4D3B-8B47-D449F40BB885";
shapes = (
{
closed = 1;
nodes = (
(535,0,l),
(535,22,l),
(132,22,l),
(132,355,l),
(357,510,l),
(357,534,l),
(132,379,l),
(132,700,l),
(108,700,l),
(108,363,l),
(20,303,l),
(20,279,l),
(108,339,l),
(108,0,l)
);
}
);
width = 540;
},
{
background = {
shapes = (
{
pos = (20,0);
ref = L;
}
);
};
layerId = "0EDB233F-674C-46BF-8D38-84A6CD2C2EDF";
shapes = (
{
closed = 1;
nodes = (
(614,0,l),
(614,180,l),
(307,180,l),
(307,372,l),
(461,480,l),
(461,662,l),
(307,555,l),
(307,700,l),
(96,700,l),
(96,409,l),
(30,363,l),
(30,180,l),
(96,226,l),
(96,0,l)
);
}
);
width = 624;
},
{
background = {
shapes = (
{
pos = (1,0);
ref = L;
}
);
};
layerId = "A22F00EF-5553-43E5-A27F-95FD0E0BDB40";
shapes = (
{
closed = 1;
nodes = (
(579,0,l),
(579,103,l),
(217,103,l),
(217,364,l),
(407,495,l),
(407,595,l),
(217,464,l),
(217,700,l),
(103,700,l),
(103,385,l),
(25,331,l),
(25,231,l),
(103,285,l),
(103,0,l)
);
}
);
width = 586;
}
);
metricLeft = t;
metricRight = L;
unicode = 321;
},
{
glyphname = M;
kernLeft = KO_H;
kernRight = KO_H;
lastChange = "2026-03-13 10:15:51 +0000";
layers = (
{
anchors = (
{
name = bottom;
pos = (410,0);
},
{
name = bottomright;
pos = (717,0);
},
{
name = top;
pos = (410,700);
}
);
layerId = "A5EF4BC6-6509-4D3B-8B47-D449F40BB885";
shapes = (
{
closed = 1;
nodes = (
(128,0,l),
(128,541,l),
(125,640,ls),
(125,652,o),
(131,654,o),
(138,643,cs),
(393,254,l),
(417,254,l),
(682,643,ls),
(687,651,o),
(695,652,o),
(695,640,cs),
(692,541,l),
(692,0,l),
(717,0,l),
(717,700,l),
(694,700,l),
(413,287,ls),
(408,279,o),
(401,281,o),
(397,287,cs),
(125,700,l),
(103,700,l),
(103,0,l)
);
}
);
width = 820;
},
{
anchors = (
{
name = bottom;
pos = (474,0);
},
{
name = bottomright;
pos = (873,0);
},
{
name = top;
pos = (474,700);
}
);
background = {
shapes = (
{
closed = 1;
nodes = (
(316,0,l),
(316,199,l),
(288,360,ls),
(286,371,o),
(299,377,o),
(306,368,c),
(398,195,l),
(451,195,l),
(543,368,l),
(550,377,o),
(563,371,o),
(561,360,cs),
(533,199,l),
(533,0,l),
(733,0,l),
(733,700,l),
(533,700,l),
(435,495,ls),
(430,484,o),
(420,484,o),
(415,495,cs),
(316,700,l),
(116,700,l),
(116,0,l)
);
}
);
};
layerId = "0EDB233F-674C-46BF-8D38-84A6CD2C2EDF";
shapes = (
{
closed = 1;
nodes = (
(275,0,l),
(275,309,l),
(248,410,ls),
(245,422,o),
(263,427,o),
(269,418,cs),
(443,161,l),
(506,161,l),
(680,418,ls),
(687,428,o),
(703,421,o),
(700,410,cs),
(674,309,l),
(674,0,l),
(873,0,l),
(873,700,l),
(681,700,l),
(487,419,ls),
(480,409,o),
(470,409,o),
(463,419,cs),
(268,700,l),
(76,700,l),
(76,0,l)
);
}
);
width = 949;
},
{
anchors = (
{
name = bottom;
pos = (442,0);
},
{
name = bottomright;
pos = (797,0);
},
{
name = top;
pos = (442,700);
}
);
layerId = "A22F00EF-5553-43E5-A27F-95FD0E0BDB40";
shapes = (
{
closed = 1;
nodes = (
(197,0,l),
(197,368,l),
(184,491,ls),
(183,502,o),
(194,504,o),
(201,495,cs),
(415,197,l),
(470,197,l),
(684,495,ls),
(690,503,o),
(702,502,o),
(701,491,cs),
(688,368,l),
(688,0,l),
(797,0,l),
(797,700,l),
(702,700,l),
(453,347,ls),
(446,338,o),
(438,339,o),
(433,347,cs),
(183,700,l),
(88,700,l),
(88,0,l)
);
}
);
width = 885;
}
);
metricLeft = H;
metricRight = H;
unicode = 77;
userData = {
com.schriftgestaltung.Glyphs.ColorIndex = 3;
com.schriftgestaltung.Glyphs.layer.leftMetricsKey = "==H";
com.schriftgestaltung.Glyphs.layer.rightMetricsKey = "==H";
com.schriftgestaltung.Glyphs.leftMetricsKey = H;
com.schriftgestaltung.Glyphs.rightMetricsKey = H;
};
},
{
glyphname = N;
kernLeft = KO_H;
kernRight = KO_H;
lastChange = "2026-03-13 10:15:51 +0000";
layers = (
{
anchors = (
{
name = bottom;
pos = (355,0);
},
{
name = part.hook;
pos = (103,0);
},
{
name = top;
pos = (355,700);
}
);
background = {
shapes = (
{
pos = (-7,0);
ref = H;
}
);
};
layerId = "A5EF4BC6-6509-4D3B-8B47-D449F40BB885";
shapes = (
{
closed = 1;
nodes = (
(127,0,l),
(127,558,l),
(123,654,ls),
(123,661,o),
(130,666,o),
(135,658,cs),
(580,0,l),
(603,0,l),
(608,700,l),
(584,700,l),
(580,152,l),
(587,49,ls),
(588,41,o),
(581,39,o),
(576,46,cs),
(133,700,l),
(103,700,l),
(103,0,l)
);
}
);
width = 711;
},
{
anchors = (
{
name = bottom;
pos = (416,0);
},
{
name = part.hook;
pos = (76,0);
},
{
name = top;
pos = (416,700);
}
);
background = {
shapes = (
{
pos = (-14,0);
ref = H;
}
);
};
layerId = "0EDB233F-674C-46BF-8D38-84A6CD2C2EDF";
shapes = (
{
closed = 1;
nodes = (
(286,0,l),
(286,231,l),
(268,361,ls),
(265,379,o),
(278,384,o),
(290,369,cs),
(571,0,l),
(757,0,l),
(757,700,l),
(547,700,l),
(547,470,l),
(567,337,ls),
(570,316,o),
(557,312,o),
(543,331,cs),
(274,700,l),
(76,700,l),
(76,0,l)
);
}
);
width = 833;
},
{
anchors = (
{
name = bottom;
pos = (379,0);
},
{
name = part.hook;
pos = (88,0);
},
{
name = top;
pos = (379,700);
}
);
background = {
shapes = (
{
pos = (-12,0);
ref = H;
}
);
};
layerId = "A22F00EF-5553-43E5-A27F-95FD0E0BDB40";
shapes = (
{
closed = 1;
nodes = (
(196,0,l),
(196,365,l),
(184,490,ls),
(183,502,o),
(194,502,o),
(200,494,cs),
(569,0,l),
(669,0,l),
(670,700,l),
(562,700,l),
(562,319,l),
(574,194,ls),
(575,183,o),
(565,179,o),
(559,188,cs),
(183,700,l),
(88,700,l),
(88,0,l)
);
}
);
width = 758;
}
);
metricLeft = H;
metricRight = H;
unicode = 78;
userData = {
com.schriftgestaltung.Glyphs.ColorIndex = 3;
com.schriftgestaltung.Glyphs.layer.leftMetricsKey = "==H";
com.schriftgestaltung.Glyphs.layer.rightMetricsKey = "==H";
com.schriftgestaltung.Glyphs.leftMetricsKey = H;
com.schriftgestaltung.Glyphs.rightMetricsKey = H;
};
},
{
glyphname = Nj;
lastChange = "2026-03-13 10:15:51 +0000";
layers = (
{
background = {
shapes = (
{
ref = N;
},
{
pos = (707,0);
ref = j;
}
);
};
layerId = "A5EF4BC6-6509-4D3B-8B47-D449F40BB885";
shapes = (
{
closed = 1;
nodes = (
(127,0,l),
(127,558,l),
(123,654,ls),
(123,661,o),
(130,666,o),
(135,658,cs),
(580,0,l),
(603,0,l),
(608,700,l),
(584,700,l),
(580,152,l),
(587,49,ls),
(588,41,o),
(581,39,o),
(576,46,cs),
(133,700,l),
(103,700,l),
(103,0,l)
);
},
{
closed = 1;
nodes = (
(798,-176,o),
(824,-115,o),
(824,1,cs),
(824,522,l),
(800,522,l),
(800,1,l),
(800,-105,o),
(778,-161,o),
(709,-197,c),
(721,-215,l)
);
},
{
closed = 1;
nodes = (
(824,632,l),
(824,750,l),
(800,750,l),
(800,632,l)
);
}
);
width = 917;
},
{
background = {
shapes = (
{
ref = N;
},
{
pos = (833,0);
ref = j;
}
);
};
layerId = "0EDB233F-674C-46BF-8D38-84A6CD2C2EDF";
shapes = (
{
closed = 1;
nodes = (
(286,0,l),
(286,231,l),
(268,361,ls),
(265,379,o),
(278,384,o),
(290,369,cs),
(571,0,l),
(757,0,l),
(757,700,l),
(547,700,l),
(547,470,l),
(567,337,ls),
(570,316,o),
(557,312,o),
(543,331,cs),
(274,700,l),
(76,700,l),
(76,0,l)
);
},
{
closed = 1;
nodes = (
(969,-222,o),
(1095,-164,o),
(1095,28,cs),
(1095,546,l),
(899,546,l),
(899,28,ls),
(899,-16,o),
(874,-43,o),
(837,-49,c),
(880,-222,l)
);
},
{
closed = 1;
nodes = (
(1106,618,l),
(1106,750,l),
(889,750,l),
(889,618,l)
);
}
);
width = 1161;
},
{
background = {
shapes = (
{
ref = N;
},
{
pos = (756,0);
ref = j;
}
);
};
layerId = "A22F00EF-5553-43E5-A27F-95FD0E0BDB40";
shapes = (
{
closed = 1;
nodes = (
(196,0,l),
(196,365,l),
(184,490,ls),
(183,502,o),
(194,502,o),
(200,494,cs),
(569,0,l),
(669,0,l),
(670,700,l),
(562,700,l),
(562,319,l),
(574,194,ls),
(575,183,o),
(565,179,o),
(559,188,cs),
(183,700,l),
(88,700,l),
(88,0,l)
);
},
{
closed = 1;
nodes = (
(878,-199,o),
(956,-132,o),
(956,9,cs),
(956,536,l),
(848,536,l),
(848,6,ls),
(848,-70,o),
(811,-113,o),
(754,-129,c),
(784,-222,l)
);
},
{
closed = 1;
nodes = (
(956,632,l),
(956,750,l),
(848,750,l),
(848,632,l)
);
}
);
width = 1034;
}
);
unicode = 459;
},
{
color = 9;
glyphname = Nj.ss01;
lastChange = "2026-03-13 10:15:51 +0000";
layers = (
{
anchors = (
{
name = bottom;
pos = (808,-250);
},
{
name = part.hook;
pos = (103,0);
},
{
name = top;
pos = (816,703);
}
);
layerId = "A5EF4BC6-6509-4D3B-8B47-D449F40BB885";
shapes = (
{
closed = 1;
nodes = (
(127,0,l),
(127,558,l),
(123,654,ls),
(123,661,o),
(130,666,o),
(135,658,cs),
(580,0,l),
(603,0,l),
(608,700,l),
(584,700,l),
(580,152,l),
(587,49,ls),
(588,41,o),
(581,39,o),
(576,46,cs),
(133,700,l),
(103,700,l),
(103,0,l)
);
},
{
closed = 1;
nodes = (
(802,-176,o),
(828,-115,o),
(828,1,cs),
(828,522,l),
(804,522,l),
(804,1,l),
(804,-105,o),
(782,-161,o),
(713,-197,c),
(725,-215,l)
);
},
{
closed = 1;
nodes = (
(828,632,l),
(828,750,l),
(804,750,l),
(804,632,l)
);
}
);
width = 921;
},
{
anchors = (
{
name = bottom;
pos = (903,-250);
},
{
name = part.hook;
pos = (88,0);
},
{
name = top;
pos = (904,750);
}
);
layerId = "A22F00EF-5553-43E5-A27F-95FD0E0BDB40";
shapes = (
{
closed = 1;
nodes = (
(196,0,l),
(196,365,l),
(184,490,ls),
(183,502,o),
(194,502,o),
(200,494,cs),
(569,0,l),
(669,0,l),
(670,700,l),
(562,700,l),
(562,319,l),
(574,194,ls),
(575,183,o),
(565,179,o),
(559,188,cs),
(183,700,l),
(88,700,l),
(88,0,l)
);
},
{
closed = 1;
nodes = (
(880,-199,o),
(958,-132,o),
(958,9,cs),
(958,536,l),
(850,536,l),
(850,6,ls),
(850,-70,o),
(813,-113,o),
(756,-129,c),
(786,-222,l)
);
},
{
closed = 1;
nodes = (
(958,632,l),
(958,750,l),
(850,750,l),
(850,632,l)
);
}
);
width = 1036;
},
{
anchors = (
{
name = bottom;
pos = (1008,-250);
},
{
name = part.hook;
pos = (76,0);
},
{
name = top;
pos = (997,753);
}
);
layerId = "0EDB233F-674C-46BF-8D38-84A6CD2C2EDF";
shapes = (
{
closed = 1;
nodes = (
(286,0,l),
(286,231,l),
(268,361,ls),
(265,379,o),
(278,384,o),
(290,369,cs),
(571,0,l),
(757,0,l),
(757,700,l),
(547,700,l),
(547,470,l),
(567,337,ls),
(570,316,o),
(557,312,o),
(543,331,cs),
(274,700,l),
(76,700,l),
(76,0,l)
);
},
{
closed = 1;
nodes = (
(969,-222,o),
(1095,-164,o),
(1095,28,cs),
(1095,546,l),
(899,546,l),
(899,28,ls),
(899,-16,o),
(874,-43,o),
(837,-49,c),
(880,-222,l)
);
},
{
closed = 1;
nodes = (
(1106,618,l),
(1106,750,l),
(889,750,l),
(889,618,l)
);
}
);
width = 1161;
}
);
},
{
glyphname = Eng;
kernLeft = KO_H;
kernRight = KO_H;
lastChange = "2026-03-13 10:15:51 +0000";
layers = (
{
background = {
shapes = (
{
ref = N;
}
);
};
layerId = "A5EF4BC6-6509-4D3B-8B47-D449F40BB885";
shapes = (
{
closed = 1;
nodes = (
(127,0,l),
(127,558,l),
(123,654,ls),
(123,661,o),
(130,666,o),
(135,658,cs),
(580,0,l),
(603,0,l),
(608,700,l),
(584,700,l),
(580,152,l),
(587,49,ls),
(588,41,o),
(581,39,o),
(576,46,cs),
(133,700,l),
(103,700,l),
(103,0,l)
);
},
{
closed = 1;
nodes = (
(533,-212,o),
(603,-161,o),
(603,-59,cs),
(603,0,l),
(580,0,l),
(580,-59,ls),
(580,-148,o),
(519,-190,o),
(443,-190,cs),
(394,-190,o),
(348,-164,o),
(322,-135,c),
(317,-158,l),
(343,-185,o),
(392,-212,o),
(443,-212,cs)
);
}
);
width = 711;
},
{
background = {
shapes = (
{
ref = N;
}
);
};
layerId = "0EDB233F-674C-46BF-8D38-84A6CD2C2EDF";
shapes = (
{
closed = 1;
nodes = (
(286,0,l),
(286,231,l),
(268,361,ls),
(265,379,o),
(278,384,o),
(290,369,cs),
(571,0,l),
(757,0,l),
(757,700,l),
(547,700,l),
(547,470,l),
(567,337,ls),
(570,316,o),
(557,312,o),
(543,331,cs),
(274,700,l),
(76,700,l),
(76,0,l)
);
},
{
closed = 1;
nodes = (
(666,-212,o),
(757,-130,o),
(757,-4,c),
(757,0,l),
(571,0,l),
(571,-4,ls),
(571,-26,o),
(544,-36,o),
(522,-36,cs),
(488,-36,o),
(459,-22,o),
(438,-13,c),
(379,-167,l),
(426,-196,o),
(472,-212,o),
(536,-212,cs)
);
}
);
width = 833;
},
{
background = {
shapes = (
{
ref = N;
}
);
};
layerId = "A22F00EF-5553-43E5-A27F-95FD0E0BDB40";
shapes = (
{
closed = 1;
nodes = (
(196,0,l),
(196,365,l),
(184,490,ls),
(183,502,o),
(194,502,o),
(200,494,cs),
(569,0,l),
(669,0,l),
(670,700,l),
(562,700,l),
(562,319,l),
(574,194,ls),
(575,183,o),
(565,179,o),
(559,188,cs),
(183,700,l),
(88,700,l),
(88,0,l)
);
},
{
closed = 1;
nodes = (
(585,-212,o),
(669,-136,o),
(669,-12,cs),
(669,0,l),
(569,0,l),
(569,-12,ls),
(569,-78,o),
(520,-112,o),
(463,-111,cs),
(424,-111,o),
(384,-96,o),
(353,-61,c),
(319,-154,l),
(366,-193,o),
(424,-212,o),
(468,-212,cs)
);
}
);
width = 758;
}
);
metricLeft = N;
metricRight = N;
unicode = 330;
},
{
glyphname = O;
kernLeft = KO_O;
kernRight = KO_O;
lastChange = "2026-03-13 10:15:51 +0000";
layers = (
{
anchors = (
{
name = bottom;
pos = (405,0);
},
{
name = center;
pos = (405,350);
},
{
name = ogonek;
pos = (596,41);
},
{
name = top;
pos = (405,700);
},
{
name = topleft;
pos = (15,700);
},
{
name = topright;
pos = (514,700);
}
);
background = {
shapes = (
{
pos = (-18,4);
ref = o;
scale = (1.3277,1.3277);
}
);
};
layerId = "A5EF4BC6-6509-4D3B-8B47-D449F40BB885";
shapes = (
{
closed = 1;
nodes = (
(607,-12,o),
(744,131,o),
(744,351,cs),
(744,569,o),
(607,712,o),
(404,712,cs),
(202,712,o),
(65,569,o),
(65,351,cs),
(65,131,o),
(202,-12,o),
(404,-12,cs)
);
},
{
closed = 1;
nodes = (
(215,10,o),
(91,143,o),
(91,351,cs),
(91,557,o),
(215,690,o),
(404,690,cs),
(594,690,o),
(718,557,o),
(718,351,cs),
(718,143,o),
(594,10,o),
(404,10,cs)
);
}
);
width = 809;
},
{
anchors = (
{
name = bottom;
pos = (423,0);
},
{
name = center;
pos = (423,350);
},
{
name = ogonek;
pos = (628,35);
},
{
name = top;
pos = (423,700);
},
{
name = topleft;
pos = (0,700);
},
{
name = topright;
pos = (601,700);
}
);
background = {
shapes = (
{
pos = (-24,3);
ref = o;
scale = (1.222,1.2705);
}
);
};
layerId = "0EDB233F-674C-46BF-8D38-84A6CD2C2EDF";
shapes = (
{
closed = 1;
nodes = (
(657,-12,o),
(805,127,o),
(805,351,cs),
(805,573,o),
(657,712,o),
(422,712,cs),
(188,712,o),
(40,573,o),
(40,351,cs),
(40,127,o),
(188,-12,o),
(422,-12,cs)
);
},
{
closed = 1;
nodes = (
(321,160,o),
(255,230,o),
(255,350,cs),
(255,470,o),
(321,540,o),
(422,540,cs),
(523,540,o),
(590,471,o),
(590,350,cs),
(590,229,o),
(523,160,o),
(422,160,cs)
);
}
);
width = 845;
},
{
anchors = (
{
name = bottom;
pos = (395,0);
},
{
name = center;
pos = (395,350);
},
{
name = ogonek;
pos = (593,47);
},
{
name = top;
pos = (395,700);
},
{
name = topleft;
pos = (6,700);
},
{
name = topright;
pos = (530,700);
}
);
background = {
shapes = (
{
pos = (-21,3);
ref = o;
scale = (1.2749,1.2942);
}
);
};
layerId = "A22F00EF-5553-43E5-A27F-95FD0E0BDB40";
shapes = (
{
closed = 1;
nodes = (
(606,-12,o),
(738,142,o),
(738,351,cs),
(738,558,o),
(606,712,o),
(394,712,cs),
(183,712,o),
(51,558,o),
(51,351,cs),
(51,142,o),
(183,-12,o),
(394,-12,cs)
);
},
{
closed = 1;
nodes = (
(251,92,o),
(169,193,o),
(169,351,cs),
(169,508,o),
(251,609,o),
(394,609,cs),
(538,609,o),
(621,508,o),
(621,351,cs),
(621,193,o),
(538,92,o),
(394,92,cs)
);
}
);
width = 789;
}
);
unicode = 79;
userData = {
KernOnName = O;
com.schriftgestaltung.Glyphs.ColorIndex = 3;
};
},
{
glyphname = Ocircumflexdotbelow;
kernLeft = KO_O;
kernRight = KO_O;
lastChange = "2026-03-13 10:15:51 +0000";
layers = (
{
anchors = (
{
name = bottom;
pos = (405,-228);
},
{
name = center;
pos = (405,350);
},
{
name = ogonek;
pos = (596,41);
},
{
name = top;
pos = (405,887);
},
{
name = topleft;
pos = (15,700);
},
{
name = topright;
pos = (514,700);
}
);
layerId = "A5EF4BC6-6509-4D3B-8B47-D449F40BB885";
shapes = (
{
closed = 1;
nodes = (
(417,-228,l),
(417,-110,l),
(393,-110,l),
(393,-228,l)
);
},
{
closed = 1;
nodes = (
(322,796,l),
(385,889,l),
(398,916,ls),
(401,922,o),
(409,922,o),
(412,916,cs),
(425,889,l),
(488,796,l),
(510,796,l),
(418,938,l),
(392,938,l),
(300,796,l)
);
},
{
ref = O;
}
);
width = 809;
},
{
anchors = (
{
name = bottom;
pos = (423,-204);
},
{
name = center;
pos = (423,350);
},
{
name = ogonek;
pos = (628,35);
},
{
name = top;
pos = (423,920);
},
{
name = topleft;
pos = (0,700);
},
{
name = topright;
pos = (601,700);
}
);
layerId = "0EDB233F-674C-46BF-8D38-84A6CD2C2EDF";
shapes = (
{
closed = 1;
nodes = (
(531,-204,l),
(531,-72,l),
(314,-72,l),
(314,-204,l)
);
},
{
closed = 1;
nodes = (
(373,772,l),
(400,810,l),
(413,840,ls),
(416,848,o),
(428,848,o),
(431,840,cs),
(444,810,l),
(471,772,l),
(609,772,l),
(520,914,l),
(324,914,l),
(235,772,l)
);
},
{
ref = O;
}
);
width = 845;
},
{
anchors = (
{
name = bottom;
pos = (395,-214);
},
{
name = center;
pos = (395,350);
},
{
name = ogonek;
pos = (593,47);
},
{
name = top;
pos = (395,917);
},
{
name = topleft;
pos = (6,700);
},
{
name = topright;
pos = (530,700);
}
);
layerId = "A22F00EF-5553-43E5-A27F-95FD0E0BDB40";
shapes = (
{
closed = 1;
nodes = (
(449,-214,l),
(449,-96,l),
(341,-96,l),
(341,-214,l)
);
},
{
closed = 1;
nodes = (
(337,782,l),
(376,839,l),
(387,869,ls),
(391,877,o),
(397,877,o),
(401,869,cs),
(413,839,l),
(452,782,l),
(540,782,l),
(447,924,l),
(342,924,l),
(249,782,l)
);
},
{
ref = O;
}
);
width = 789;
}
);
unicode = 7896;
},
{
glyphname = Ohorn;
kernLeft = KO_O;
kernRight = KO_O;
lastChange = "2026-03-13 10:15:51 +0000";
layers = (
{
anchors = (
{
name = bottom;
pos = (405,0);
},
{
name = top;
pos = (405,700);
}
);
background = {
shapes = (
{
ref = O;
},
{
pos = (248,208);
ref = horncomb;
}
);
};
layerId = "A5EF4BC6-6509-4D3B-8B47-D449F40BB885";
shapes = (
{
closed = 1;
nodes = (
(607,-12,o),
(744,131,o),
(744,351,cs),
(744,514,o),
(668,634,o),
(545,685,c),
(577,697,o),
(602,728,o),
(602,784,c),
(580,784,l),
(580,722,o),
(550,700,o),
(514,700,cs),
(501,700,l),
(470,708,o),
(438,712,o),
(404,712,cs),
(202,712,o),
(65,569,o),
(65,351,cs),
(65,131,o),
(202,-12,o),
(404,-12,cs)
);
},
{
closed = 1;
nodes = (
(215,10,o),
(91,143,o),
(91,351,cs),
(91,557,o),
(215,690,o),
(404,690,cs),
(594,690,o),
(718,557,o),
(718,351,cs),
(718,143,o),
(594,10,o),
(404,10,cs)
);
}
);
width = 809;
},
{
anchors = (
{
name = bottom;
pos = (423,0);
},
{
name = top;
pos = (423,700);
}
);
background = {
shapes = (
{
ref = O;
},
{
pos = (342,183);
ref = horncomb;
}
);
};
layerId = "0EDB233F-674C-46BF-8D38-84A6CD2C2EDF";
shapes = (
{
closed = 1;
nodes = (
(657,-12,o),
(805,127,o),
(805,351,cs),
(805,471,o),
(762,567,o),
(684,630,c),
(729,653,o),
(763,703,o),
(763,794,c),
(633,794,l),
(633,714,o),
(619,700,o),
(601,700,cs),
(535,700,l),
(500,708,o),
(462,712,o),
(422,712,cs),
(188,712,o),
(40,573,o),
(40,351,cs),
(40,127,o),
(188,-12,o),
(422,-12,cs)
);
},
{
closed = 1;
nodes = (
(321,150,o),
(255,224,o),
(255,350,cs),
(255,476,o),
(321,550,o),
(422,550,cs),
(523,550,o),
(590,477,o),
(590,350,cs),
(590,223,o),
(523,150,o),
(422,150,cs)
);
}
);
width = 845;
},
{
anchors = (
{
name = bottom;
pos = (395,0);
},
{
name = top;
pos = (395,700);
}
);
background = {
shapes = (
{
ref = O;
},
{
pos = (269,196);
ref = horncomb;
}
);
};
layerId = "A22F00EF-5553-43E5-A27F-95FD0E0BDB40";
shapes = (
{
closed = 1;
nodes = (
(606,-12,o),
(738,142,o),
(738,351,cs),
(738,482,o),
(685,591,o),
(593,654,c),
(631,674,o),
(657,714,o),
(657,790,c),
(582,790,l),
(582,714,o),
(559,700,o),
(530,700,cs),
(492,700,l),
(461,708,o),
(429,712,o),
(394,712,cs),
(183,712,o),
(51,558,o),
(51,351,cs),
(51,142,o),
(183,-12,o),
(394,-12,cs)
);
},
{
closed = 1;
nodes = (
(251,92,o),
(169,193,o),
(169,351,cs),
(169,508,o),
(251,609,o),
(394,609,cs),
(538,609,o),
(621,508,o),
(621,351,cs),
(621,193,o),
(538,92,o),
(394,92,cs)
);
}
);
width = 789;
}
);
unicode = 416;
},
{
glyphname = Ohornacute;
kernLeft = KO_O;
lastChange = "2026-03-13 10:15:51 +0000";
layers = (
{
background = {
shapes = (
{
ref = Ohorn;
},
{
pos = (155,178);
ref = acutecomb;
}
);
};
layerId = "A5EF4BC6-6509-4D3B-8B47-D449F40BB885";
shapes = (
{
closed = 1;
nodes = (
(607,-12,o),
(744,131,o),
(744,351,cs),
(744,514,o),
(668,634,o),
(545,685,c),
(577,697,o),
(602,728,o),
(602,784,c),
(580,784,l),
(580,722,o),
(550,700,o),
(514,700,cs),
(501,700,l),
(470,708,o),
(438,712,o),
(404,712,cs),
(202,712,o),
(65,569,o),
(65,351,cs),
(65,131,o),
(202,-12,o),
(404,-12,cs)
);
},
{
closed = 1;
nodes = (
(215,10,o),
(91,143,o),
(91,351,cs),
(91,557,o),
(215,690,o),
(404,690,cs),
(594,690,o),
(718,557,o),
(718,351,cs),
(718,143,o),
(594,10,o),
(404,10,cs)
);
},
{
closed = 1;
nodes = (
(415,796,l),
(517,938,l),
(488,938,l),
(395,796,l)
);
}
);
width = 809;
},
{
background = {
shapes = (
{
ref = Ohorn;
},
{
pos = (166,154);
ref = acutecomb;
}
);
};
layerId = "0EDB233F-674C-46BF-8D38-84A6CD2C2EDF";
shapes = (
{
closed = 1;
nodes = (
(657,-12,o),
(805,127,o),
(805,351,cs),
(805,471,o),
(762,567,o),
(684,630,c),
(729,653,o),
(763,703,o),
(763,794,c),
(633,794,l),
(633,714,o),
(619,700,o),
(601,700,cs),
(535,700,l),
(500,708,o),
(462,712,o),
(422,712,cs),
(188,712,o),
(40,573,o),
(40,351,cs),
(40,127,o),
(188,-12,o),
(422,-12,cs)
);
},
{
closed = 1;
nodes = (
(321,150,o),
(255,224,o),
(255,350,cs),
(255,476,o),
(321,550,o),
(422,550,cs),
(523,550,o),
(590,477,o),
(590,350,cs),
(590,223,o),
(523,150,o),
(422,150,cs)
);
},
{
closed = 1;
nodes = (
(491,772,l),
(589,914,l),
(413,914,l),
(344,772,l)
);
}
);
width = 845;
},
{
background = {
shapes = (
{
ref = Ohorn;
},
{
pos = (140,164);
ref = acutecomb;
}
);
};
layerId = "A22F00EF-5553-43E5-A27F-95FD0E0BDB40";
shapes = (
{
closed = 1;
nodes = (
(606,-12,o),
(738,142,o),
(738,351,cs),
(738,482,o),
(685,591,o),
(593,654,c),
(631,674,o),
(657,714,o),
(657,790,c),
(582,790,l),
(582,714,o),
(559,700,o),
(530,700,cs),
(492,700,l),
(461,708,o),
(429,712,o),
(394,712,cs),
(183,712,o),
(51,558,o),
(51,351,cs),
(51,142,o),
(183,-12,o),
(394,-12,cs)
);
},
{
closed = 1;
nodes = (
(251,92,o),
(169,193,o),
(169,351,cs),
(169,508,o),
(251,609,o),
(394,609,cs),
(538,609,o),
(621,508,o),
(621,351,cs),
(621,193,o),
(538,92,o),
(394,92,cs)
);
},
{
closed = 1;
nodes = (
(436,782,l),
(527,924,l),
(425,924,l),
(353,782,l)
);
}
);
width = 789;
}
);
unicode = 7898;
},
{
glyphname = Oslash;
lastChange = "2026-03-13 10:15:51 +0000";
layers = (
{
anchors = (
{
name = bottom;
pos = (405,0);
},
{
name = center;
pos = (405,350);
},
{
name = ogonek;
pos = (732,10);
},
{
name = top;
pos = (405,700);
},
{
name = topleft;
pos = (15,700);
},
{
name = topright;
pos = (514,700);
}
);
layerId = "A5EF4BC6-6509-4D3B-8B47-D449F40BB885";
shapes = (
{
closed = 1;
nodes = (
(133,0,l),
(704,700,l),
(677,700,l),
(106,0,l)
);
},
{
closed = 1;
nodes = (
(607,-12,o),
(744,131,o),
(744,351,cs),
(744,569,o),
(607,712,o),
(404,712,cs),
(202,712,o),
(65,569,o),
(65,351,cs),
(65,131,o),
(202,-12,o),
(404,-12,cs)
);
},
{
closed = 1;
nodes = (
(215,10,o),
(91,143,o),
(91,351,cs),
(91,557,o),
(215,690,o),
(404,690,cs),
(594,690,o),
(718,557,o),
(718,351,cs),
(718,143,o),
(594,10,o),
(404,10,cs)
);
}
);
width = 809;
},
{
anchors = (
{
name = bottom;
pos = (423,0);
},
{
name = center;
pos = (423,350);
},
{
name = ogonek;
pos = (777,10);
},
{
name = top;
pos = (423,700);
},
{
name = topleft;
pos = (0,700);
},
{
name = topright;
pos = (601,700);
}
);
background = {
shapes = (
{
ref = O;
}
);
};
layerId = "0EDB233F-674C-46BF-8D38-84A6CD2C2EDF";
shapes = (
{
closed = 1;
nodes = (
(247,0,l),
(779,700,l),
(599,700,l),
(67,0,l)
);
},
{
closed = 1;
nodes = (
(657,-12,o),
(805,127,o),
(805,351,cs),
(805,573,o),
(657,712,o),
(422,712,cs),
(188,712,o),
(40,573,o),
(40,351,cs),
(40,127,o),
(188,-12,o),
(422,-12,cs)
);
},
{
closed = 1;
nodes = (
(309,142,o),
(235,219,o),
(235,350,cs),
(235,481,o),
(309,558,o),
(422,558,cs),
(535,558,o),
(610,482,o),
(610,350,cs),
(610,218,o),
(535,142,o),
(422,142,cs)
);
}
);
width = 845;
},
{
anchors = (
{
name = bottom;
pos = (395,0);
},
{
name = center;
pos = (395,350);
},
{
name = ogonek;
pos = (721,10);
},
{
name = top;
pos = (395,700);
},
{
name = topleft;
pos = (6,700);
},
{
name = topright;
pos = (530,700);
}
);
layerId = "A22F00EF-5553-43E5-A27F-95FD0E0BDB40";
shapes = (
{
closed = 1;
nodes = (
(195,0,l),
(714,700,l),
(595,700,l),
(75,0,l)
);
},
{
closed = 1;
nodes = (
(606,-12,o),
(738,142,o),
(738,351,cs),
(738,558,o),
(606,712,o),
(394,712,cs),
(183,712,o),
(51,558,o),
(51,351,cs),
(51,142,o),
(183,-12,o),
(394,-12,cs)
);
},
{
closed = 1;
nodes = (
(248,86,o),
(164,190,o),
(164,351,cs),
(164,511,o),
(248,615,o),
(394,615,cs),
(541,615,o),
(626,511,o),
(626,351,cs),
(626,190,o),
(541,86,o),
(394,86,cs)
);
}
);
width = 789;
}
);
metricLeft = O;
metricRight = O;
unicode = 216;
},
{
glyphname = OE;
kernLeft = KO_O;
kernRight = KO_E;
lastChange = "2026-03-13 10:15:51 +0000";
layers = (
{
anchors = (
{
name = bottom;
pos = (626,0);
},
{
name = top;
pos = (626,700);
}
);
background = {
shapes = (
{
ref = O;
},
{
pos = (616,0);
ref = E;
}
);
};
layerId = "A5EF4BC6-6509-4D3B-8B47-D449F40BB885";
shapes = (
{
closed = 1;
nodes = (
(534,-12,o),
(636,46,o),
(694,145,cs),
(707,169,o),
(719,165,o),
(719,136,cs),
(719,0,l),
(1140,0,l),
(1140,22,l),
(744,22,l),
(744,339,l),
(1122,339,l),
(1122,361,l),
(744,361,l),
(744,678,l),
(1140,678,l),
(1140,700,l),
(719,700,l),
(719,565,ls),
(719,536,o),
(706,534,o),
(691,559,cs),
(634,655,o),
(532,712,o),
(404,712,cs),
(202,712,o),
(65,569,o),
(65,351,cs),
(65,131,o),
(202,-12,o),
(404,-12,cs)
);
},
{
closed = 1;
nodes = (
(215,10,o),
(91,143,o),
(91,351,cs),
(91,557,o),
(215,690,o),
(404,690,cs),
(594,690,o),
(718,557,o),
(718,351,cs),
(718,143,o),
(594,10,o),
(404,10,cs)
);
}
);
width = 1205;
},
{
anchors = (
{
name = bottom;
pos = (610,0);
},
{
name = top;
pos = (610,700);
}
);
background = {
anchors = (
{
name = bottom;
pos = (329,0);
},
{
name = center;
pos = (423,350);
},
{
name = ogonek;
pos = (580,0);
},
{
name = top;
pos = (329,700);
},
{
name = topleft;
pos = (49,700);
},
{
name = topright;
pos = (845,700);
}
);
shapes = (
{
ref = O;
},
{
pos = (534,0);
ref = E;
}
);
};
layerId = "0EDB233F-674C-46BF-8D38-84A6CD2C2EDF";
shapes = (
{
closed = 1;
nodes = (
(465,-12,o),
(530,8,o),
(583,55,cs),
(598,68,o),
(610,64,o),
(610,45,cs),
(610,0,l),
(1139,0,l),
(1139,165,l),
(810,165,l),
(810,273,l),
(1101,273,l),
(1101,427,l),
(810,427,l),
(810,535,l),
(1139,535,l),
(1139,700,l),
(610,700,l),
(610,655,ls),
(610,636,o),
(598,631,o),
(584,645,cs),
(530,692,o),
(466,712,o),
(392,712,cs),
(188,712,o),
(40,573,o),
(40,351,cs),
(40,127,o),
(188,-12,o),
(392,-12,cs)
);
},
{
closed = 1;
nodes = (
(321,150,o),
(255,224,o),
(255,350,cs),
(255,476,o),
(321,550,o),
(432,550,cs),
(529,550,o),
(590,471,o),
(590,350,cs),
(590,227,o),
(527,150,o),
(432,150,cs)
);
}
);
width = 1191;
},
{
anchors = (
{
name = bottom;
pos = (585,0);
},
{
name = top;
pos = (585,700);
}
);
background = {
shapes = (
{
ref = O;
},
{
pos = (533,0);
ref = E;
}
);
};
layerId = "A22F00EF-5553-43E5-A27F-95FD0E0BDB40";
shapes = (
{
closed = 1;
nodes = (
(482,-12,o),
(549,14,o),
(598,60,cs),
(611,73,o),
(621,65,o),
(621,43,cs),
(621,0,l),
(1099,0,l),
(1099,103,l),
(728,103,l),
(728,301,l),
(1081,301,l),
(1081,399,l),
(728,399,l),
(728,597,l),
(1099,597,l),
(1099,700,l),
(621,700,l),
(621,657,ls),
(621,635,o),
(609,630,o),
(592,645,cs),
(544,688,o),
(479,712,o),
(394,712,cs),
(183,712,o),
(51,558,o),
(51,351,cs),
(51,142,o),
(183,-12,o),
(394,-12,cs)
);
},
{
closed = 1;
nodes = (
(251,92,o),
(169,193,o),
(169,351,cs),
(169,508,o),
(251,609,o),
(394,609,cs),
(538,609,o),
(621,508,o),
(621,351,cs),
(621,193,o),
(538,92,o),
(394,92,cs)
);
}
);
width = 1178;
}
);
metricLeft = O;
metricRight = E;
unicode = 338;
userData = {
com.schriftgestaltung.Glyphs.leftMetricsKey = O;
com.schriftgestaltung.Glyphs.rightMetricsKey = E;
};
},
{
glyphname = P;
kernLeft = KO_H;
kernRight = KO_P;
lastChange = "2026-03-13 10:15:51 +0000";
layers = (
{
anchors = (
{
name = bottom;
pos = (264,0);
},
{
name = top;
pos = (264,700);
}
);
layerId = "A5EF4BC6-6509-4D3B-8B47-D449F40BB885";
shapes = (
{
closed = 1;
nodes = (
(127,0,l),
(127,254,l),
(333,254,ls),
(483,254,o),
(589,333,o),
(589,474,cs),
(589,603,o),
(483,700,o),
(333,700,cs),
(103,700,l),
(103,0,l)
);
},
{
closed = 1;
nodes = (
(127,678,l),
(325,678,ls),
(470,678,o),
(565,597,o),
(565,474,cs),
(565,343,o),
(470,276,o),
(325,276,cs),
(127,276,l)
);
}
);
width = 641;
},
{
anchors = (
{
name = bottom;
pos = (317,0);
},
{
name = top;
pos = (317,700);
}
);
layerId = "0EDB233F-674C-46BF-8D38-84A6CD2C2EDF";
shapes = (
{
closed = 1;
nodes = (
(286,0,l),
(286,169,l),
(406,169,ls),
(597,169,o),
(716,269,o),
(716,431,cs),
(716,597,o),
(597,700,o),
(406,700,cs),
(76,700,l),
(76,0,l)
);
},
{
closed = 1;
nodes = (
(286,530,l),
(395,530,ls),
(467,530,o),
(511,492,o),
(511,431,cs),
(511,374,o),
(467,339,o),
(395,339,cs),
(286,339,l)
);
}
);
width = 754;
},
{
anchors = (
{
name = bottom;
pos = (302,0);
},
{
name = top;
pos = (302,700);
}
);
background = {
shapes = (
{
closed = 1;
nodes = (
(272,0,l),
(272,219,l),
(382,219,ls),
(525,219,o),
(622,316,o),
(622,460,cs),
(622,616,o),
(525,700,o),
(382,700,cs),
(62,700,l),
(62,0,l)
);
},
{
closed = 1;
nodes = (
(272,530,l),
(371,530,ls),
(410,530,o),
(447,509,o),
(447,450,cs),
(447,394,o),
(410,373,o),
(371,373,cs),
(272,373,l)
);
},
{
closed = 1;
nodes = (
(145,0,l),
(145,319,l),
(371,319,ls),
(479,319,o),
(556,388,o),
(556,507,cs),
(556,619,o),
(479,700,o),
(371,700,cs),
(121,700,l),
(121,0,l)
);
},
{
closed = 1;
nodes = (
(145,678,l),
(363,678,ls),
(466,678,o),
(533,609,o),
(533,504,cs),
(533,396,o),
(466,341,o),
(363,341,cs),
(145,341,l)
);
}
);
};
layerId = "A22F00EF-5553-43E5-A27F-95FD0E0BDB40";
shapes = (
{
closed = 1;
nodes = (
(200,0,l),
(200,207,l),
(361,207,ls),
(516,207,o),
(635,292,o),
(635,453,cs),
(635,614,o),
(516,700,o),
(361,700,cs),
(88,700,l),
(88,0,l)
);
},
{
closed = 1;
nodes = (
(200,606,l),
(354,606,ls),
(444,606,o),
(523,559,o),
(523,454,cs),
(523,348,o),
(444,302,o),
(354,302,cs),
(200,302,l)
);
}
);
width = 679;
}
);
metricLeft = H;
unicode = 80;
userData = {
KernOnName = P;
com.schriftgestaltung.Glyphs.ColorIndex = 3;
com.schriftgestaltung.Glyphs.layer.leftMetricsKey = "==H";
com.schriftgestaltung.Glyphs.leftMetricsKey = H;
};
},
{
glyphname = Thorn;
kernLeft = KO_H;
lastChange = "2026-03-13 10:15:51 +0000";
layers = (
{
background = {
anchors = (
{
name = bottom;
pos = (277,0);
},
{
name = top;
pos = (277,700);
}
);
};
layerId = "A5EF4BC6-6509-4D3B-8B47-D449F40BB885";
shapes = (
{
closed = 1;
nodes = (
(127,0,l),
(127,132,l),
(329,132,ls),
(490,132,o),
(589,217,o),
(589,355,cs),
(589,493,o),
(490,578,o),
(329,578,cs),
(127,578,l),
(127,700,l),
(103,700,l),
(103,0,l)
);
},
{
closed = 1;
nodes = (
(127,556,l),
(329,556,ls),
(473,556,o),
(563,480,o),
(565,355,cs),
(563,230,o),
(473,154,o),
(329,154,cs),
(127,154,l)
);
}
);
width = 641;
},
{
background = {
anchors = (
{
name = bottom;
pos = (298,0);
},
{
name = top;
pos = (298,700);
}
);
};
layerId = "0EDB233F-674C-46BF-8D38-84A6CD2C2EDF";
shapes = (
{
closed = 1;
nodes = (
(286,0,l),
(286,89,l),
(406,89,ls),
(528,89,o),
(716,136,o),
(716,355,cs),
(716,574,o),
(526,620,o),
(406,620,cs),
(286,620,l),
(286,700,l),
(76,700,l),
(76,0,l)
);
},
{
closed = 1;
nodes = (
(286,450,l),
(395,450,ls),
(466,450,o),
(511,413,o),
(511,355,cs),
(511,296,o),
(466,259,o),
(395,259,cs),
(286,259,l)
);
}
);
width = 754;
},
{
layerId = "A22F00EF-5553-43E5-A27F-95FD0E0BDB40";
shapes = (
{
closed = 1;
nodes = (
(200,0,l),
(200,107,l),
(361,107,ls),
(516,107,o),
(635,192,o),
(635,353,cs),
(635,515,o),
(516,600,o),
(361,600,cs),
(200,600,l),
(200,700,l),
(88,700,l),
(88,0,l)
);
},
{
closed = 1;
nodes = (
(200,505,l),
(354,505,ls),
(444,505,o),
(523,459,o),
(523,354,cs),
(523,248,o),
(444,202,o),
(354,202,cs),
(200,202,l)
);
}
);
width = 679;
}
);
metricLeft = I;
metricRight = "=I/2";
unicode = 222;
userData = {
com.schriftgestaltung.Glyphs.leftMetricsKey = H;
};
},
{
glyphname = Q;
kernLeft = KO_O;
kernRight = KO_O;
lastChange = "2026-03-13 10:15:51 +0000";
layers = (
{
background = {
anchors = (
{
name = bottom;
pos = (405,0);
},
{
name = center;
pos = (405,350);
},
{
name = ogonek;
pos = (596,41);
},
{
name = top;
pos = (405,704);
},
{
name = topleft;
pos = (15,700);
},
{
name = topright;
pos = (514,700);
}
);
shapes = (
{
ref = O;
}
);
};
layerId = "A5EF4BC6-6509-4D3B-8B47-D449F40BB885";
shapes = (
{
closed = 1;
nodes = (
(597,-70,l),
(552,18,l),
(670,70,o),
(744,190,o),
(744,351,cs),
(744,569,o),
(607,712,o),
(404,712,cs),
(202,712,o),
(65,569,o),
(65,351,cs),
(65,131,o),
(202,-12,o),
(404,-12,cs),
(450,-12,o),
(493,-5,o),
(532,9,c),
(579,-79,l)
);
},
{
closed = 1;
nodes = (
(215,10,o),
(91,143,o),
(91,351,cs),
(91,557,o),
(215,690,o),
(404,690,cs),
(594,690,o),
(718,557,o),
(718,351,cs),
(718,199,o),
(651,86,o),
(543,33,c),
(438,233,l),
(418,224,l),
(506,58,l),
(519,38,ls),
(525,29,o),
(523,25,o),
(513,22,cs),
(482,13,o),
(455,10,o),
(404,10,cs)
);
}
);
width = 809;
},
{
background = {
anchors = (
{
name = bottom;
pos = (423,0);
},
{
name = top;
pos = (423,700);
}
);
shapes = (
{
closed = 1;
nodes = (
(1438,-34,l),
(1392,68,l),
(1401,76,o),
(1402,77,o),
(1413,90,cs),
(1430,110,o),
(1470,169,o),
(1470,350,cs),
(1470,531,o),
(1438,588,o),
(1388,637,cs),
(1333,692,o),
(1258,712,o),
(1191,712,cs),
(1124,712,o),
(1048,692,o),
(993,637,cs),
(944,588,o),
(911,531,o),
(911,350,cs),
(911,169,o),
(944,112,o),
(993,63,cs),
(1048,8,o),
(1124,-12,o),
(1191,-12,cs),
(1193,-12,o),
(1220,-12,o),
(1244,-8,c),
(1285,-104,l)
);
},
{
closed = 1;
nodes = (
(1144,133,o),
(1116,176,o),
(1112,229,cs),
(1109,250,o),
(1108,301,o),
(1108,350,cs),
(1108,394,o),
(1110,436,o),
(1112,460,cs),
(1117,506,o),
(1155,530,o),
(1191,530,cs),
(1226,530,o),
(1264,506,o),
(1269,460,cs),
(1271,436,o),
(1273,394,o),
(1273,350,cs),
(1273,307,l),
(1138,243,l),
(1164,180,l),
(1211,158,ls),
(1222,153,o),
(1222,136,o),
(1209,134,cs),
(1204,133,o),
(1198,133,o),
(1193,133,cs)
);
},
{
ref = O;
}
);
};
layerId = "0EDB233F-674C-46BF-8D38-84A6CD2C2EDF";
shapes = (
{
closed = 1;
nodes = (
(664,-34,l),
(630,40,l),
(741,100,o),
(805,208,o),
(805,351,cs),
(805,573,o),
(657,712,o),
(422,712,cs),
(188,712,o),
(40,573,o),
(40,351,cs),
(40,127,o),
(188,-12,o),
(422,-12,cs),
(439,-12,o),
(455,-11,o),
(470,-9,c),
(511,-104,l)
);
},
{
closed = 1;
nodes = (
(317,138,o),
(255,216,o),
(255,350,cs),
(255,476,o),
(321,550,o),
(422,550,cs),
(524,550,o),
(591,475,o),
(591,345,cs),
(591,285,o),
(579,233,o),
(558,195,c),
(510,312,l),
(364,243,l),
(390,180,l),
(419,151,ls),
(423,147,o),
(423,138,o),
(414,138,cs),
(412,138,o),
(411,138,o),
(410,138,cs)
);
}
);
width = 845;
},
{
background = {
shapes = (
{
ref = O;
}
);
};
layerId = "A22F00EF-5553-43E5-A27F-95FD0E0BDB40";
shapes = (
{
closed = 1;
nodes = (
(615,-52,l),
(574,34,l),
(686,101,o),
(738,213,o),
(738,351,cs),
(738,558,o),
(606,712,o),
(394,712,cs),
(183,712,o),
(51,558,o),
(51,351,cs),
(51,142,o),
(183,-12,o),
(394,-12,cs),
(427,-12,o),
(458,-8,o),
(486,-1,c),
(529,-90,l)
);
},
{
closed = 1;
nodes = (
(255,85,o),
(169,189,o),
(169,351,cs),
(169,508,o),
(251,609,o),
(394,609,cs),
(538,609,o),
(621,508,o),
(621,351,cs),
(621,238,o),
(589,166,o),
(530,123,c),
(458,273,l),
(372,234,l),
(423,129,l),
(447,101,ls),
(453,95,o),
(451,88,o),
(444,87,cs),
(433,85,o),
(423,85,o),
(405,85,cs)
);
}
);
width = 789;
}
);
metricLeft = O;
metricRight = O;
unicode = 81;
userData = {
KernOnName = Q;
com.schriftgestaltung.Glyphs.ColorIndex = 3;
com.schriftgestaltung.Glyphs.layer.leftMetricsKey = "==O";
com.schriftgestaltung.Glyphs.layer.rightMetricsKey = "==O";
com.schriftgestaltung.Glyphs.leftMetricsKey = O;
com.schriftgestaltung.Glyphs.rightMetricsKey = O;
};
},
{
glyphname = R;
kernLeft = KO_H;
kernRight = KO_R;
lastChange = "2026-03-13 10:15:51 +0000";
layers = (
{
anchors = (
{
name = bottom;
pos = (334,0);
},
{
name = top;
pos = (320,700);
}
);
layerId = "A5EF4BC6-6509-4D3B-8B47-D449F40BB885";
shapes = (
{
closed = 1;
nodes = (
(127,0,l),
(127,299,l),
(388,299,l),
(544,0,l),
(569,0,l),
(447,234,l),
(412,283,ls),
(405,293,o),
(411,300,o),
(421,301,cs),
(532,316,o),
(598,385,o),
(598,494,cs),
(598,618,o),
(517,700,o),
(385,700,cs),
(103,700,l),
(103,0,l)
);
},
{
closed = 1;
nodes = (
(127,678,l),
(376,678,ls),
(503,678,o),
(575,612,o),
(575,494,cs),
(575,383,o),
(503,321,o),
(376,321,cs),
(127,321,l)
);
}
);
width = 663;
},
{
anchors = (
{
name = bottom;
pos = (401,0);
},
{
name = top;
pos = (366,700);
}
);
layerId = "0EDB233F-674C-46BF-8D38-84A6CD2C2EDF";
shapes = (
{
closed = 1;
nodes = (
(286,0,l),
(286,219,l),
(392,219,l),
(502,0,l),
(717,0,l),
(631,163,l),
(574,232,ls),
(567,240,o),
(570,252,o),
(581,257,cs),
(653,289,o),
(711,365,o),
(711,455,cs),
(711,610,o),
(600,700,o),
(442,700,cs),
(76,700,l),
(76,0,l)
);
},
{
closed = 1;
nodes = (
(286,530,l),
(405,530,ls),
(464,530,o),
(501,506,o),
(501,453,cs),
(501,400,o),
(461,373,o),
(405,373,cs),
(286,373,l)
);
}
);
width = 757;
},
{
anchors = (
{
name = bottom;
pos = (368,0);
},
{
name = top;
pos = (336,700);
}
);
background = {
shapes = (
{
pos = (-12,0);
ref = P;
}
);
};
layerId = "A22F00EF-5553-43E5-A27F-95FD0E0BDB40";
shapes = (
{
closed = 1;
nodes = (
(200,0,l),
(200,259,l),
(371,259,l),
(519,0,l),
(638,0,l),
(516,211,l),
(473,259,ls),
(465,268,o),
(468,276,o),
(479,279,cs),
(580,307,o),
(644,383,o),
(644,483,cs),
(644,618,o),
(548,700,o),
(373,700,cs),
(88,700,l),
(88,0,l)
);
},
{
closed = 1;
nodes = (
(200,606,l),
(374,606,ls),
(479,606,o),
(532,560,o),
(532,483,cs),
(532,404,o),
(479,354,o),
(374,354,cs),
(200,354,l)
);
}
);
width = 695;
}
);
metricLeft = H;
unicode = 82;
userData = {
KernOnName = R;
com.schriftgestaltung.Glyphs.ColorIndex = 3;
com.schriftgestaltung.Glyphs.layer.leftMetricsKey = "==H";
com.schriftgestaltung.Glyphs.leftMetricsKey = H;
};
},
{
glyphname = S;
kernLeft = KO_S;
kernRight = KO_S;
lastChange = "2026-03-13 10:15:51 +0000";
layers = (
{
anchors = (
{
name = bottom;
pos = (270,0);
},
{
name = top;
pos = (299,700);
}
);
layerId = "A5EF4BC6-6509-4D3B-8B47-D449F40BB885";
shapes = (
{
closed = 1;
nodes = (
(455,-10,o),
(543,65,o),
(543,176,cs),
(543,265,o),
(486,338,o),
(353,365,cs),
(268,382,ls),
(160,404,o),
(96,448,o),
(96,533,cs),
(96,621,o),
(179,686,o),
(297,686,cs),
(381,686,o),
(456,657,o),
(513,616,c),
(521,638,l),
(461,679,o),
(383,708,o),
(297,708,cs),
(163,708,o),
(72,636,o),
(72,534,cs),
(72,438,o),
(143,380,o),
(263,358,cs),
(348,342,ls),
(470,319,o),
(518,252,o),
(518,176,cs),
(518,79,o),
(440,12,o),
(316,12,cs),
(231,12,o),
(138,39,o),
(72,93,c),
(65,71,l),
(127,19,o),
(223,-10,o),
(316,-10,cs)
);
}
);
width = 608;
},
{
anchors = (
{
name = bottom;
pos = (349,0);
},
{
name = top;
pos = (349,700);
}
);
background = {
shapes = (
{
closed = 1;
nodes = (
(509,-10,o),
(634,53,o),
(634,225,cs),
(634,360,o),
(520,441,o),
(380,453,cs),
(310,459,ls),
(270,463,o),
(253,478,o),
(253,501,cs),
(253,524,o),
(278,548,o),
(361,548,cs),
(446,548,o),
(503,531,o),
(565,508,c),
(624,652,l),
(590,680,o),
(478,713,o),
(359,713,cs),
(158,713,o),
(43,616,o),
(43,478,cs),
(43,338,o),
(149,283,o),
(273,270,cs),
(341,263,ls),
(393,258,o),
(424,245,o),
(424,216,cs),
(424,178,o),
(372,169,o),
(313,169,cs),
(250,169,o),
(168,184,o),
(93,216,c),
(40,50,l),
(133,7,o),
(215,-10,o),
(316,-10,cs)
);
}
);
};
layerId = "0EDB233F-674C-46BF-8D38-84A6CD2C2EDF";
shapes = (
{
closed = 1;
nodes = (
(505,-10,o),
(628,56,o),
(628,222,cs),
(628,356,o),
(517,435,o),
(377,449,cs),
(308,455,ls),
(263,460,o),
(244,477,o),
(244,503,cs),
(244,529,o),
(272,554,o),
(356,554,cs),
(440,554,o),
(498,537,o),
(560,513,c),
(616,651,l),
(580,680,o),
(471,713,o),
(354,713,cs),
(157,713,o),
(44,617,o),
(44,482,cs),
(44,343,o),
(148,289,o),
(273,275,cs),
(340,267,ls),
(396,261,o),
(428,246,o),
(428,214,cs),
(428,174,o),
(376,161,o),
(312,161,cs),
(248,161,o),
(166,177,o),
(92,210,c),
(41,51,l),
(132,8,o),
(215,-10,o),
(315,-10,cs)
);
}
);
width = 674;
},
{
anchors = (
{
name = bottom;
pos = (302,0);
},
{
name = top;
pos = (309,700);
}
);
background = {
shapes = (
{
closed = 1;
nodes = (
(490,-10,o),
(619,60,o),
(619,228,cs),
(619,363,o),
(504,426,o),
(345,455,cs),
(295,464,ls),
(250,472,o),
(238,479,o),
(238,496,cs),
(238,510,o),
(252,533,o),
(343,533,cs),
(416,533,o),
(465,519,o),
(518,500,c),
(580,662,l),
(550,685,o),
(450,713,o),
(344,713,cs),
(132,713,o),
(28,626,o),
(28,483,cs),
(28,352,o),
(151,295,o),
(275,271,cs),
(326,261,ls),
(370,252,o),
(409,248,o),
(409,219,cs),
(409,186,o),
(353,177,o),
(298,177,cs),
(238,177,o),
(160,192,o),
(88,225,c),
(35,50,l),
(122,7,o),
(198,-10,o),
(291,-10,cs)
);
},
{
closed = 1;
nodes = (
(455,-10,o),
(543,65,o),
(543,176,cs),
(543,265,o),
(486,338,o),
(353,365,cs),
(268,382,ls),
(163,403,o),
(100,448,o),
(100,533,cs),
(100,621,o),
(183,686,o),
(301,686,cs),
(383,686,o),
(457,656,o),
(513,614,c),
(521,636,l),
(462,678,o),
(385,708,o),
(301,708,cs),
(167,708,o),
(76,636,o),
(76,534,cs),
(76,438,o),
(146,380,o),
(263,358,cs),
(348,342,ls),
(470,319,o),
(518,252,o),
(518,176,cs),
(518,79,o),
(440,12,o),
(316,12,cs),
(231,12,o),
(138,39,o),
(72,93,c),
(65,71,l),
(127,19,o),
(223,-10,o),
(316,-10,cs)
);
}
);
};
layerId = "A22F00EF-5553-43E5-A27F-95FD0E0BDB40";
shapes = (
{
closed = 1;
nodes = (
(471,-10,o),
(571,82,o),
(571,198,cs),
(571,325,o),
(489,381,o),
(346,410,cs),
(286,422,ls),
(203,438,o),
(162,464,o),
(162,519,cs),
(162,569,o),
(217,611,o),
(309,611,cs),
(387,611,o),
(458,592,o),
(513,553,c),
(545,642,l),
(486,682,o),
(405,711,o),
(307,711,cs),
(149,711,o),
(52,629,o),
(52,513,cs),
(52,392,o),
(138,345,o),
(272,318,cs),
(331,306,ls),
(426,287,o),
(461,251,o),
(461,198,cs),
(461,141,o),
(408,91,o),
(305,91,cs),
(227,91,o),
(150,110,o),
(84,159,c),
(51,64,l),
(122,12,o),
(211,-10,o),
(309,-10,cs)
);
}
);
width = 622;
}
);
unicode = 83;
userData = {
KernOnName = S;
com.schriftgestaltung.Glyphs.ColorIndex = 3;
com.typemytype.robofont.layerData = {
background = {
anchors = (
);
components = (
);
contours = (
{
points = (
{
smooth = 0;
x = 389;
y = 562;
},
{
smooth = 0;
x = 346;
y = 574;
},
{
segmentType = curve;
smooth = 1;
x = 290;
y = 574;
},
{
smooth = 0;
x = 204;
y = 574;
},
{
smooth = 0;
x = 174;
y = 537;
},
{
segmentType = curve;
smooth = 1;
x = 174;
y = 499;
},
{
smooth = 0;
x = 174;
y = 463;
},
{
smooth = 0;
x = 196;
y = 444;
},
{
segmentType = curve;
smooth = 1;
x = 238;
y = 441;
},
{
segmentType = line;
smooth = 1;
x = 311;
y = 435;
},
{
smooth = 0;
x = 434;
y = 425;
},
{
smooth = 0;
x = 509;
y = 341;
},
{
segmentType = curve;
smooth = 1;
x = 509;
y = 224;
},
{
smooth = 0;
x = 509;
y = 82;
},
{
smooth = 0;
x = 419;
y = -10;
},
{
segmentType = curve;
smooth = 1;
x = 249;
y = -10;
},
{
smooth = 0;
x = 154;
y = -10;
},
{
smooth = 0;
x = 93;
y = 11;
},
{
segmentType = curve;
smooth = 0;
x = 23;
y = 64;
},
{
segmentType = line;
smooth = 0;
x = 69;
y = 190;
},
{
smooth = 0;
x = 135;
y = 143;
},
{
smooth = 0;
x = 175;
y = 128;
},
{
segmentType = curve;
smooth = 1;
x = 245;
y = 128;
},
{
smooth = 0;
x = 318;
y = 128;
},
{
smooth = 0;
x = 359;
y = 160;
},
{
segmentType = curve;
smooth = 1;
x = 359;
y = 218;
},
{
smooth = 0;
x = 359;
y = 259;
},
{
smooth = 0;
x = 335;
y = 287;
},
{
segmentType = curve;
smooth = 1;
x = 280;
y = 292;
},
{
segmentType = line;
smooth = 1;
x = 210;
y = 298;
},
{
smooth = 0;
x = 103;
y = 307;
},
{
smooth = 0;
x = 24;
y = 377;
},
{
segmentType = curve;
smooth = 1;
x = 24;
y = 489;
},
{
smooth = 0;
x = 24;
y = 615;
},
{
smooth = 0;
x = 112;
y = 712;
},
{
segmentType = curve;
smooth = 1;
x = 285;
y = 712;
},
{
smooth = 0;
x = 378;
y = 712;
},
{
smooth = 0;
x = 435;
y = 686;
},
{
segmentType = curve;
smooth = 0;
x = 483;
y = 655;
},
{
segmentType = line;
smooth = 0;
x = 439;
y = 537;
}
);
}
);
lib = {
};
name = S;
unicodes = (
);
width = 503;
};
};
};
},
{
glyphname = Sdotbelowdotaccent;
lastChange = "2026-03-13 10:15:51 +0000";
layers = (
{
anchors = (
{
name = bottom;
pos = (270,-228);
},
{
name = top;
pos = (299,881);
}
);
layerId = "A5EF4BC6-6509-4D3B-8B47-D449F40BB885";
shapes = (
{
closed = 1;
nodes = (
(282,-228,l),
(282,-110,l),
(258,-110,l),
(258,-228,l)
);
},
{
closed = 1;
nodes = (
(311,810,l),
(311,928,l),
(287,928,l),
(287,810,l)
);
},
{
ref = S;
}
);
width = 608;
},
{
anchors = (
{
name = bottom;
pos = (349,-204);
},
{
name = top;
pos = (349,907);
}
);
layerId = "0EDB233F-674C-46BF-8D38-84A6CD2C2EDF";
shapes = (
{
closed = 1;
nodes = (
(457,-204,l),
(457,-72,l),
(240,-72,l),
(240,-204,l)
);
},
{
closed = 1;
nodes = (
(458,772,l),
(458,904,l),
(241,904,l),
(241,772,l)
);
},
{
ref = S;
}
);
width = 674;
},
{
anchors = (
{
name = bottom;
pos = (302,-214);
},
{
name = top;
pos = (309,914);
}
);
layerId = "A22F00EF-5553-43E5-A27F-95FD0E0BDB40";
shapes = (
{
closed = 1;
nodes = (
(356,-214,l),
(356,-96,l),
(248,-96,l),
(248,-214,l)
);
},
{
closed = 1;
nodes = (
(363,796,l),
(363,914,l),
(255,914,l),
(255,796,l)
);
},
{
ref = S;
}
);
width = 622;
}
);
unicode = 7784;
},
{
glyphname = Germandbls;
lastChange = "2026-03-13 10:15:51 +0000";
layers = (
{
anchors = (
{
name = bottom;
pos = (333,0);
},
{
name = top;
pos = (333,700);
}
);
background = {
anchors = (
{
name = bottom;
pos = (333,0);
},
{
name = top;
pos = (333,700);
}
);
shapes = (
{
pos = (86,0);
ref = Ezh;
},
{
ref = I;
}
);
};
layerId = "A5EF4BC6-6509-4D3B-8B47-D449F40BB885";
shapes = (
{
closed = 1;
nodes = (
(537,-8,o),
(636,71,o),
(636,192,cs),
(636,306,o),
(539,391,o),
(316,390,c),
(631,692,l),
(631,700,l),
(103,700,l),
(103,0,l),
(127,0,l),
(127,678,l),
(578,678,ls),
(585,678,o),
(588,673,o),
(580,667,cs),
(537,633,l),
(276,380,l),
(276,369,l),
(314,369,ls),
(514,369,o),
(612,299,o),
(612,192,cs),
(612,85,o),
(521,14,o),
(397,14,cs),
(342,14,o),
(280,31,o),
(241,57,c),
(229,38,l),
(274,10,o),
(341,-8,o),
(397,-8,cs)
);
}
);
width = 716;
},
{
anchors = (
{
name = bottom;
pos = (455,0);
},
{
name = top;
pos = (455,700);
}
);
background = {
shapes = (
{
ref = I;
},
{
pos = (240,0);
ref = Ezh;
}
);
};
layerId = "0EDB233F-674C-46BF-8D38-84A6CD2C2EDF";
shapes = (
{
closed = 1;
nodes = (
(704,-11,o),
(862,63,o),
(862,218,cs),
(862,318,o),
(782,400,o),
(652,426,c),
(816,559,l),
(816,700,l),
(76,700,l),
(76,0,l),
(286,0,l),
(286,530,l),
(526,530,ls),
(541,530,o),
(548,516,o),
(534,507,cs),
(498,485,l),
(408,410,l),
(408,292,l),
(515,292,ls),
(614,292,o),
(665,275,o),
(665,230,cs),
(665,186,o),
(623,166,o),
(551,166,cs),
(494,166,o),
(447,170,o),
(391,195,c),
(330,29,l),
(403,-3,o),
(477,-11,o),
(568,-11,cs)
);
}
);
width = 910;
},
{
anchors = (
{
name = bottom;
pos = (410,0);
},
{
name = top;
pos = (410,700);
}
);
background = {
anchors = (
{
name = bottom;
pos = (410,0);
},
{
name = top;
pos = (410,700);
}
);
shapes = (
{
pos = (179,0);
ref = Ezh;
},
{
pos = (-1,0);
ref = I;
}
);
};
layerId = "A22F00EF-5553-43E5-A27F-95FD0E0BDB40";
shapes = (
{
closed = 1;
nodes = (
(613,-8,o),
(754,52,o),
(754,209,cs),
(754,335,o),
(664,400,o),
(494,415,c),
(724,632,l),
(724,700,l),
(88,700,l),
(88,0,l),
(201,0,l),
(201,606,l),
(558,606,ls),
(568,606,o),
(572,600,o),
(563,593,cs),
(522,561,l),
(349,385,l),
(349,321,l),
(437,321,ls),
(580,321,o),
(646,277,o),
(646,207,cs),
(646,139,o),
(580,93,o),
(469,93,cs),
(414,93,o),
(365,109,o),
(326,139,c),
(287,47,l),
(341,8,o),
(403,-8,o),
(474,-8,cs)
);
}
);
width = 824;
}
);
metricLeft = I;
metricRight = B;
unicode = 7838;
},
{
glyphname = T;
kernLeft = KO_T;
kernRight = KO_T;
lastChange = "2026-03-13 10:15:51 +0000";
layers = (
{
anchors = (
{
name = bottom;
pos = (265,0);
},
{
name = bottomright;
pos = (277,0);
},
{
name = center;
pos = (264,350);
},
{
name = top;
pos = (265,700);
}
);
layerId = "A5EF4BC6-6509-4D3B-8B47-D449F40BB885";
shapes = (
{
closed = 1;
nodes = (
(277,0,l),
(277,678,l),
(525,678,l),
(525,700,l),
(5,700,l),
(5,678,l),
(253,678,l),
(253,0,l)
);
}
);
width = 530;
},
{
anchors = (
{
name = bottom;
pos = (328,0);
},
{
name = bottomright;
pos = (433,0);
},
{
name = center;
pos = (328,350);
},
{
name = top;
pos = (328,700);
}
);
layerId = "0EDB233F-674C-46BF-8D38-84A6CD2C2EDF";
shapes = (
{
closed = 1;
nodes = (
(433,0,l),
(433,520,l),
(646,520,l),
(646,700,l),
(10,700,l),
(10,520,l),
(223,520,l),
(223,0,l)
);
}
);
width = 656;
},
{
anchors = (
{
name = bottom;
pos = (303,0);
},
{
name = bottomright;
pos = (360,0);
},
{
name = center;
pos = (303,350);
},
{
name = top;
pos = (303,700);
}
);
layerId = "A22F00EF-5553-43E5-A27F-95FD0E0BDB40";
shapes = (
{
closed = 1;
nodes = (
(360,0,l),
(360,597,l),
(600,597,l),
(600,700,l),
(7,700,l),
(7,597,l),
(247,597,l),
(247,0,l)
);
}
);
width = 607;
}
);
unicode = 84;
userData = {
KernOnName = T;
com.schriftgestaltung.Glyphs.ColorIndex = 3;
};
},
{
color = 4;
glyphname = Tbar;
lastChange = "2026-03-13 10:15:51 +0000";
layers = (
{
background = {
anchors = (
{
name = bottom;
pos = (265,0);
},
{
name = bottomright;
pos = (277,0);
},
{
name = center;
pos = (264,350);
},
{
name = top;
pos = (265,700);
}
);
shapes = (
{
closed = 1;
nodes = (
(277,0,l),
(277,678,l),
(525,678,l),
(525,700,l),
(5,700,l),
(5,678,l),
(253,678,l),
(253,0,l)
);
},
{
closed = 1;
nodes = (
(389,340,l),
(389,360,l),
(137,360,l),
(137,340,l)
);
}
);
};
layerId = "A5EF4BC6-6509-4D3B-8B47-D449F40BB885";
shapes = (
{
closed = 1;
nodes = (
(277,0,l),
(277,678,l),
(525,678,l),
(525,700,l),
(5,700,l),
(5,678,l),
(253,678,l),
(253,0,l)
);
},
{
closed = 1;
nodes = (
(389,340,l),
(389,360,l),
(137,360,l),
(137,340,l)
);
}
);
width = 530;
},
{
background = {
anchors = (
{
name = bottom;
pos = (328,0);
},
{
name = bottomright;
pos = (433,0);
},
{
name = center;
pos = (328,350);
},
{
name = top;
pos = (328,700);
}
);
shapes = (
{
closed = 1;
nodes = (
(433,0,l),
(433,520,l),
(646,520,l),
(646,700,l),
(10,700,l),
(10,520,l),
(223,520,l),
(223,0,l)
);
},
{
closed = 1;
nodes = (
(515,268,l),
(515,422,l),
(142,422,l),
(142,268,l)
);
}
);
};
layerId = "0EDB233F-674C-46BF-8D38-84A6CD2C2EDF";
shapes = (
{
closed = 1;
nodes = (
(433,0,l),
(433,520,l),
(646,520,l),
(646,700,l),
(10,700,l),
(10,520,l),
(223,520,l),
(223,0,l)
);
},
{
closed = 1;
nodes = (
(515,268,l),
(515,422,l),
(142,422,l),
(142,268,l)
);
}
);
width = 656;
},
{
background = {
anchors = (
{
name = bottom;
pos = (303,0);
},
{
name = bottomright;
pos = (360,0);
},
{
name = center;
pos = (303,350);
},
{
name = top;
pos = (303,700);
}
);
shapes = (
{
closed = 1;
nodes = (
(360,0,l),
(360,597,l),
(600,597,l),
(600,700,l),
(7,700,l),
(7,597,l),
(247,597,l),
(247,0,l)
);
},
{
closed = 1;
nodes = (
(458,305,l),
(458,395,l),
(147,395,l),
(147,305,l)
);
}
);
};
layerId = "A22F00EF-5553-43E5-A27F-95FD0E0BDB40";
shapes = (
{
closed = 1;
nodes = (
(360,0,l),
(360,597,l),
(600,597,l),
(600,700,l),
(7,700,l),
(7,597,l),
(247,597,l),
(247,0,l)
);
},
{
closed = 1;
nodes = (
(458,305,l),
(458,395,l),
(147,395,l),
(147,305,l)
);
}
);
width = 607;
},
{
associatedMasterId = "A5EF4BC6-6509-4D3B-8B47-D449F40BB885";
layerId = "7871B672-61D5-4516-9856-14637241E3E8";
name = "12 Mar 26 at 16:02";
shapes = (
{
ref = T;
},
{
pos = (87,99);
ref = _part.stroke;
}
);
width = 530;
},
{
associatedMasterId = "A22F00EF-5553-43E5-A27F-95FD0E0BDB40";
layerId = "6BFA65C8-75C6-4CB0-8946-8C840B24E273";
name = "12 Mar 26 at 16:02";
shapes = (
{
ref = T;
},
{
pos = (97,85);
ref = _part.stroke;
}
);
width = 607;
},
{
associatedMasterId = "0EDB233F-674C-46BF-8D38-84A6CD2C2EDF";
layerId = "9EFEC1E2-BA02-48A9-B686-E79DF02F6BAB";
name = "12 Mar 26 at 16:02";
shapes = (
{
ref = T;
},
{
pos = (92,70);
ref = _part.stroke;
}
);
width = 656;
}
);
unicode = 358;
},
{
glyphname = U;
kernLeft = KO_U;
kernRight = KO_U;
lastChange = "2026-03-13 10:15:51 +0000";
layers = (
{
anchors = (
{
name = bottom;
pos = (345,0);
},
{
name = ogonek;
pos = (503,40);
},
{
name = top;
pos = (345,700);
},
{
name = topright;
pos = (588,700);
}
);
layerId = "A5EF4BC6-6509-4D3B-8B47-D449F40BB885";
shapes = (
{
closed = 1;
nodes = (
(491,-10,o),
(589,91,o),
(589,209,cs),
(588,700,l),
(567,700,l),
(567,209,ls),
(567,104,o),
(476,12,o),
(345,12,cs),
(215,12,o),
(125,104,o),
(125,209,cs),
(127,700,l),
(103,700,l),
(103,209,ls),
(103,91,o),
(201,-10,o),
(345,-10,cs)
);
}
);
width = 692;
},
{
anchors = (
{
name = bottom;
pos = (384,0);
},
{
name = ogonek;
pos = (560,35);
},
{
name = top;
pos = (384,700);
},
{
name = topright;
pos = (692,700);
}
);
layerId = "0EDB233F-674C-46BF-8D38-84A6CD2C2EDF";
shapes = (
{
closed = 1;
nodes = (
(562,-10,o),
(686,96,o),
(688,286,cs),
(692,700,l),
(482,700,l),
(482,281,ls),
(482,218,o),
(444,174,o),
(384,174,cs),
(324,174,o),
(287,218,o),
(287,281,cs),
(286,700,l),
(76,700,l),
(76,286,ls),
(76,96,o),
(202,-10,o),
(384,-10,cs)
);
}
);
width = 768;
},
{
anchors = (
{
name = bottom;
pos = (356,0);
},
{
name = ogonek;
pos = (538,47);
},
{
name = top;
pos = (356,700);
},
{
name = topright;
pos = (625,700);
}
);
layerId = "A22F00EF-5553-43E5-A27F-95FD0E0BDB40";
shapes = (
{
closed = 1;
nodes = (
(517,-10,o),
(624,91,o),
(624,221,cs),
(625,700,l),
(511,700,l),
(511,220,ls),
(511,152,o),
(451,92,o),
(356,92,cs),
(261,92,o),
(202,152,o),
(202,220,cs),
(202,700,l),
(88,700,l),
(88,221,ls),
(88,92,o),
(194,-10,o),
(356,-10,cs)
);
}
);
width = 713;
}
);
metricLeft = H;
metricRight = H;
unicode = 85;
userData = {
com.schriftgestaltung.Glyphs.ColorIndex = 3;
};
},
{
glyphname = Uhorn;
kernLeft = KO_U;
lastChange = "2026-03-13 10:15:51 +0000";
layers = (
{
anchors = (
{
name = bottom;
pos = (346,0);
},
{
name = top;
pos = (346,700);
}
);
background = {
shapes = (
{
ref = U;
},
{
pos = (322,208);
ref = horncomb;
}
);
};
layerId = "A5EF4BC6-6509-4D3B-8B47-D449F40BB885";
shapes = (
{
closed = 1;
nodes = (
(491,-10,o),
(589,91,o),
(589,209,cs),
(588,680,l),
(631,680,o),
(676,710,o),
(676,784,c),
(654,784,l),
(654,722,o),
(624,700,o),
(588,700,cs),
(567,700,l),
(567,209,ls),
(567,104,o),
(476,12,o),
(345,12,cs),
(215,12,o),
(125,104,o),
(125,209,cs),
(127,700,l),
(103,700,l),
(103,209,ls),
(103,91,o),
(201,-10,o),
(345,-10,cs)
);
}
);
width = 692;
},
{
anchors = (
{
name = bottom;
pos = (384,0);
},
{
name = top;
pos = (384,700);
}
);
background = {
shapes = (
{
ref = U;
},
{
pos = (433,183);
ref = horncomb;
}
);
};
layerId = "0EDB233F-674C-46BF-8D38-84A6CD2C2EDF";
shapes = (
{
closed = 1;
nodes = (
(562,-10,o),
(686,96,o),
(688,286,cs),
(691,612,l),
(773,612,o),
(854,652,o),
(854,794,c),
(724,794,l),
(724,714,o),
(710,700,o),
(692,700,cs),
(482,700,l),
(482,281,ls),
(482,218,o),
(444,174,o),
(384,174,cs),
(324,174,o),
(287,218,o),
(287,281,cs),
(286,700,l),
(76,700,l),
(76,286,ls),
(76,96,o),
(202,-10,o),
(384,-10,cs)
);
}
);
width = 768;
},
{
anchors = (
{
name = bottom;
pos = (357,0);
},
{
name = top;
pos = (357,700);
}
);
background = {
shapes = (
{
ref = U;
},
{
pos = (364,196);
ref = horncomb;
}
);
};
layerId = "A22F00EF-5553-43E5-A27F-95FD0E0BDB40";
shapes = (
{
closed = 1;
nodes = (
(517,-10,o),
(624,91,o),
(624,221,cs),
(625,640,l),
(688,640,o),
(752,673,o),
(752,790,c),
(677,790,l),
(677,714,o),
(654,700,o),
(625,700,cs),
(511,700,l),
(511,220,ls),
(511,152,o),
(451,92,o),
(356,92,cs),
(261,92,o),
(202,152,o),
(202,220,cs),
(202,700,l),
(88,700,l),
(88,221,ls),
(88,92,o),
(194,-10,o),
(356,-10,cs)
);
}
);
width = 713;
}
);
unicode = 431;
},
{
glyphname = V;
kernLeft = KO_V;
kernRight = KO_V;
lastChange = "2026-03-13 10:15:51 +0000";
layers = (
{
anchors = (
{
name = bottom;
pos = (306,0);
},
{
name = top;
pos = (306,700);
}
);
background = {
shapes = (
{
pos = (38,0);
ref = v;
}
);
};
layerId = "A5EF4BC6-6509-4D3B-8B47-D449F40BB885";
shapes = (
{
closed = 1;
nodes = (
(318,0,l),
(590,700,l),
(565,700,l),
(340,119,l),
(313,42,ls),
(310,33,o),
(301,33,o),
(298,42,cs),
(271,119,l),
(45,700,l),
(20,700,l),
(293,0,l)
);
}
);
width = 610;
},
{
anchors = (
{
name = bottom;
pos = (378,0);
},
{
name = top;
pos = (378,700);
}
);
layerId = "0EDB233F-674C-46BF-8D38-84A6CD2C2EDF";
shapes = (
{
closed = 1;
nodes = (
(515,0,l),
(730,700,l),
(522,700,l),
(407,294,l),
(386,180,ls),
(383,165,o),
(366,165,o),
(364,180,cs),
(343,294,l),
(228,700,l),
(20,700,l),
(233,0,l)
);
}
);
width = 750;
},
{
anchors = (
{
name = bottom;
pos = (343,0);
},
{
name = top;
pos = (343,700);
}
);
layerId = "A22F00EF-5553-43E5-A27F-95FD0E0BDB40";
shapes = (
{
closed = 1;
nodes = (
(424,0,l),
(666,700,l),
(550,700,l),
(377,216,l),
(351,99,ls),
(349,89,o),
(336,89,o),
(334,99,cs),
(307,216,l),
(136,700,l),
(20,700,l),
(260,0,l)
);
}
);
width = 686;
}
);
unicode = 86;
userData = {
KernOnName = V;
com.schriftgestaltung.Glyphs.ColorIndex = 3;
};
},
{
glyphname = W;
kernLeft = KO_W;
kernRight = KO_W;
lastChange = "2026-03-13 10:15:51 +0000";
layers = (
{
anchors = (
{
name = bottom;
pos = (448,0);
},
{
name = top;
pos = (448,700);
}
);
layerId = "A5EF4BC6-6509-4D3B-8B47-D449F40BB885";
shapes = (
{
closed = 1;
nodes = (
(248,0,l),
(440,641,ls),
(445,659,o),
(453,659,o),
(458,641,cs),
(650,0,l),
(675,0,l),
(877,700,l),
(853,700,l),
(680,98,l),
(672,55,ls),
(669,40,o),
(658,39,o),
(654,54,cs),
(462,700,l),
(436,700,l),
(243,54,ls),
(239,39,o),
(228,40,o),
(225,55,cs),
(217,98,l),
(44,700,l),
(20,700,l),
(223,0,l)
);
}
);
width = 897;
},
{
anchors = (
{
name = bottom;
pos = (483,0);
},
{
name = top;
pos = (483,700);
}
);
layerId = "0EDB233F-674C-46BF-8D38-84A6CD2C2EDF";
shapes = (
{
closed = 1;
nodes = (
(378,-2,l),
(472,415,ls),
(476,431,o),
(490,431,o),
(494,415,cs),
(588,-2,l),
(803,-2,l),
(946,700,l),
(760,700,l),
(700,380,l),
(694,268,ls),
(693,251,o),
(675,249,o),
(671,265,cs),
(568,700,l),
(398,700,l),
(295,265,ls),
(291,249,o),
(273,251,o),
(272,268,cs),
(266,380,l),
(206,700,l),
(20,700,l),
(163,-2,l)
);
}
);
width = 966;
},
{
anchors = (
{
name = bottom;
pos = (483,0);
},
{
name = top;
pos = (483,700);
}
);
layerId = "A22F00EF-5553-43E5-A27F-95FD0E0BDB40";
shapes = (
{
closed = 1;
nodes = (
(335,0,l),
(472,488,ls),
(476,503,o),
(489,503,o),
(493,488,cs),
(630,0,l),
(745,0,l),
(933,700,l),
(818,700,l),
(713,287,l),
(693,158,ls),
(691,145,o),
(675,145,o),
(672,157,cs),
(532,700,l),
(433,700,l),
(294,157,ls),
(291,145,o),
(275,145,o),
(273,158,cs),
(253,287,l),
(147,700,l),
(33,700,l),
(221,0,l)
);
}
);
width = 966;
}
);
unicode = 87;
userData = {
com.schriftgestaltung.Glyphs.ColorIndex = 3;
};
},
{
glyphname = X;
kernLeft = KO_X;
kernRight = KO_X;
lastChange = "2026-03-13 10:15:51 +0000";
layers = (
{
anchors = (
{
name = bottom;
pos = (310,0);
},
{
name = bottomright;
pos = (584,0);
},
{
name = center;
pos = (313,354);
},
{
name = top;
pos = (310,700);
}
);
layerId = "A5EF4BC6-6509-4D3B-8B47-D449F40BB885";
shapes = (
{
closed = 1;
nodes = (
(52,0,l),
(274,287,l),
(305,330,ls),
(310,337,o),
(314,337,o),
(319,330,cs),
(350,287,l),
(572,0,l),
(604,0,l),
(326,354,l),
(604,700,l),
(572,700,l),
(350,420,l),
(319,378,ls),
(314,371,o),
(310,371,o),
(305,378,cs),
(274,420,l),
(52,700,l),
(20,700,l),
(298,354,l),
(20,0,l)
);
}
);
width = 624;
},
{
anchors = (
{
name = bottom;
pos = (399,0);
},
{
name = bottomright;
pos = (717,0);
},
{
name = center;
pos = (401,360);
},
{
name = top;
pos = (399,700);
}
);
layerId = "0EDB233F-674C-46BF-8D38-84A6CD2C2EDF";
shapes = (
{
closed = 1;
nodes = (
(244,0,l),
(348,170,l),
(386,262,ls),
(392,277,o),
(403,281,o),
(411,262,cs),
(448,170,l),
(554,0,l),
(777,0,l),
(556,351,l),
(777,700,l),
(553,700,l),
(447,533,l),
(411,450,ls),
(405,435,o),
(393,435,o),
(386,450,cs),
(348,533,l),
(243,700,l),
(20,700,l),
(239,351,l),
(20,0,l)
);
}
);
width = 797;
},
{
anchors = (
{
name = bottom;
pos = (357,0);
},
{
name = bottomright;
pos = (623,0);
},
{
name = center;
pos = (357,352);
},
{
name = top;
pos = (357,700);
}
);
layerId = "A22F00EF-5553-43E5-A27F-95FD0E0BDB40";
shapes = (
{
closed = 1;
nodes = (
(149,0,l),
(303,219,l),
(346,294,ls),
(353,305,o),
(360,305,o),
(367,294,cs),
(412,219,l),
(564,0,l),
(693,0,l),
(440,352,l),
(693,700,l),
(564,700,l),
(410,485,l),
(367,410,ls),
(361,399,o),
(352,399,o),
(346,410,cs),
(304,485,l),
(149,700,l),
(20,700,l),
(274,352,l),
(20,0,l)
);
}
);
width = 713;
}
);
metricLeft = V;
metricRight = V;
unicode = 88;
userData = {
KernOnName = X;
com.schriftgestaltung.Glyphs.ColorIndex = 3;
com.schriftgestaltung.Glyphs.layer.leftMetricsKey = "==V";
com.schriftgestaltung.Glyphs.layer.rightMetricsKey = "==V";
com.schriftgestaltung.Glyphs.leftMetricsKey = T;
com.schriftgestaltung.Glyphs.rightMetricsKey = T;
};
},
{
glyphname = Y;
kernLeft = KO_Y;
kernRight = KO_Y;
lastChange = "2026-03-13 10:15:51 +0000";
layers = (
{
anchors = (
{
name = bottom;
pos = (326,0);
},
{
name = top;
pos = (326,700);
},
{
name = topleft;
pos = (33,700);
}
);
background = {
shapes = (
{
pos = (-86,0);
ref = M;
}
);
};
layerId = "A5EF4BC6-6509-4D3B-8B47-D449F40BB885";
shapes = (
{
closed = 1;
nodes = (
(339,0,l),
(339,253,l),
(632,700,l),
(602,700,l),
(369,336,l),
(338,279,ls),
(332,268,o),
(323,269,o),
(317,279,cs),
(285,336,l),
(50,700,l),
(20,700,l),
(315,253,l),
(315,0,l)
);
}
);
width = 652;
},
{
anchors = (
{
name = bottom;
pos = (360,0);
},
{
name = top;
pos = (360,700);
},
{
name = topleft;
pos = (20,700);
}
);
background = {
shapes = (
{
closed = 1;
nodes = (
(467,0,l),
(467,222,l),
(706,700,l),
(484,700,l),
(367,424,l),
(357,424,l),
(239,700,l),
(16,700,l),
(257,222,l),
(257,0,l)
);
}
);
};
layerId = "0EDB233F-674C-46BF-8D38-84A6CD2C2EDF";
shapes = (
{
closed = 1;
nodes = (
(465,0,l),
(465,197,l),
(700,700,l),
(485,700,l),
(393,475,l),
(372,391,ls),
(369,376,o),
(353,376,o),
(351,391,cs),
(329,475,l),
(236,700,l),
(20,700,l),
(255,197,l),
(255,0,l)
);
}
);
width = 720;
},
{
anchors = (
{
name = bottom;
pos = (361,0);
},
{
name = top;
pos = (361,700);
},
{
name = topleft;
pos = (44,700);
}
);
background = {
shapes = (
{
pos = (-88,0);
ref = M;
}
);
};
layerId = "A22F00EF-5553-43E5-A27F-95FD0E0BDB40";
shapes = (
{
closed = 1;
nodes = (
(420,0,l),
(420,250,l),
(702,700,l),
(575,700,l),
(402,425,l),
(372,349,ls),
(368,340,o),
(355,340,o),
(351,349,cs),
(321,425,l),
(147,700,l),
(20,700,l),
(303,250,l),
(303,0,l)
);
}
);
width = 722;
}
);
unicode = 89;
userData = {
KernOnName = Y;
com.schriftgestaltung.Glyphs.ColorIndex = 3;
};
},
{
glyphname = Z;
kernLeft = KO_Z;
kernRight = KO_Z;
lastChange = "2026-03-13 10:15:51 +0000";
layers = (
{
anchors = (
{
name = bottom;
pos = (282,0);
},
{
name = top;
pos = (282,700);
}
);
layerId = "A5EF4BC6-6509-4D3B-8B47-D449F40BB885";
shapes = (
{
closed = 1;
nodes = (
(501,0,l),
(501,22,l),
(84,22,ls),
(73,22,o),
(70,28,o),
(80,38,cs),
(106,64,l),
(496,678,l),
(496,700,l),
(66,700,l),
(66,678,l),
(462,678,l),
(470,678,o),
(476,672,o),
(467,663,cs),
(443,637,l),
(52,21,l),
(52,0,l)
);
}
);
width = 553;
},
{
anchors = (
{
name = bottom;
pos = (320,0);
},
{
name = top;
pos = (320,700);
}
);
layerId = "0EDB233F-674C-46BF-8D38-84A6CD2C2EDF";
shapes = (
{
closed = 1;
nodes = (
(612,0,l),
(612,180,l),
(306,180,ls),
(290,180,o),
(285,191,o),
(301,205,cs),
(383,275,l),
(612,539,l),
(612,700,l),
(38,700,l),
(38,520,l),
(355,520,l),
(372,520,o),
(377,507,o),
(361,494,cs),
(273,420,l),
(40,161,l),
(40,0,l)
);
}
);
width = 650;
},
{
anchors = (
{
name = bottom;
pos = (302,0);
},
{
name = top;
pos = (302,700);
}
);
layerId = "A22F00EF-5553-43E5-A27F-95FD0E0BDB40";
shapes = (
{
closed = 1;
nodes = (
(561,0,l),
(561,103,l),
(198,103,ls),
(191,103,o),
(187,111,o),
(193,117,cs),
(252,186,l),
(560,632,l),
(560,700,l),
(53,700,l),
(53,597,l),
(409,597,l),
(415,597,o),
(419,589,o),
(414,583,cs),
(352,508,l),
(44,68,l),
(44,0,l)
);
}
);
width = 605;
}
);
metricLeft = "=I/2";
metricRight = "=I/2";
unicode = 90;
userData = {
com.schriftgestaltung.Glyphs.ColorIndex = 3;
com.schriftgestaltung.Glyphs.layer.leftMetricsKey = "==H/2";
com.schriftgestaltung.Glyphs.layer.rightMetricsKey = "==H/2";
};
},
{
glyphname = Saltillo;
lastChange = "2026-03-13 10:15:51 +0000";
layers = (
{
layerId = "A5EF4BC6-6509-4D3B-8B47-D449F40BB885";
shapes = (
{
closed = 1;
nodes = (
(102,370,l),
(102,700,l),
(80,700,l),
(80,370,l)
);
}
);
width = 182;
},
{
layerId = "A22F00EF-5553-43E5-A27F-95FD0E0BDB40";
shapes = (
{
closed = 1;
nodes = (
(156,312,l),
(156,700,l),
(66,700,l),
(66,312,l)
);
}
);
width = 222;
},
{
layerId = "0EDB233F-674C-46BF-8D38-84A6CD2C2EDF";
shapes = (
{
closed = 1;
nodes = (
(204,257,l),
(204,700,l),
(50,700,l),
(50,257,l)
);
}
);
width = 254;
}
);
metricLeft = quotesingle;
metricRight = quotesingle;
unicode = 42891;
},
{
glyphname = I_J.loclNLD;
kernLeft = KO_I;
kernRight = KO_J;
lastChange = "2026-03-13 10:15:51 +0000";
layers = (
{
anchors = (
{
name = bottom_1;
pos = (159,0);
},
{
name = bottom_2;
pos = (476,0);
},
{
name = caret_1;
pos = (317,0);
},
{
name = ogonek_1;
pos = (159,10);
},
{
name = ogonek_2;
pos = (476,10);
},
{
name = top_1;
pos = (159,700);
},
{
name = top_2;
pos = (476,700);
},
{
name = topleft_1;
pos = (20,700);
},
{
name = topleft_2;
pos = (20,700);
}
);
layerId = "A5EF4BC6-6509-4D3B-8B47-D449F40BB885";
shapes = (
{
closed = 1;
nodes = (
(127,0,l),
(127,700,l),
(103,700,l),
(103,0,l)
);
},
{
closed = 1;
nodes = (
(461,-12,o),
(531,39,o),
(531,141,cs),
(531,700,l),
(507,700,l),
(507,141,ls),
(507,52,o),
(447,10,o),
(371,10,cs),
(312,10,o),
(259,36,o),
(238,71,c),
(238,43,l),
(265,10,o),
(317,-12,o),
(371,-12,cs)
);
}
);
width = 634;
},
{
anchors = (
{
name = bottom_1;
pos = (184,0);
},
{
name = bottom_2;
pos = (551,0);
},
{
name = caret_1;
pos = (367,0);
},
{
name = ogonek_1;
pos = (184,10);
},
{
name = ogonek_2;
pos = (551,10);
},
{
name = top_1;
pos = (184,700);
},
{
name = top_2;
pos = (551,700);
},
{
name = topleft_1;
pos = (20,700);
},
{
name = topleft_2;
pos = (20,700);
}
);
layerId = "A22F00EF-5553-43E5-A27F-95FD0E0BDB40";
shapes = (
{
closed = 1;
nodes = (
(201,0,l),
(201,700,l),
(88,700,l),
(88,0,l)
);
},
{
closed = 1;
nodes = (
(564,-12,o),
(646,58,o),
(646,180,cs),
(646,700,l),
(533,700,l),
(533,180,ls),
(533,122,o),
(489,93,o),
(417,93,cs),
(379,93,o),
(336,98,o),
(310,115,c),
(310,11,l),
(349,-4,o),
(393,-12,o),
(436,-12,cs)
);
}
);
width = 734;
},
{
anchors = (
{
name = bottom_1;
pos = (215,0);
},
{
name = bottom_2;
pos = (644,0);
},
{
name = caret_1;
pos = (429.5,0);
},
{
name = ogonek_1;
pos = (215,10);
},
{
name = ogonek_2;
pos = (644,10);
},
{
name = top_1;
pos = (215,700);
},
{
name = top_2;
pos = (644,700);
},
{
name = topleft_1;
pos = (20,700);
},
{
name = topleft_2;
pos = (20,700);
}
);
layerId = "0EDB233F-674C-46BF-8D38-84A6CD2C2EDF";
shapes = (
{
closed = 1;
nodes = (
(286,0,l),
(286,700,l),
(76,700,l),
(76,0,l)
);
},
{
closed = 1;
nodes = (
(677,-12,o),
(783,85,o),
(783,264,cs),
(783,700,l),
(573,700,l),
(573,264,ls),
(573,202,o),
(543,171,o),
(485,171,cs),
(448,171,o),
(424,175,o),
(397,181,c),
(397,3,l),
(425,-7,o),
(457,-12,o),
(502,-12,cs)
);
}
);
width = 859;
}
);
},
{
color = 9;
glyphname = I_J.loclNLD.ss01;
kernLeft = KO_H;
lastChange = "2026-03-13 10:15:51 +0000";
layers = (
{
anchors = (
{
name = bottom_1;
pos = (159,0);
},
{
name = bottom_2;
pos = (476,0);
},
{
name = caret_1;
pos = (317,0);
},
{
name = ogonek_1;
pos = (159,10);
},
{
name = ogonek_2;
pos = (476,10);
},
{
name = top_1;
pos = (159,700);
},
{
name = top_2;
pos = (476,700);
},
{
name = topleft_1;
pos = (20,700);
},
{
name = topleft_2;
pos = (20,700);
}
);
layerId = "A5EF4BC6-6509-4D3B-8B47-D449F40BB885";
shapes = (
{
closed = 1;
nodes = (
(127,0,l),
(127,700,l),
(103,700,l),
(103,0,l)
);
},
{
closed = 1;
nodes = (
(461,-12,o),
(531,39,o),
(531,141,cs),
(531,700,l),
(507,700,l),
(507,141,ls),
(507,52,o),
(447,10,o),
(371,10,cs),
(312,10,o),
(259,36,o),
(238,71,c),
(238,43,l),
(265,10,o),
(317,-12,o),
(371,-12,cs)
);
}
);
width = 634;
},
{
anchors = (
{
name = bottom_1;
pos = (184,0);
},
{
name = bottom_2;
pos = (551,0);
},
{
name = caret_1;
pos = (367,0);
},
{
name = ogonek_1;
pos = (184,10);
},
{
name = ogonek_2;
pos = (551,10);
},
{
name = top_1;
pos = (184,700);
},
{
name = top_2;
pos = (551,700);
},
{
name = topleft_1;
pos = (20,700);
},
{
name = topleft_2;
pos = (20,700);
}
);
layerId = "A22F00EF-5553-43E5-A27F-95FD0E0BDB40";
shapes = (
{
closed = 1;
nodes = (
(201,0,l),
(201,700,l),
(88,700,l),
(88,0,l)
);
},
{
closed = 1;
nodes = (
(564,-12,o),
(646,58,o),
(646,180,cs),
(646,700,l),
(533,700,l),
(533,180,ls),
(533,122,o),
(489,93,o),
(417,93,cs),
(379,93,o),
(336,98,o),
(310,115,c),
(310,11,l),
(349,-4,o),
(393,-12,o),
(436,-12,cs)
);
}
);
width = 734;
},
{
anchors = (
{
name = bottom_1;
pos = (215,0);
},
{
name = bottom_2;
pos = (644,0);
},
{
name = caret_1;
pos = (429.5,0);
},
{
name = ogonek_1;
pos = (215,10);
},
{
name = ogonek_2;
pos = (644,10);
},
{
name = top_1;
pos = (215,700);
},
{
name = top_2;
pos = (644,700);
},
{
name = topleft_1;
pos = (20,700);
},
{
name = topleft_2;
pos = (20,700);
}
);
layerId = "0EDB233F-674C-46BF-8D38-84A6CD2C2EDF";
shapes = (
{
closed = 1;
nodes = (
(286,0,l),
(286,700,l),
(76,700,l),
(76,0,l)
);
},
{
closed = 1;
nodes = (
(677,-12,o),
(783,85,o),
(783,264,cs),
(783,700,l),
(573,700,l),
(573,264,ls),
(573,202,o),
(543,171,o),
(485,171,cs),
(448,171,o),
(424,175,o),
(397,181,c),
(397,3,l),
(425,-7,o),
(457,-12,o),
(502,-12,cs)
);
}
);
width = 859;
}
);
},
{
glyphname = a;
kernLeft = KO_a;
kernRight = KO_a;
lastChange = "2026-03-13 10:15:51 +0000";
layers = (
{
anchors = (
{
name = bottom;
pos = (274,0);
},
{
name = ogonek;
pos = (447,0);
},
{
name = top;
pos = (250,522);
}
);
background = {
shapes = (
{
pos = (501,0);
ref = s;
scale = (-1,1);
}
);
};
layerId = "A5EF4BC6-6509-4D3B-8B47-D449F40BB885";
shapes = (
{
closed = 1;
nodes = (
(315,-9,o),
(387,25,o),
(412,89,cs),
(416,99,o),
(423,98,o),
(423,89,cs),
(423,0,l),
(447,0,l),
(447,368,ls),
(447,487,o),
(349,534,o),
(253,534,cs),
(183,534,o),
(128,515,o),
(69,473,c),
(77,453,l),
(130,490,o),
(184,512,o),
(253,512,cs),
(339,512,o),
(423,471,o),
(423,368,cs),
(423,283,l),
(250,283,ls),
(128,283,o),
(54,230,o),
(54,136,cs),
(54,49,o),
(129,-9,o),
(240,-9,cs)
);
},
{
closed = 1;
nodes = (
(143,13,o),
(79,62,o),
(79,136,cs),
(79,219,o),
(148,261,o),
(250,261,cs),
(329,261,l),
(412,270,ls),
(419,271,o),
(423,265,o),
(423,260,cs),
(423,185,ls),
(423,68,o),
(333,13,o),
(240,13,cs)
);
}
);
width = 535;
},
{
anchors = (
{
name = bottom;
pos = (324,0);
},
{
name = ogonek;
pos = (569,0);
},
{
name = top;
pos = (312,546);
}
);
background = {
shapes = (
{
pos = (-45,0);
ref = n;
}
);
};
layerId = "0EDB233F-674C-46BF-8D38-84A6CD2C2EDF";
shapes = (
{
closed = 1;
nodes = (
(304,-12,o),
(355,14,o),
(392,62,cs),
(403,77,o),
(413,70,o),
(414,60,cs),
(418,0,l),
(569,0,l),
(569,347,ls),
(569,505,o),
(456,559,o),
(314,559,cs),
(221,559,o),
(138,531,o),
(74,488,c),
(116,352,l),
(174,389,o),
(234,407,o),
(293,407,cs),
(369,407,o),
(395,380,o),
(395,349,cs),
(395,335,l),
(297,335,ls),
(138,335,o),
(55,262,o),
(55,155,cs),
(55,62,o),
(122,-12,o),
(243,-12,cs)
);
},
{
closed = 1;
nodes = (
(257,121,o),
(228,136,o),
(228,165,cs),
(228,192,o),
(254,206,o),
(296,206,cs),
(314,206,l),
(378,217,ls),
(385,218,o),
(395,217,o),
(395,207,cs),
(395,185,ls),
(395,151,o),
(355,121,o),
(297,121,cs)
);
}
);
width = 630;
},
{
anchors = (
{
name = bottom;
pos = (291,0);
},
{
name = ogonek;
pos = (494,0);
},
{
name = top;
pos = (273,536);
}
);
background = {
shapes = (
{
pos = (530,0);
ref = s;
scale = (-1,1);
}
);
};
layerId = "A22F00EF-5553-43E5-A27F-95FD0E0BDB40";
shapes = (
{
closed = 1;
nodes = (
(307,-10,o),
(347,19,o),
(381,64,cs),
(390,76,o),
(398,71,o),
(398,61,cs),
(398,0,l),
(494,0,l),
(494,362,ls),
(494,465,o),
(411,548,o),
(284,548,cs),
(189,548,o),
(129,520,o),
(69,477,c),
(101,395,l),
(151,436,o),
(210,455,o),
(267,455,cs),
(354,455,o),
(393,411,o),
(393,349,cs),
(393,322,l),
(262,322,ls),
(131,322,o),
(53,254,o),
(53,147,cs),
(53,60,o),
(130,-10,o),
(229,-10,cs)
);
},
{
closed = 1;
nodes = (
(192,80,o),
(156,107,o),
(156,154,cs),
(156,197,o),
(190,229,o),
(257,229,cs),
(315,229,l),
(376,244,ls),
(388,247,o),
(393,239,o),
(393,232,cs),
(393,191,ls),
(393,131,o),
(349,80,o),
(249,80,cs)
);
}
);
width = 567;
}
);
unicode = 97;
userData = {
KernOnName = a;
com.schriftgestaltung.Glyphs.ColorIndex = 3;
com.typemytype.robofont.layerData = {
background = {
anchors = (
);
components = (
{
baseGlyph = n;
transformation = (
1,
0,
0,
1,
-5,
0
);
}
);
contours = (
);
lib = {
};
name = a;
unicodes = (
);
width = 491;
};
};
};
},
{
glyphname = abrevedotbelow;
kernLeft = KO_adieresis;
kernRight = KO_a;
lastChange = "2026-03-13 10:15:51 +0000";
layers = (
{
anchors = (
{
name = bottom;
pos = (274,-228);
},
{
name = ogonek;
pos = (447,0);
},
{
name = top;
pos = (250,689);
}
);
layerId = "A5EF4BC6-6509-4D3B-8B47-D449F40BB885";
shapes = (
{
closed = 1;
nodes = (
(286,-228,l),
(286,-110,l),
(262,-110,l),
(262,-228,l)
);
},
{
closed = 1;
nodes = (
(321,618,o),
(359,668,o),
(370,727,c),
(355,732,l),
(337,676,o),
(309,638,o),
(250,638,cs),
(191,638,o),
(163,676,o),
(145,732,c),
(130,727,l),
(141,668,o),
(179,618,o),
(250,618,cs)
);
},
{
ref = a;
}
);
width = 535;
},
{
anchors = (
{
name = bottom;
pos = (324,-204);
},
{
name = ogonek;
pos = (569,0);
},
{
name = top;
pos = (312,766);
}
);
layerId = "0EDB233F-674C-46BF-8D38-84A6CD2C2EDF";
shapes = (
{
closed = 1;
nodes = (
(432,-204,l),
(432,-72,l),
(215,-72,l),
(215,-204,l)
);
},
{
closed = 1;
nodes = (
(418,618,o),
(466,677,o),
(486,754,c),
(382,774,l),
(364,734,o),
(339,717,o),
(312,717,cs),
(284,717,o),
(260,734,o),
(241,774,c),
(138,754,l),
(158,677,o),
(206,618,o),
(312,618,cs)
);
},
{
ref = a;
}
);
width = 630;
},
{
anchors = (
{
name = bottom;
pos = (291,-214);
},
{
name = ogonek;
pos = (494,0);
},
{
name = top;
pos = (273,730);
}
);
layerId = "A22F00EF-5553-43E5-A27F-95FD0E0BDB40";
shapes = (
{
closed = 1;
nodes = (
(345,-214,l),
(345,-96,l),
(237,-96,l),
(237,-214,l)
);
},
{
closed = 1;
nodes = (
(358,618,o),
(416,660,o),
(438,737,c),
(361,757,l),
(347,715,o),
(319,691,o),
(273,691,cs),
(227,691,o),
(199,715,o),
(185,757,c),
(108,737,l),
(130,660,o),
(188,618,o),
(273,618,cs)
);
},
{
ref = a;
}
);
width = 567;
}
);
unicode = 7863;
},
{
glyphname = acircumflexdotbelow;
kernLeft = KO_adieresis;
kernRight = KO_a;
lastChange = "2026-03-13 10:15:51 +0000";
layers = (
{
anchors = (
{
name = bottom;
pos = (274,-228);
},
{
name = ogonek;
pos = (447,0);
},
{
name = top;
pos = (250,709);
}
);
layerId = "A5EF4BC6-6509-4D3B-8B47-D449F40BB885";
shapes = (
{
closed = 1;
nodes = (
(286,-228,l),
(286,-110,l),
(262,-110,l),
(262,-228,l)
);
},
{
closed = 1;
nodes = (
(167,618,l),
(230,711,l),
(243,738,ls),
(246,744,o),
(254,744,o),
(257,738,cs),
(270,711,l),
(333,618,l),
(355,618,l),
(263,760,l),
(237,760,l),
(145,618,l)
);
},
{
ref = a;
}
);
width = 535;
},
{
anchors = (
{
name = bottom;
pos = (324,-204);
},
{
name = ogonek;
pos = (569,0);
},
{
name = top;
pos = (312,766);
}
);
layerId = "0EDB233F-674C-46BF-8D38-84A6CD2C2EDF";
shapes = (
{
closed = 1;
nodes = (
(432,-204,l),
(432,-72,l),
(215,-72,l),
(215,-204,l)
);
},
{
closed = 1;
nodes = (
(262,618,l),
(289,656,l),
(302,686,ls),
(305,694,o),
(317,694,o),
(320,686,cs),
(333,656,l),
(360,618,l),
(498,618,l),
(409,760,l),
(213,760,l),
(124,618,l)
);
},
{
ref = a;
}
);
width = 630;
},
{
anchors = (
{
name = bottom;
pos = (291,-214);
},
{
name = ogonek;
pos = (494,0);
},
{
name = top;
pos = (273,753);
}
);
layerId = "A22F00EF-5553-43E5-A27F-95FD0E0BDB40";
shapes = (
{
closed = 1;
nodes = (
(345,-214,l),
(345,-96,l),
(237,-96,l),
(237,-214,l)
);
},
{
closed = 1;
nodes = (
(215,618,l),
(254,675,l),
(265,705,ls),
(269,713,o),
(275,713,o),
(279,705,cs),
(291,675,l),
(330,618,l),
(418,618,l),
(325,760,l),
(220,760,l),
(127,618,l)
);
},
{
ref = a;
}
);
width = 567;
}
);
unicode = 7853;
},
{
glyphname = ae;
kernLeft = KO_ae;
kernRight = KO_e;
lastChange = "2026-03-13 10:15:51 +0000";
layers = (
{
anchors = (
{
name = bottom;
pos = (466,0);
},
{
name = top;
pos = (451,522);
}
);
background = {
shapes = (
{
ref = a;
},
{
pos = (358,0);
ref = e;
}
);
};
layerId = "A5EF4BC6-6509-4D3B-8B47-D449F40BB885";
shapes = (
{
closed = 1;
nodes = (
(722,-12,o),
(784,4,o),
(836,49,c),
(827,69,l),
(773,23,o),
(726,10,o),
(660,10,cs),
(543,10,o),
(447,75,o),
(447,253,c),
(863,253,l),
(872,275,l),
(868,396,o),
(839,534,o),
(655,534,cs),
(566,534,o),
(492,488,o),
(458,414,cs),
(451,398,o),
(444,398,o),
(440,416,cs),
(423,492,o),
(343,534,o),
(253,534,cs),
(183,534,o),
(128,515,o),
(69,473,c),
(77,453,l),
(130,490,o),
(184,512,o),
(253,512,cs),
(339,512,o),
(423,471,o),
(423,368,cs),
(423,283,l),
(250,283,ls),
(128,283,o),
(54,230,o),
(54,136,cs),
(54,49,o),
(129,-9,o),
(240,-9,cs),
(349,-9,o),
(411,54,o),
(429,105,cs),
(436,124,o),
(444,125,o),
(453,105,cs),
(482,40,o),
(560,-12,o),
(660,-12,cs)
);
},
{
closed = 1;
nodes = (
(143,13,o),
(79,62,o),
(79,136,cs),
(79,219,o),
(148,261,o),
(250,261,cs),
(329,261,l),
(412,270,ls),
(419,271,o),
(423,265,o),
(423,260,cs),
(423,185,ls),
(423,68,o),
(333,13,o),
(240,13,cs)
);
},
{
closed = 1;
nodes = (
(455,423,o),
(532,512,o),
(655,512,cs),
(822,512,o),
(850,371,o),
(850,275,c),
(448,275,l)
);
}
);
width = 932;
},
{
anchors = (
{
name = bottom;
pos = (499,0);
},
{
name = top;
pos = (511,546);
}
);
background = {
shapes = (
{
ref = a;
},
{
pos = (362,0);
ref = e;
}
);
};
layerId = "0EDB233F-674C-46BF-8D38-84A6CD2C2EDF";
shapes = (
{
closed = 1;
nodes = (
(784,-11,o),
(867,4,o),
(930,33,c),
(911,167,l),
(852,146,o),
(793,136,o),
(740,136,cs),
(658,136,o),
(607,164,o),
(588,216,c),
(947,216,l),
(964,305,l),
(967,456,o),
(871,558,o),
(697,558,cs),
(638,558,o),
(561,546,o),
(523,491,cs),
(513,477,o),
(503,478,o),
(495,492,cs),
(460,551,o),
(388,559,o),
(314,559,cs),
(221,559,o),
(138,531,o),
(74,488,c),
(116,352,l),
(174,389,o),
(234,407,o),
(293,407,cs),
(369,407,o),
(395,380,o),
(395,349,cs),
(395,335,l),
(297,335,ls),
(138,335,o),
(55,262,o),
(55,155,cs),
(55,62,o),
(122,-11,o),
(263,-11,cs),
(346,-11,o),
(432,16,o),
(475,78,cs),
(484,91,o),
(496,91,o),
(503,80,cs),
(544,15,o),
(630,-11,o),
(719,-11,cs)
);
},
{
closed = 1;
nodes = (
(257,121,o),
(228,136,o),
(228,165,cs),
(228,192,o),
(254,206,o),
(296,206,cs),
(314,206,l),
(378,217,ls),
(385,218,o),
(395,217,o),
(395,207,cs),
(395,185,ls),
(395,151,o),
(355,121,o),
(297,121,cs)
);
},
{
closed = 1;
nodes = (
(601,377,o),
(633,408,o),
(697,408,cs),
(762,408,o),
(790,379,o),
(791,333,c),
(588,333,l)
);
}
);
width = 999;
},
{
anchors = (
{
name = bottom;
pos = (470,0);
},
{
name = top;
pos = (465,536);
}
);
background = {
shapes = (
{
ref = a;
},
{
pos = (345,0);
ref = e;
}
);
};
layerId = "A22F00EF-5553-43E5-A27F-95FD0E0BDB40";
shapes = (
{
closed = 1;
nodes = (
(740,-12,o),
(803,5,o),
(859,55,c),
(840,136,l),
(790,96,o),
(726,78,o),
(677,78,cs),
(572,78,o),
(506,126,o),
(497,230,c),
(883,230,l),
(894,282,l),
(894,416,o),
(846,548,o),
(656,548,cs),
(573,548,o),
(516,520,o),
(476,464,cs),
(465,449,o),
(459,449,o),
(449,465,cs),
(413,521,o),
(355,548,o),
(284,548,cs),
(189,548,o),
(129,520,o),
(69,477,c),
(101,395,l),
(151,436,o),
(210,455,o),
(267,455,cs),
(354,455,o),
(393,411,o),
(393,349,cs),
(393,322,l),
(262,322,ls),
(131,322,o),
(53,254,o),
(53,147,cs),
(53,60,o),
(130,-10,o),
(229,-10,cs),
(344,-10,o),
(405,38,o),
(435,89,cs),
(443,102,o),
(454,102,o),
(462,88,cs),
(489,42,o),
(562,-12,o),
(673,-12,cs)
);
},
{
closed = 1;
nodes = (
(192,80,o),
(156,107,o),
(156,154,cs),
(156,197,o),
(190,229,o),
(257,229,cs),
(315,229,l),
(376,244,ls),
(388,247,o),
(393,239,o),
(393,232,cs),
(393,191,ls),
(393,131,o),
(349,80,o),
(249,80,cs)
);
},
{
closed = 1;
nodes = (
(514,407,o),
(574,459,o),
(656,459,cs),
(768,459,o),
(790,382,o),
(792,315,c),
(500,315,l)
);
}
);
width = 939;
}
);
metricLeft = a;
metricRight = e;
unicode = 230;
userData = {
com.schriftgestaltung.Glyphs.leftMetricsKey = a;
com.schriftgestaltung.Glyphs.rightMetricsKey = e;
};
},
{
color = 4;
glyphname = bstroke;
lastChange = "2026-03-13 10:15:51 +0000";
layers = (
{
layerId = "A5EF4BC6-6509-4D3B-8B47-D449F40BB885";
shapes = (
{
closed = 1;
nodes = (
(464,-12,o),
(574,93,o),
(574,261,cs),
(574,430,o),
(464,534,o),
(319,534,cs),
(218,534,o),
(150,472,o),
(127,418,cs),
(125,412,o),
(117,414,o),
(117,420,cs),
(117,624,l),
(232,624,l),
(232,642,l),
(117,642,l),
(117,750,l),
(93,750,l),
(93,642,l),
(-20,642,l),
(-20,624,l),
(93,624,l),
(93,0,l),
(117,0,l),
(117,84,ls),
(117,91,o),
(123,93,o),
(128,88,cs),
(175,33,l),
(210,7,o),
(253,-12,o),
(319,-12,cs)
);
},
{
closed = 1;
nodes = (
(195,10,o),
(117,98,o),
(117,195,cs),
(117,327,ls),
(117,423,o),
(195,512,o),
(319,512,cs),
(452,512,o),
(550,419,o),
(550,261,cs),
(550,103,o),
(452,10,o),
(319,10,cs)
);
}
);
width = 639;
},
{
layerId = "A22F00EF-5553-43E5-A27F-95FD0E0BDB40";
shapes = (
{
closed = 1;
nodes = (
(520,-12,o),
(588,155,o),
(588,268,cs),
(588,381,o),
(529,548,o),
(343,548,cs),
(281,548,o),
(239,525,o),
(202,483,cs),
(195,476,o),
(186,478,o),
(186,487,cs),
(186,596,l),
(292,596,l),
(292,677,l),
(186,677,l),
(186,750,l),
(78,750,l),
(78,677,l),
(-19,677,l),
(-19,596,l),
(78,596,l),
(78,0,l),
(186,0,l),
(186,38,ls),
(186,52,o),
(198,56,o),
(212,46,cs),
(274,-2,l),
(296,-8,o),
(313,-12,o),
(341,-12,cs)
);
},
{
closed = 1;
nodes = (
(248,78,o),
(186,138,o),
(186,218,cs),
(186,329,ls),
(186,408,o),
(239,458,o),
(324,458,cs),
(434,458,o),
(478,355,o),
(478,268,cs),
(478,181,o),
(434,78,o),
(324,78,cs)
);
}
);
width = 639;
},
{
background = {
shapes = (
{
pos = (-377,0);
ref = dcroat;
}
);
};
layerId = "0EDB233F-674C-46BF-8D38-84A6CD2C2EDF";
shapes = (
{
closed = 1;
nodes = (
(572,-12,o),
(673,117,o),
(673,273,cs),
(673,426,o),
(574,558,o),
(407,558,cs),
(354,558,o),
(312,539,o),
(278,498,cs),
(271,490,o),
(262,490,o),
(262,501,cs),
(262,597,l),
(375,597,l),
(375,706,l),
(262,706,l),
(262,750,l),
(66,750,l),
(66,706,l),
(2,706,l),
(2,597,l),
(66,597,l),
(66,0,l),
(262,0,l),
(262,38,ls),
(262,52,o),
(274,57,o),
(288,46,cs),
(354,-5,l),
(371,-9,o),
(385,-12,o),
(404,-12,cs)
);
},
{
closed = 1;
nodes = (
(298,150,o),
(262,188,o),
(262,235,cs),
(262,308,ls),
(262,358,o),
(293,396,o),
(357,396,cs),
(436,396,o),
(476,339,o),
(476,273,cs),
(476,209,o),
(436,150,o),
(358,150,cs)
);
}
);
width = 713;
}
);
unicode = 384;
},
{
glyphname = c;
kernLeft = KO_o;
kernRight = KO_c;
lastChange = "2026-03-13 10:15:51 +0000";
layers = (
{
anchors = (
{
name = bottom;
pos = (312,0);
},
{
name = top;
pos = (309,522);
}
);
background = {
anchors = (
{
name = bottom;
pos = (241,0);
},
{
name = center;
pos = (241,246);
},
{
name = ogonek;
pos = (433,10);
},
{
name = top;
pos = (241,492);
},
{
name = topright;
pos = (461,492);
}
);
shapes = (
{
pos = (9,0);
ref = o;
}
);
};
layerId = "A5EF4BC6-6509-4D3B-8B47-D449F40BB885";
shapes = (
{
closed = 1;
nodes = (
(371,-12,o),
(417,1,o),
(453,26,c),
(442,43,l),
(409,20,o),
(366,10,o),
(313,10,cs),
(184,10,o),
(89,104,o),
(89,261,cs),
(89,418,o),
(184,512,o),
(313,512,cs),
(366,512,o),
(409,502,o),
(442,479,c),
(453,496,l),
(417,521,o),
(371,534,o),
(313,534,cs),
(173,534,o),
(65,430,o),
(65,261,cs),
(65,92,o),
(173,-12,o),
(313,-12,cs)
);
}
);
width = 513;
},
{
anchors = (
{
name = bottom;
pos = (347,0);
},
{
name = top;
pos = (322,546);
}
);
layerId = "0EDB233F-674C-46BF-8D38-84A6CD2C2EDF";
shapes = (
{
closed = 1;
nodes = (
(409,-12,o),
(466,7,o),
(508,39,c),
(457,179,l),
(427,165,o),
(395,158,o),
(360,158,cs),
(274,158,o),
(237,216,o),
(237,273,cs),
(237,331,o),
(274,388,o),
(360,388,cs),
(395,388,o),
(427,381,o),
(457,367,c),
(508,507,l),
(466,539,o),
(409,558,o),
(345,558,cs),
(130,558,o),
(41,424,o),
(40,273,cs),
(41,122,o),
(130,-12,o),
(345,-12,cs)
);
}
);
width = 548;
},
{
anchors = (
{
name = bottom;
pos = (304,0);
},
{
name = top;
pos = (315,536);
}
);
background = {
shapes = (
{
pos = (-4,0);
ref = o;
}
);
};
layerId = "A22F00EF-5553-43E5-A27F-95FD0E0BDB40";
shapes = (
{
closed = 1;
nodes = (
(384,-12,o),
(445,9,o),
(490,47,c),
(444,126,l),
(416,101,o),
(377,82,o),
(331,82,cs),
(201,82,o),
(161,182,o),
(161,268,cs),
(161,354,o),
(201,454,o),
(331,454,cs),
(377,454,o),
(416,435,o),
(444,410,c),
(490,489,l),
(445,527,o),
(384,548,o),
(321,548,cs),
(113,548,o),
(51,381,o),
(51,268,cs),
(51,155,o),
(113,-12,o),
(321,-12,cs)
);
}
);
width = 540;
}
);
metricLeft = o;
unicode = 99;
userData = {
KernOnName = c;
com.schriftgestaltung.Glyphs.ColorIndex = 3;
com.schriftgestaltung.Glyphs.layer.leftMetricsKey = "==o";
com.schriftgestaltung.Glyphs.leftMetricsKey = o;
};
},
{
color = 4;
glyphname = d;
kernLeft = KO_d;
kernRight = KO_d;
lastChange = "2026-03-13 10:15:51 +0000";
layers = (
{
anchors = (
{
name = bottom;
pos = (321,0);
},
{
name = center;
pos = (534,633);
},
{
name = top;
pos = (305,522);
},
{
name = topright;
pos = (666,750);
}
);
background = {
shapes = (
{
pos = (646,0);
ref = _part.bowl;
scale = (-1,1);
},
{
pos = (646,0);
ref = _part.ascender;
scale = (-1,1);
}
);
};
layerId = "A5EF4BC6-6509-4D3B-8B47-D449F40BB885";
shapes = (
{
closed = 1;
nodes = (
(386,-12,o),
(429,7,o),
(464,33,c),
(511,88,ls),
(516,93,o),
(522,91,o),
(522,84,cs),
(522,0,l),
(546,0,l),
(546,750,l),
(522,750,l),
(523,420,ls),
(523,414,o),
(515,412,o),
(513,418,cs),
(490,472,o),
(421,534,o),
(320,534,cs),
(175,534,o),
(65,430,o),
(65,261,cs),
(65,93,o),
(175,-12,o),
(320,-12,cs)
);
},
{
closed = 1;
nodes = (
(187,10,o),
(89,103,o),
(89,261,cs),
(89,419,o),
(187,512,o),
(320,512,cs),
(444,512,o),
(522,423,o),
(522,327,cs),
(522,195,ls),
(522,98,o),
(444,10,o),
(320,10,cs)
);
}
);
width = 639;
},
{
anchors = (
{
name = bottom;
pos = (350,0);
},
{
name = center;
pos = (529,641);
},
{
name = top;
pos = (340,546);
},
{
name = topright;
pos = (719,750);
}
);
background = {
shapes = (
{
pos = (720,0);
ref = _part.bowl;
scale = (-1,1);
},
{
pos = (720,0);
ref = _part.ascender;
scale = (-1,1);
}
);
};
layerId = "0EDB233F-674C-46BF-8D38-84A6CD2C2EDF";
shapes = (
{
closed = 1;
nodes = (
(321,-12,o),
(335,-9,o),
(352,-5,c),
(418,46,ls),
(432,57,o),
(444,52,o),
(444,38,cs),
(444,0,l),
(640,0,l),
(640,750,l),
(444,750,l),
(444,501,ls),
(444,490,o),
(435,490,o),
(428,498,cs),
(394,539,o),
(352,558,o),
(299,558,cs),
(132,558,o),
(40,426,o),
(40,273,cs),
(40,117,o),
(134,-12,o),
(302,-12,cs)
);
},
{
closed = 1;
nodes = (
(271,145,o),
(237,209,o),
(237,273,cs),
(237,338,o),
(271,401,o),
(352,401,cs),
(414,401,o),
(444,361,o),
(444,309,cs),
(444,233,ls),
(444,185,o),
(409,145,o),
(351,145,cs)
);
}
);
width = 706;
},
{
anchors = (
{
name = bottom;
pos = (319,0);
},
{
name = center;
pos = (512,636);
},
{
name = top;
pos = (306,536);
},
{
name = topright;
pos = (671,750);
}
);
background = {
shapes = (
{
pos = (651,0);
ref = _part.bowl;
scale = (-1,1);
},
{
pos = (651,0);
ref = _part.ascender;
scale = (-1,1);
}
);
};
layerId = "A22F00EF-5553-43E5-A27F-95FD0E0BDB40";
shapes = (
{
closed = 1;
nodes = (
(326,-12,o),
(343,-8,o),
(365,-2,c),
(427,46,ls),
(441,56,o),
(453,52,o),
(453,38,cs),
(453,0,l),
(561,0,l),
(561,750,l),
(453,750,l),
(453,487,ls),
(453,478,o),
(444,476,o),
(437,483,cs),
(400,525,o),
(358,548,o),
(296,548,cs),
(110,548,o),
(51,381,o),
(51,268,cs),
(51,155,o),
(119,-12,o),
(298,-12,cs)
);
},
{
closed = 1;
nodes = (
(205,78,o),
(161,181,o),
(161,268,cs),
(161,355,o),
(205,458,o),
(315,458,cs),
(400,458,o),
(453,408,o),
(453,329,cs),
(453,218,ls),
(453,138,o),
(391,78,o),
(315,78,cs)
);
}
);
width = 639;
}
);
metricLeft = o;
unicode = 100;
userData = {
KernOnName = d;
com.schriftgestaltung.Glyphs.ColorIndex = 3;
com.schriftgestaltung.Glyphs.layer.leftMetricsKey = "==o";
com.schriftgestaltung.Glyphs.layer.rightMetricsKey = "==i";
com.schriftgestaltung.Glyphs.rightMetricsKey = l;
};
},
{
color = 4;
glyphname = dcroat;
kernLeft = KO_d;
kernRight = KO_d;
lastChange = "2026-03-13 10:15:51 +0000";
layers = (
{
layerId = "A5EF4BC6-6509-4D3B-8B47-D449F40BB885";
shapes = (
{
closed = 1;
nodes = (
(386,-12,o),
(429,7,o),
(464,33,c),
(511,88,ls),
(515,92,o),
(522,91,o),
(522,84,cs),
(522,0,l),
(546,0,l),
(546,623,l),
(659,623,l),
(659,643,l),
(546,643,l),
(546,750,l),
(522,750,l),
(522,643,l),
(407,643,l),
(407,623,l),
(522,623,l),
(523,420,ls),
(523,414,o),
(515,412,o),
(513,418,cs),
(490,472,o),
(421,534,o),
(320,534,cs),
(175,534,o),
(65,430,o),
(65,261,cs),
(65,93,o),
(175,-12,o),
(320,-12,cs)
);
},
{
closed = 1;
nodes = (
(187,10,o),
(89,103,o),
(89,261,cs),
(89,419,o),
(187,512,o),
(320,512,cs),
(444,512,o),
(522,423,o),
(522,327,cs),
(522,195,ls),
(522,98,o),
(444,10,o),
(320,10,cs)
);
}
);
width = 639;
},
{
background = {
shapes = (
{
pos = (378,0);
ref = bstroke;
}
);
};
layerId = "0EDB233F-674C-46BF-8D38-84A6CD2C2EDF";
shapes = (
{
closed = 1;
nodes = (
(321,-12,o),
(335,-9,o),
(352,-5,c),
(418,46,ls),
(432,57,o),
(444,52,o),
(444,38,cs),
(444,0,l),
(640,0,l),
(640,597,l),
(716,597,l),
(716,706,l),
(640,706,l),
(640,750,l),
(444,750,l),
(444,706,l),
(343,706,l),
(343,597,l),
(444,597,l),
(444,501,ls),
(444,490,o),
(435,490,o),
(428,498,cs),
(394,539,o),
(352,558,o),
(299,558,cs),
(132,558,o),
(40,426,o),
(40,273,cs),
(40,117,o),
(134,-12,o),
(302,-12,cs)
);
},
{
closed = 1;
nodes = (
(271,145,o),
(237,209,o),
(237,273,cs),
(237,338,o),
(271,401,o),
(352,401,cs),
(414,401,o),
(444,361,o),
(444,309,cs),
(444,233,ls),
(444,185,o),
(409,145,o),
(351,145,cs)
);
}
);
width = 706;
},
{
layerId = "A22F00EF-5553-43E5-A27F-95FD0E0BDB40";
shapes = (
{
closed = 1;
nodes = (
(326,-12,o),
(343,-8,o),
(365,-2,c),
(427,46,ls),
(441,56,o),
(453,52,o),
(453,38,cs),
(453,0,l),
(561,0,l),
(561,591,l),
(667,591,l),
(667,681,l),
(561,681,l),
(561,750,l),
(453,750,l),
(453,681,l),
(356,681,l),
(356,591,l),
(453,591,l),
(453,487,ls),
(453,478,o),
(444,476,o),
(437,483,cs),
(400,525,o),
(358,548,o),
(296,548,cs),
(110,548,o),
(51,381,o),
(51,268,cs),
(51,155,o),
(119,-12,o),
(298,-12,cs)
);
},
{
closed = 1;
nodes = (
(205,78,o),
(161,181,o),
(161,268,cs),
(161,355,o),
(205,458,o),
(315,458,cs),
(400,458,o),
(453,408,o),
(453,329,cs),
(453,218,ls),
(453,138,o),
(391,78,o),
(315,78,cs)
);
}
);
width = 639;
}
);
metricLeft = d;
unicode = 273;
},
{
glyphname = dzcaron;
lastChange = "2026-03-13 10:15:51 +0000";
layers = (
{
anchors = (
{
name = bottom;
pos = (865,0);
},
{
name = center;
pos = (534,633);
},
{
name = top;
pos = (865,679);
},
{
name = topright;
pos = (666,750);
}
);
background = {
shapes = (
{
ref = d;
},
{
pos = (609,0);
ref = zcaron;
}
);
};
layerId = "A5EF4BC6-6509-4D3B-8B47-D449F40BB885";
shapes = (
{
closed = 1;
nodes = (
(386,-12,o),
(429,7,o),
(464,33,c),
(511,88,ls),
(516,93,o),
(522,91,o),
(522,84,cs),
(522,0,l),
(546,0,l),
(546,750,l),
(522,750,l),
(523,420,ls),
(523,414,o),
(515,412,o),
(513,418,cs),
(490,472,o),
(421,534,o),
(320,534,cs),
(175,534,o),
(65,430,o),
(65,261,cs),
(65,93,o),
(175,-12,o),
(320,-12,cs)
);
},
{
closed = 1;
nodes = (
(187,10,o),
(89,103,o),
(89,261,cs),
(89,419,o),
(187,512,o),
(320,512,cs),
(444,512,o),
(522,423,o),
(522,327,cs),
(522,195,ls),
(522,98,o),
(444,10,o),
(320,10,cs)
);
},
{
closed = 1;
nodes = (
(1050,0,l),
(1050,22,l),
(727,22,ls),
(717,22,o),
(714,26,o),
(720,33,cs),
(758,79,l),
(1050,519,l),
(1050,522,l),
(680,522,l),
(680,500,l),
(1004,500,ls),
(1012,500,o),
(1015,493,o),
(1010,487,cs),
(973,443,l),
(680,2,l),
(680,0,l)
);
},
{
closed = 1;
nodes = (
(876,618,l),
(968,760,l),
(946,760,l),
(883,667,l),
(870,640,ls),
(867,634,o),
(859,634,o),
(856,640,cs),
(843,667,l),
(781,760,l),
(758,760,l),
(850,618,l)
);
}
);
width = 1100;
},
{
anchors = (
{
name = bottom;
pos = (977,0);
},
{
name = center;
pos = (529,641);
},
{
name = top;
pos = (977,760);
},
{
name = topright;
pos = (719,750);
}
);
background = {
shapes = (
{
ref = d;
},
{
pos = (713,0);
ref = zcaron;
}
);
};
layerId = "0EDB233F-674C-46BF-8D38-84A6CD2C2EDF";
shapes = (
{
closed = 1;
nodes = (
(321,-12,o),
(335,-9,o),
(352,-5,c),
(418,46,ls),
(432,57,o),
(444,52,o),
(444,38,cs),
(444,0,l),
(640,0,l),
(640,750,l),
(444,750,l),
(444,501,ls),
(444,490,o),
(435,490,o),
(428,498,cs),
(394,539,o),
(352,558,o),
(299,558,cs),
(132,558,o),
(40,426,o),
(40,273,cs),
(40,117,o),
(134,-12,o),
(302,-12,cs)
);
},
{
closed = 1;
nodes = (
(271,145,o),
(237,209,o),
(237,273,cs),
(237,338,o),
(271,401,o),
(352,401,cs),
(414,401,o),
(444,361,o),
(444,309,cs),
(444,233,ls),
(444,185,o),
(409,145,o),
(351,145,cs)
);
},
{
closed = 1;
nodes = (
(1207,0,l),
(1207,154,l),
(969,154,ls),
(957,154,o),
(953,163,o),
(965,171,cs),
(1004,198,l),
(1207,407,l),
(1207,546,l),
(747,546,l),
(747,391,l),
(983,391,ls),
(993,391,o),
(1000,383,o),
(987,374,cs),
(948,348,l),
(747,140,l),
(747,0,l)
);
},
{
closed = 1;
nodes = (
(1075,618,l),
(1164,760,l),
(1026,760,l),
(999,722,l),
(986,692,ls),
(983,684,o),
(971,684,o),
(968,692,cs),
(955,722,l),
(928,760,l),
(790,760,l),
(879,618,l)
);
}
);
width = 1239;
},
{
anchors = (
{
name = bottom;
pos = (894,0);
},
{
name = center;
pos = (512,636);
},
{
name = top;
pos = (893,743);
},
{
name = topright;
pos = (671,750);
}
);
background = {
shapes = (
{
ref = d;
},
{
pos = (628,0);
ref = zcaron;
}
);
};
layerId = "A22F00EF-5553-43E5-A27F-95FD0E0BDB40";
shapes = (
{
closed = 1;
nodes = (
(326,-12,o),
(343,-8,o),
(365,-2,c),
(427,46,ls),
(441,56,o),
(453,52,o),
(453,38,cs),
(453,0,l),
(561,0,l),
(561,750,l),
(453,750,l),
(453,487,ls),
(453,478,o),
(444,476,o),
(437,483,cs),
(400,525,o),
(358,548,o),
(296,548,cs),
(110,548,o),
(51,381,o),
(51,268,cs),
(51,155,o),
(119,-12,o),
(298,-12,cs)
);
},
{
closed = 1;
nodes = (
(205,78,o),
(161,181,o),
(161,268,cs),
(161,355,o),
(205,458,o),
(315,458,cs),
(400,458,o),
(453,408,o),
(453,329,cs),
(453,218,ls),
(453,138,o),
(391,78,o),
(315,78,cs)
);
},
{
closed = 1;
nodes = (
(1100,0,l),
(1100,90,l),
(822,90,ls),
(817,90,o),
(804,95,o),
(818,107,cs),
(857,141,l),
(1100,467,l),
(1100,536,l),
(687,536,l),
(687,446,l),
(964,446,ls),
(972,446,o),
(980,440,o),
(968,429,cs),
(931,395,l),
(687,69,l),
(687,0,l)
);
},
{
closed = 1;
nodes = (
(945,618,l),
(1038,760,l),
(950,760,l),
(911,703,l),
(899,673,ls),
(895,665,o),
(889,665,o),
(885,673,cs),
(874,703,l),
(835,760,l),
(747,760,l),
(840,618,l)
);
}
);
width = 1148;
}
);
unicode = 454;
},
{
glyphname = eth;
lastChange = "2026-03-13 10:15:51 +0000";
layers = (
{
layerId = "A5EF4BC6-6509-4D3B-8B47-D449F40BB885";
shapes = (
{
closed = 1;
nodes = (
(454,-12,o),
(561,93,o),
(561,261,cs),
(561,341,o),
(541,407,o),
(485,469,cs),
(230,750,l),
(201,750,l),
(416,517,ls),
(422,510,o),
(415,505,o),
(409,509,cs),
(381,525,l),
(360,531,o),
(337,534,o),
(313,534,cs),
(173,534,o),
(65,430,o),
(65,261,cs),
(65,93,o),
(173,-12,o),
(313,-12,cs)
);
},
{
closed = 1;
nodes = (
(184,10,o),
(89,105,o),
(89,261,cs),
(89,418,o),
(184,512,o),
(313,512,cs),
(442,512,o),
(537,418,o),
(537,261,cs),
(537,105,o),
(442,10,o),
(313,10,cs)
);
},
{
closed = 1;
nodes = (
(434,682,l),
(422,699,l),
(176,612,l),
(187,596,l)
);
}
);
width = 626;
},
{
layerId = "0EDB233F-674C-46BF-8D38-84A6CD2C2EDF";
shapes = (
{
closed = 1;
nodes = (
(558,-12,o),
(660,122,o),
(660,273,cs),
(660,361,o),
(635,427,o),
(569,518,cs),
(402,750,l),
(179,750,l),
(377,530,ls),
(386,520,o),
(375,506,o),
(361,511,cs),
(313,529,l),
(308,530,o),
(302,531,o),
(293,531,cs),
(124,531,o),
(40,412,o),
(40,273,cs),
(40,122,o),
(142,-12,o),
(350,-12,cs)
);
},
{
closed = 1;
nodes = (
(273,150,o),
(237,212,o),
(237,273,cs),
(237,335,o),
(273,396,o),
(350,396,cs),
(428,396,o),
(463,335,o),
(463,273,cs),
(463,212,o),
(428,150,o),
(350,150,cs)
);
},
{
closed = 1;
nodes = (
(583,654,l),
(511,750,l),
(126,670,l),
(209,573,l)
);
}
);
width = 700;
},
{
layerId = "A22F00EF-5553-43E5-A27F-95FD0E0BDB40";
shapes = (
{
closed = 1;
nodes = (
(521,-12,o),
(582,155,o),
(582,268,cs),
(582,346,o),
(560,420,o),
(506,491,cs),
(313,750,l),
(195,750,l),
(364,542,ls),
(372,532,o),
(361,524,o),
(350,529,cs),
(327,540,l),
(320,541,o),
(313,541,o),
(306,541,cs),
(103,541,o),
(51,381,o),
(51,268,cs),
(51,155,o),
(114,-12,o),
(317,-12,cs)
);
},
{
closed = 1;
nodes = (
(198,78,o),
(161,183,o),
(161,268,cs),
(161,353,o),
(198,458,o),
(317,458,cs),
(435,458,o),
(472,353,o),
(472,268,cs),
(472,183,o),
(435,78,o),
(317,78,cs)
);
},
{
closed = 1;
nodes = (
(467,693,l),
(423,750,l),
(168,637,l),
(213,577,l)
);
}
);
width = 633;
}
);
metricLeft = o;
metricRight = o;
unicode = 240;
userData = {
com.schriftgestaltung.Glyphs.leftMetricsKey = six;
com.schriftgestaltung.Glyphs.rightMetricsKey = six;
};
},
{
glyphname = e;
kernLeft = KO_e;
kernRight = KO_e;
lastChange = "2026-03-13 10:15:51 +0000";
layers = (
{
anchors = (
{
name = "abkhasian-hook";
pos = (79,255);
},
{
name = bottom;
pos = (299,0);
},
{
name = ogonek;
pos = (478,49);
},
{
name = top;
pos = (302,522);
}
);
background = {
shapes = (
{
pos = (9,0);
ref = c;
}
);
};
layerId = "A5EF4BC6-6509-4D3B-8B47-D449F40BB885";
shapes = (
{
closed = 1;
nodes = (
(364,-12,o),
(426,4,o),
(478,49,c),
(469,69,l),
(415,23,o),
(368,10,o),
(302,10,cs),
(171,10,o),
(89,95,o),
(89,253,cs),
(89,415,o),
(167,512,o),
(297,512,cs),
(464,512,o),
(492,373,o),
(492,277,c),
(79,277,l),
(79,255,l),
(505,255,l),
(514,277,l),
(510,398,o),
(481,534,o),
(297,534,cs),
(156,534,o),
(65,428,o),
(65,253,cs),
(65,82,o),
(159,-12,o),
(302,-12,cs)
);
}
);
width = 574;
},
{
anchors = (
{
name = "abkhasian-hook";
pos = (144,216);
},
{
name = bottom;
pos = (329,0);
},
{
name = ogonek;
pos = (568,33);
},
{
name = top;
pos = (338,546);
}
);
background = {
shapes = (
{
ref = o;
}
);
};
layerId = "0EDB233F-674C-46BF-8D38-84A6CD2C2EDF";
shapes = (
{
closed = 1;
nodes = (
(423,-11,o),
(505,4,o),
(568,33,c),
(549,167,l),
(490,146,o),
(433,136,o),
(379,136,cs),
(272,136,o),
(218,183,o),
(218,269,cs),
(218,343,o),
(244,408,o),
(336,408,cs),
(397,408,o),
(425,379,o),
(430,333,c),
(142,333,l),
(144,216,l),
(585,216,l),
(602,306,l),
(601,457,o),
(506,558,o),
(336,558,cs),
(134,558,o),
(40,422,o),
(40,269,cs),
(40,115,o),
(134,-11,o),
(358,-11,cs)
);
}
);
width = 637;
},
{
anchors = (
{
name = "abkhasian-hook";
pos = (112,230);
},
{
name = bottom;
pos = (307,0);
},
{
name = ogonek;
pos = (514,55);
},
{
name = top;
pos = (311,548);
}
);
background = {
anchors = (
{
name = bottom;
pos = (270,0);
},
{
name = center;
pos = (270,252);
},
{
name = ogonek;
pos = (341,0);
},
{
name = top;
pos = (270,504);
},
{
name = topright;
pos = (359,504);
}
);
shapes = (
{
pos = (-4,0);
ref = o;
}
);
};
layerId = "A22F00EF-5553-43E5-A27F-95FD0E0BDB40";
shapes = (
{
closed = 1;
nodes = (
(395,-12,o),
(462,9,o),
(514,55,c),
(495,136,l),
(445,96,o),
(381,78,o),
(332,78,cs),
(217,78,o),
(161,135,o),
(161,260,cs),
(161,386,o),
(214,459,o),
(311,459,cs),
(423,459,o),
(445,382,o),
(447,315,c),
(111,315,l),
(112,230,l),
(538,230,l),
(549,282,l),
(549,416,o),
(501,548,o),
(311,548,cs),
(103,548,o),
(51,376,o),
(51,260,cs),
(51,108,o),
(116,-12,o),
(328,-12,cs)
);
}
);
width = 594;
}
);
metricLeft = o;
unicode = 101;
userData = {
com.schriftgestaltung.Glyphs.ColorIndex = 3;
com.schriftgestaltung.Glyphs.layer.leftMetricsKey = "==o";
com.schriftgestaltung.Glyphs.leftMetricsKey = o;
};
},
{
glyphname = ecircumflexdotbelow;
kernLeft = "KO_io-cy";
kernRight = KO_e;
lastChange = "2026-03-13 10:15:51 +0000";
layers = (
{
anchors = (
{
name = "abkhasian-hook";
pos = (79,255);
},
{
name = bottom;
pos = (299,-228);
},
{
name = ogonek;
pos = (478,49);
},
{
name = top;
pos = (302,709);
}
);
layerId = "A5EF4BC6-6509-4D3B-8B47-D449F40BB885";
shapes = (
{
closed = 1;
nodes = (
(311,-228,l),
(311,-110,l),
(287,-110,l),
(287,-228,l)
);
},
{
closed = 1;
nodes = (
(219,618,l),
(282,711,l),
(295,738,ls),
(298,744,o),
(306,744,o),
(309,738,cs),
(322,711,l),
(385,618,l),
(407,618,l),
(315,760,l),
(289,760,l),
(197,618,l)
);
},
{
ref = e;
}
);
width = 574;
},
{
anchors = (
{
name = "abkhasian-hook";
pos = (144,216);
},
{
name = bottom;
pos = (329,-204);
},
{
name = ogonek;
pos = (568,33);
},
{
name = top;
pos = (338,766);
}
);
layerId = "0EDB233F-674C-46BF-8D38-84A6CD2C2EDF";
shapes = (
{
closed = 1;
nodes = (
(437,-204,l),
(437,-72,l),
(220,-72,l),
(220,-204,l)
);
},
{
closed = 1;
nodes = (
(288,618,l),
(315,656,l),
(328,686,ls),
(331,694,o),
(343,694,o),
(346,686,cs),
(359,656,l),
(386,618,l),
(524,618,l),
(435,760,l),
(239,760,l),
(150,618,l)
);
},
{
ref = e;
}
);
width = 637;
},
{
anchors = (
{
name = "abkhasian-hook";
pos = (112,230);
},
{
name = bottom;
pos = (307,-214);
},
{
name = ogonek;
pos = (514,55);
},
{
name = top;
pos = (311,765);
}
);
layerId = "A22F00EF-5553-43E5-A27F-95FD0E0BDB40";
shapes = (
{
closed = 1;
nodes = (
(361,-214,l),
(361,-96,l),
(253,-96,l),
(253,-214,l)
);
},
{
closed = 1;
nodes = (
(253,630,l),
(292,687,l),
(303,717,ls),
(307,725,o),
(313,725,o),
(317,717,cs),
(329,687,l),
(368,630,l),
(456,630,l),
(363,772,l),
(258,772,l),
(165,630,l)
);
},
{
ref = e;
}
);
width = 594;
}
);
unicode = 7879;
},
{
glyphname = ezh;
lastChange = "2026-03-13 10:15:51 +0000";
layers = (
{
anchors = (
{
name = bottom;
pos = (251,0);
},
{
name = top;
pos = (251,522);
}
);
background = {
shapes = (
{
ref = "ze-cy.loclBGR";
}
);
};
layerId = "A5EF4BC6-6509-4D3B-8B47-D449F40BB885";
shapes = (
{
closed = 1;
nodes = (
(350,-210,o),
(464,-138,o),
(464,-5,cs),
(464,126,o),
(354,193,o),
(172,186,c),
(172,177,l),
(461,515,l),
(461,522,l),
(51,522,l),
(51,500,l),
(411,500,ls),
(422,500,o),
(421,494,o),
(415,488,cs),
(376,452,l),
(140,174,l),
(140,164,l),
(201,164,ls),
(353,164,o),
(440,105,o),
(440,-5,cs),
(440,-120,o),
(340,-188,o),
(231,-188,cs),
(155,-188,o),
(93,-168,o),
(48,-130,c),
(38,-151,l),
(99,-194,o),
(148,-210,o),
(231,-210,cs)
);
}
);
width = 514;
},
{
anchors = (
{
name = bottom;
pos = (290,0);
},
{
name = top;
pos = (290,546);
}
);
background = {
shapes = (
{
ref = "ze-cy.loclBGR";
},
{
pos = (-94,0);
ref = g;
}
);
};
layerId = "0EDB233F-674C-46BF-8D38-84A6CD2C2EDF";
shapes = (
{
closed = 1;
nodes = (
(395,-221,o),
(549,-136,o),
(549,37,cs),
(549,172,o),
(446,265,o),
(281,258,c),
(281,177,l),
(515,418,l),
(515,546,l),
(40,546,l),
(40,389,l),
(266,389,ls),
(277,389,o),
(287,376,o),
(273,367,cs),
(248,348,l),
(142,226,l),
(142,108,l),
(230,108,ls),
(340,108,o),
(370,68,o),
(370,20,cs),
(370,-37,o),
(323,-70,o),
(236,-70,cs),
(188,-70,o),
(119,-52,o),
(70,-19,c),
(23,-165,l),
(94,-205,o),
(170,-221,o),
(256,-221,cs)
);
}
);
width = 586;
},
{
anchors = (
{
name = bottom;
pos = (275,0);
},
{
name = top;
pos = (275,536);
}
);
background = {
shapes = (
{
ref = "ze-cy.loclBGR";
}
);
};
layerId = "A22F00EF-5553-43E5-A27F-95FD0E0BDB40";
shapes = (
{
closed = 1;
nodes = (
(359,-219,o),
(495,-153,o),
(495,13,cs),
(495,158,o),
(393,230,o),
(220,233,c),
(243,195,l),
(470,468,l),
(470,536,l),
(45,536,l),
(45,441,l),
(316,441,ls),
(326,441,o),
(331,433,o),
(323,426,cs),
(287,393,l),
(140,199,l),
(140,135,l),
(223,135,ls),
(336,135,o),
(386,89,o),
(386,11,cs),
(386,-66,o),
(331,-124,o),
(238,-124,cs),
(170,-124,o),
(108,-96,o),
(58,-54,c),
(21,-142,l),
(85,-195,o),
(153,-219,o),
(243,-219,cs)
);
}
);
width = 517;
}
);
unicode = 658;
},
{
glyphname = f;
kernLeft = KO_f;
kernRight = KO_f;
lastChange = "2026-03-13 10:15:51 +0000";
layers = (
{
anchors = (
{
name = bottom;
pos = (155,0);
},
{
name = top;
pos = (173,522);
}
);
layerId = "A5EF4BC6-6509-4D3B-8B47-D449F40BB885";
shapes = (
{
closed = 1;
nodes = (
(155,0,l),
(155,500,l),
(307,500,l),
(307,522,l),
(155,522,l),
(155,624,ls),
(155,696,o),
(200,740,o),
(256,740,cs),
(287,740,o),
(306,736,o),
(327,728,c),
(327,750,l),
(306,758,o),
(284,762,o),
(256,762,cs),
(183,759,o),
(131,705,o),
(131,624,cs),
(131,522,l),
(20,522,l),
(20,500,l),
(131,500,l),
(131,0,l)
);
}
);
width = 327;
},
{
anchors = (
{
name = bottom;
pos = (240,0);
},
{
name = top;
pos = (250,546);
}
);
layerId = "0EDB233F-674C-46BF-8D38-84A6CD2C2EDF";
shapes = (
{
closed = 1;
nodes = (
(324,0,l),
(324,386,l),
(450,386,l),
(450,546,l),
(324,546,l),
(324,559,ls),
(324,597,o),
(350,614,o),
(397,614,cs),
(428,614,o),
(448,611,o),
(470,606,c),
(470,750,l),
(441,758,o),
(409,762,o),
(359,762,cs),
(237,762,o),
(126,707,o),
(126,574,cs),
(126,546,l),
(30,546,l),
(30,386,l),
(126,386,l),
(126,0,l)
);
}
);
width = 480;
},
{
anchors = (
{
name = bottom;
pos = (195,0);
},
{
name = top;
pos = (193,536);
}
);
layerId = "A22F00EF-5553-43E5-A27F-95FD0E0BDB40";
shapes = (
{
closed = 1;
nodes = (
(231,0,l),
(231,444,l),
(341,444,l),
(341,536,l),
(231,536,l),
(231,597,ls),
(231,655,o),
(274,675,o),
(306,675,cs),
(326,675,o),
(346,671,o),
(361,665,c),
(361,750,l),
(337,759,o),
(312,763,o),
(283,763,cs),
(210,763,o),
(125,715,o),
(125,596,cs),
(125,536,l),
(25,536,l),
(25,444,l),
(125,444,l),
(125,0,l)
);
}
);
width = 366;
}
);
metricLeft = "=t";
unicode = 102;
userData = {
KernOnName = f;
com.schriftgestaltung.Glyphs.ColorIndex = 3;
};
},
{
glyphname = gstroke;
lastChange = "2026-03-13 10:15:51 +0000";
layers = (
{
anchors = (
{
name = ascender;
pos = (546,444);
},
{
name = bottom;
pos = (301,-212);
},
{
name = descender;
pos = (546,0);
},
{
name = top;
pos = (337,522);
}
);
background = {
anchors = (
{
name = _center;
pos = (434,9);
},
{
name = bottom;
pos = (277,0);
},
{
name = top;
pos = (277,510);
}
);
shapes = (
{
ref = g;
}
);
};
layerId = "A5EF4BC6-6509-4D3B-8B47-D449F40BB885";
shapes = (
{
closed = 1;
nodes = (
(426,-210,o),
(546,-166,o),
(546,0,cs),
(546,524,l),
(522,524,l),
(522,440,ls),
(522,433,o),
(516,429,o),
(511,439,cs),
(489,483,o),
(421,534,o),
(320,534,cs),
(175,534,o),
(65,443,o),
(65,302,cs),
(65,162,o),
(175,70,o),
(320,70,cs),
(386,70,o),
(430,86,o),
(464,107,c),
(511,153,ls),
(516,158,o),
(522,156,o),
(522,150,cs),
(522,0,ls),
(522,-151,o),
(416,-188,o),
(322,-188,cs),
(248,-188,o),
(192,-173,o),
(147,-147,c),
(147,-168,l),
(191,-194,o),
(250,-210,o),
(322,-210,cs)
);
},
{
closed = 1;
nodes = (
(610,-17,l),
(610,5,l),
(356,5,l),
(356,-17,l)
);
},
{
closed = 1;
nodes = (
(187,91,o),
(89,171,o),
(89,302,cs),
(89,433,o),
(187,513,o),
(320,513,cs),
(444,513,o),
(522,439,o),
(522,358,cs),
(522,247,ls),
(522,165,o),
(444,91,o),
(320,91,cs)
);
}
);
width = 640;
},
{
anchors = (
{
name = ascender;
pos = (647,468);
},
{
name = bottom;
pos = (341,-213);
},
{
name = descender;
pos = (647,-61);
},
{
name = top;
pos = (368,546);
}
);
background = {
shapes = (
{
ref = g;
}
);
};
layerId = "0EDB233F-674C-46BF-8D38-84A6CD2C2EDF";
shapes = (
{
closed = 1;
nodes = (
(524,-233,o),
(647,-174,o),
(647,-12,cs),
(647,546,l),
(451,546,l),
(451,500,ls),
(451,490,o),
(442,491,o),
(435,498,cs),
(397,539,o),
(359,558,o),
(306,558,cs),
(139,558,o),
(40,447,o),
(40,312,cs),
(40,173,o),
(141,68,o),
(309,68,cs),
(327,68,o),
(344,69,o),
(359,70,c),
(425,114,ls),
(440,124,o),
(451,118,o),
(451,106,cs),
(451,-12,ls),
(451,-69,o),
(392,-87,o),
(323,-87,cs),
(253,-87,o),
(187,-73,o),
(116,-26,c),
(116,-179,l),
(170,-216,o),
(243,-233,o),
(332,-233,cs)
);
},
{
closed = 1;
nodes = (
(696,-48,l),
(696,47,l),
(320,47,l),
(320,-48,l)
);
},
{
closed = 1;
nodes = (
(277,229,o),
(237,269,o),
(237,312,cs),
(237,356,o),
(277,394,o),
(356,394,cs),
(420,394,o),
(451,368,o),
(451,335,cs),
(451,284,ls),
(451,254,o),
(415,229,o),
(355,229,cs)
);
}
);
width = 706;
},
{
anchors = (
{
name = ascender;
pos = (561,457);
},
{
name = bottom;
pos = (321,-213);
},
{
name = descender;
pos = (561,-10);
},
{
name = top;
pos = (343,536);
}
);
background = {
shapes = (
{
ref = g;
}
);
};
layerId = "A22F00EF-5553-43E5-A27F-95FD0E0BDB40";
shapes = (
{
closed = 1;
nodes = (
(411,-215,o),
(561,-174,o),
(561,1,cs),
(561,536,l),
(453,536,l),
(453,494,ls),
(453,486,o),
(444,484,o),
(437,491,cs),
(398,528,o),
(356,547,o),
(296,547,cs),
(110,547,o),
(51,411,o),
(51,308,cs),
(51,204,o),
(119,69,o),
(298,69,cs),
(325,69,o),
(342,72,o),
(365,77,c),
(433,122,ls),
(448,132,o),
(453,122,o),
(453,111,cs),
(453,1,ls),
(453,-104,o),
(375,-124,o),
(310,-124,cs),
(218,-124,o),
(167,-112,o),
(101,-72,c),
(101,-170,l),
(169,-203,o),
(223,-215,o),
(311,-215,cs)
);
},
{
closed = 1;
nodes = (
(636,-49,l),
(636,30,l),
(287,30,l),
(287,-49,l)
);
},
{
closed = 1;
nodes = (
(205,159,o),
(161,238,o),
(161,308,cs),
(161,378,o),
(205,457,o),
(315,457,cs),
(400,457,o),
(453,416,o),
(453,355,cs),
(453,267,ls),
(453,206,o),
(391,159,o),
(315,159,cs)
);
}
);
width = 656;
}
);
unicode = 485;
},
{
glyphname = hbar;
kernRight = KO_hbar;
lastChange = "2026-03-13 10:15:51 +0000";
layers = (
{
background = {
anchors = (
{
name = ascender;
pos = (93,522);
},
{
name = bottom;
pos = (294,0);
},
{
name = bottomright;
pos = (484,0);
},
{
name = center;
pos = (107,633);
},
{
name = part.hook;
pos = (93,0);
},
{
name = top;
pos = (304,704);
}
);
shapes = (
{
closed = 1;
nodes = (
(117,0,l),
(117,329,ls),
(117,451,o),
(203,512,o),
(293,512,cs),
(385,512,o),
(460,455,o),
(460,339,cs),
(460,0,l),
(484,0,l),
(484,339,ls),
(484,471,o),
(396,534,o),
(294,534,cs),
(224,534,o),
(152,497,o),
(127,427,cs),
(124,419,o),
(117,422,o),
(117,429,cs),
(117,522,l),
(93,522,l),
(93,0,l)
);
},
{
closed = 1;
nodes = (
(117,522,l),
(117,750,l),
(93,750,l),
(93,522,l)
);
},
{
closed = 1;
nodes = (
(232,623,l),
(232,643,l),
(-20,643,l),
(-20,623,l)
);
}
);
};
layerId = "A5EF4BC6-6509-4D3B-8B47-D449F40BB885";
shapes = (
{
closed = 1;
nodes = (
(117,0,l),
(117,329,ls),
(117,451,o),
(203,512,o),
(293,512,cs),
(385,512,o),
(460,455,o),
(460,339,cs),
(460,0,l),
(484,0,l),
(484,339,ls),
(484,471,o),
(396,534,o),
(294,534,cs),
(224,534,o),
(152,497,o),
(127,427,cs),
(124,419,o),
(117,422,o),
(117,429,cs),
(117,522,l),
(93,522,l),
(93,0,l)
);
},
{
closed = 1;
nodes = (
(117,522,l),
(117,750,l),
(93,750,l),
(93,522,l)
);
},
{
closed = 1;
nodes = (
(232,623,l),
(232,643,l),
(-20,643,l),
(-20,623,l)
);
}
);
width = 572;
},
{
background = {
anchors = (
{
name = ascender;
pos = (66,546);
},
{
name = bottom;
pos = (342,0);
},
{
name = bottomright;
pos = (615,0);
},
{
name = center;
pos = (188,641);
},
{
name = part.hook;
pos = (66,0);
},
{
name = top;
pos = (384,728);
}
);
shapes = (
{
closed = 1;
nodes = (
(262,0,l),
(262,320,ls),
(262,366,o),
(301,389,o),
(338,389,cs),
(378,389,o),
(419,367,o),
(419,320,cs),
(419,0,l),
(615,0,l),
(615,361,ls),
(615,496,o),
(513,558,o),
(416,558,cs),
(335,558,o),
(311,529,o),
(278,494,cs),
(272,488,o),
(262,492,o),
(262,500,cs),
(262,546,l),
(66,546,l),
(66,0,l)
);
},
{
closed = 1;
nodes = (
(262,546,l),
(262,750,l),
(66,750,l),
(66,546,l)
);
},
{
closed = 1;
nodes = (
(375,567,l),
(375,706,l),
(2,706,l),
(2,567,l)
);
}
);
};
layerId = "0EDB233F-674C-46BF-8D38-84A6CD2C2EDF";
shapes = (
{
closed = 1;
nodes = (
(262,0,l),
(262,320,ls),
(262,366,o),
(301,389,o),
(338,389,cs),
(378,389,o),
(419,367,o),
(419,320,cs),
(419,0,l),
(615,0,l),
(615,361,ls),
(615,496,o),
(513,558,o),
(416,558,cs),
(335,558,o),
(311,529,o),
(278,494,cs),
(272,488,o),
(262,492,o),
(262,500,cs),
(262,546,l),
(66,546,l),
(66,0,l)
);
},
{
closed = 1;
nodes = (
(262,546,l),
(262,750,l),
(66,750,l),
(66,546,l)
);
},
{
closed = 1;
nodes = (
(375,567,l),
(375,706,l),
(2,706,l),
(2,567,l)
);
}
);
width = 676;
},
{
background = {
anchors = (
{
name = ascender;
pos = (78,536);
},
{
name = bottom;
pos = (302,0);
},
{
name = bottomright;
pos = (527,0);
},
{
name = center;
pos = (137,636);
},
{
name = part.hook;
pos = (78,0);
},
{
name = top;
pos = (329,718);
}
);
shapes = (
{
closed = 1;
nodes = (
(186,0,l),
(186,337,ls),
(186,407,o),
(237,453,o),
(309,453,cs),
(373,453,o),
(419,404,o),
(419,337,cs),
(419,0,l),
(527,0,l),
(527,345,ls),
(527,483,o),
(432,548,o),
(340,548,cs),
(275,548,o),
(236,521,o),
(201,482,cs),
(196,476,o),
(186,479,o),
(186,487,cs),
(186,536,l),
(78,536,l),
(78,0,l)
);
},
{
closed = 1;
nodes = (
(186,536,l),
(186,750,l),
(78,750,l),
(78,536,l)
);
},
{
closed = 1;
nodes = (
(292,591,l),
(292,681,l),
(-19,681,l),
(-19,591,l)
);
}
);
};
layerId = "A22F00EF-5553-43E5-A27F-95FD0E0BDB40";
shapes = (
{
closed = 1;
nodes = (
(186,0,l),
(186,337,ls),
(186,407,o),
(237,453,o),
(309,453,cs),
(373,453,o),
(419,404,o),
(419,337,cs),
(419,0,l),
(527,0,l),
(527,345,ls),
(527,483,o),
(432,548,o),
(340,548,cs),
(275,548,o),
(236,521,o),
(201,482,cs),
(196,476,o),
(186,479,o),
(186,487,cs),
(186,536,l),
(78,536,l),
(78,0,l)
);
},
{
closed = 1;
nodes = (
(186,536,l),
(186,750,l),
(78,750,l),
(78,536,l)
);
},
{
closed = 1;
nodes = (
(292,591,l),
(292,681,l),
(-19,681,l),
(-19,591,l)
);
}
);
width = 600;
},
{
associatedMasterId = "A5EF4BC6-6509-4D3B-8B47-D449F40BB885";
background = {
shapes = (
{
closed = 1;
nodes = (
(2302,597,l),
(2302,619,l),
(2050,619,l),
(2050,597,l)
);
},
{
closed = 1;
nodes = (
(2186,0,l),
(2186,329,ls),
(2186,451,o),
(2272,512,o),
(2362,512,cs),
(2454,512,o),
(2529,455,o),
(2529,339,cs),
(2529,0,l),
(2553,0,l),
(2553,339,ls),
(2553,471,o),
(2465,534,o),
(2363,534,cs),
(2293,534,o),
(2221,497,o),
(2196,427,cs),
(2193,419,o),
(2186,422,o),
(2186,429,cs),
(2186,522,l),
(2162,522,l),
(2162,0,l)
);
},
{
closed = 1;
nodes = (
(2186,522,l),
(2186,750,l),
(2162,750,l),
(2162,522,l)
);
}
);
};
layerId = "DDAD9D8D-C3B2-40ED-A907-D91220B62CC5";
name = "12 Mar 26 at 16:02";
shapes = (
{
ref = h;
},
{
pos = (-70,382);
ref = _part.stroke;
}
);
width = 572;
},
{
associatedMasterId = "A22F00EF-5553-43E5-A27F-95FD0E0BDB40";
background = {
shapes = (
{
closed = 1;
nodes = (
(2367,587,l),
(2367,677,l),
(2056,677,l),
(2056,587,l)
);
},
{
closed = 1;
nodes = (
(2268,0,l),
(2268,337,ls),
(2268,407,o),
(2319,453,o),
(2391,453,cs),
(2455,453,o),
(2501,404,o),
(2501,337,cs),
(2501,0,l),
(2609,0,l),
(2609,345,ls),
(2609,483,o),
(2514,548,o),
(2422,548,cs),
(2357,548,o),
(2318,521,o),
(2283,482,cs),
(2278,476,o),
(2268,479,o),
(2268,487,cs),
(2268,536,l),
(2160,536,l),
(2160,0,l)
);
},
{
closed = 1;
nodes = (
(2268,536,l),
(2268,750,l),
(2160,750,l),
(2160,536,l)
);
}
);
};
layerId = "B5A9B1BA-6923-4C29-9365-B1CEED5ED592";
name = "12 Mar 26 at 16:02";
shapes = (
{
ref = h;
},
{
pos = (-69,371);
ref = _part.stroke;
}
);
width = 600;
},
{
associatedMasterId = "0EDB233F-674C-46BF-8D38-84A6CD2C2EDF";
background = {
shapes = (
{
closed = 1;
nodes = (
(1588,571,l),
(1588,705,l),
(1215,705,l),
(1215,571,l)
);
},
{
closed = 1;
nodes = (
(1490,0,l),
(1490,320,ls),
(1490,366,o),
(1529,389,o),
(1566,389,cs),
(1606,389,o),
(1647,367,o),
(1647,320,cs),
(1647,0,l),
(1843,0,l),
(1843,361,ls),
(1843,496,o),
(1741,558,o),
(1644,558,cs),
(1563,558,o),
(1539,529,o),
(1506,494,cs),
(1500,488,o),
(1490,492,o),
(1490,500,cs),
(1490,546,l),
(1294,546,l),
(1294,0,l)
);
},
{
closed = 1;
nodes = (
(1490,546,l),
(1490,750,l),
(1294,750,l),
(1294,546,l)
);
}
);
};
layerId = "A9CA3822-869E-44BC-8DC0-CE09D68514C4";
name = "12 Mar 26 at 16:02";
shapes = (
{
ref = h;
},
{
pos = (-48,389);
ref = _part.stroke;
scale = (1,0.9);
}
);
width = 676;
}
);
metricLeft = t;
metricRight = h;
unicode = 295;
},
{
glyphname = idotless;
kernLeft = KO_i;
kernRight = "KO_en-cy";
lastChange = "2026-03-13 10:15:51 +0000";
layers = (
{
anchors = (
{
name = bottom;
pos = (105,0);
},
{
name = center;
pos = (105,261);
},
{
name = ogonek;
pos = (117,0);
},
{
name = top;
pos = (105,522);
}
);
layerId = "A5EF4BC6-6509-4D3B-8B47-D449F40BB885";
shapes = (
{
closed = 1;
nodes = (
(117,0,l),
(117,522,l),
(93,522,l),
(93,0,l)
);
}
);
width = 210;
},
{
anchors = (
{
name = bottom;
pos = (164,0);
},
{
name = center;
pos = (164,273);
},
{
name = ogonek;
pos = (262,0);
},
{
name = top;
pos = (164,546);
}
);
layerId = "0EDB233F-674C-46BF-8D38-84A6CD2C2EDF";
shapes = (
{
closed = 1;
nodes = (
(262,0,l),
(262,546,l),
(66,546,l),
(66,0,l)
);
}
);
width = 328;
},
{
anchors = (
{
name = bottom;
pos = (132,0);
},
{
name = center;
pos = (132,268);
},
{
name = ogonek;
pos = (186,0);
},
{
name = top;
pos = (132,536);
}
);
layerId = "A22F00EF-5553-43E5-A27F-95FD0E0BDB40";
shapes = (
{
closed = 1;
nodes = (
(186,0,l),
(186,536,l),
(78,536,l),
(78,0,l)
);
}
);
width = 264;
}
);
metricRight = "=|n";
unicode = 305;
userData = {
KernOnName = idotless;
};
},
{
color = 9;
glyphname = icaron.ss01;
lastChange = "2026-03-13 10:15:51 +0000";
layers = (
{
anchors = (
{
name = bottom;
pos = (105,0);
},
{
name = center;
pos = (105,261);
},
{
name = ogonek;
pos = (117,0);
},
{
name = top;
pos = (105,679);
}
);
layerId = "A5EF4BC6-6509-4D3B-8B47-D449F40BB885";
shapes = (
{
closed = 1;
nodes = (
(117,0,l),
(117,522,l),
(93,522,l),
(93,0,l)
);
},
{
closed = 1;
nodes = (
(116,618,l),
(208,760,l),
(186,760,l),
(123,667,l),
(110,640,ls),
(107,634,o),
(99,634,o),
(96,640,cs),
(83,667,l),
(21,760,l),
(-2,760,l),
(90,618,l)
);
}
);
width = 210;
},
{
anchors = (
{
name = bottom;
pos = (132,0);
},
{
name = center;
pos = (132,268);
},
{
name = ogonek;
pos = (186,0);
},
{
name = top;
pos = (132,743);
}
);
layerId = "A22F00EF-5553-43E5-A27F-95FD0E0BDB40";
shapes = (
{
closed = 1;
nodes = (
(186,0,l),
(186,536,l),
(78,536,l),
(78,0,l)
);
},
{
closed = 1;
nodes = (
(184,618,l),
(277,760,l),
(189,760,l),
(150,703,l),
(138,673,ls),
(134,665,o),
(128,665,o),
(124,673,cs),
(113,703,l),
(74,760,l),
(-14,760,l),
(79,618,l)
);
}
);
width = 264;
},
{
anchors = (
{
name = bottom;
pos = (164,0);
},
{
name = center;
pos = (164,273);
},
{
name = ogonek;
pos = (262,0);
},
{
name = top;
pos = (164,760);
}
);
layerId = "0EDB233F-674C-46BF-8D38-84A6CD2C2EDF";
shapes = (
{
closed = 1;
nodes = (
(262,0,l),
(262,546,l),
(66,546,l),
(66,0,l)
);
},
{
closed = 1;
nodes = (
(262,618,l),
(351,760,l),
(213,760,l),
(186,722,l),
(173,692,ls),
(170,684,o),
(158,684,o),
(155,692,cs),
(142,722,l),
(115,760,l),
(-23,760,l),
(66,618,l)
);
}
);
width = 328;
}
);
},
{
color = 2;
glyphname = idotbelow;
kernLeft = KO_i;
kernRight = KO_i;
lastChange = "2026-03-13 10:15:51 +0000";
layers = (
{
anchors = (
{
name = bottom;
pos = (105,-228);
},
{
name = center;
pos = (105,261);
},
{
name = ogonek;
pos = (117,0);
},
{
name = top;
pos = (105,703);
}
);
layerId = "A5EF4BC6-6509-4D3B-8B47-D449F40BB885";
shapes = (
{
closed = 1;
nodes = (
(117,632,l),
(117,750,l),
(93,750,l),
(93,632,l)
);
},
{
closed = 1;
nodes = (
(117,-228,l),
(117,-110,l),
(93,-110,l),
(93,-228,l)
);
},
{
ref = idotless;
}
);
width = 210;
},
{
anchors = (
{
name = bottom;
pos = (164,-204);
},
{
name = center;
pos = (164,273);
},
{
name = ogonek;
pos = (262,0);
},
{
name = top;
pos = (164,753);
}
);
layerId = "0EDB233F-674C-46BF-8D38-84A6CD2C2EDF";
shapes = (
{
closed = 1;
nodes = (
(273,618,l),
(273,750,l),
(56,750,l),
(56,618,l)
);
},
{
closed = 1;
nodes = (
(272,-204,l),
(272,-72,l),
(55,-72,l),
(55,-204,l)
);
},
{
ref = idotless;
}
);
width = 328;
},
{
anchors = (
{
name = bottom;
pos = (132,-214);
},
{
name = center;
pos = (132,268);
},
{
name = ogonek;
pos = (186,0);
},
{
name = top;
pos = (132,750);
}
);
layerId = "A22F00EF-5553-43E5-A27F-95FD0E0BDB40";
shapes = (
{
closed = 1;
nodes = (
(186,632,l),
(186,750,l),
(78,750,l),
(78,632,l)
);
},
{
closed = 1;
nodes = (
(186,-214,l),
(186,-96,l),
(78,-96,l),
(78,-214,l)
);
},
{
ref = idotless;
}
);
width = 264;
}
);
unicode = 7883;
},
{
color = 2;
glyphname = idotbelow.ss01;
kernLeft = KO_i.ss01;
lastChange = "2026-03-13 10:15:51 +0000";
layers = (
{
anchors = (
{
name = bottom;
pos = (105,-228);
},
{
name = center;
pos = (105,261);
},
{
name = ogonek;
pos = (117,0);
},
{
name = top;
pos = (105,703);
}
);
layerId = "A5EF4BC6-6509-4D3B-8B47-D449F40BB885";
shapes = (
{
closed = 1;
nodes = (
(117,632,l),
(117,750,l),
(93,750,l),
(93,632,l)
);
},
{
closed = 1;
nodes = (
(117,-228,l),
(117,-110,l),
(93,-110,l),
(93,-228,l)
);
},
{
ref = idotless;
}
);
width = 210;
},
{
anchors = (
{
name = bottom;
pos = (132,-214);
},
{
name = center;
pos = (132,268);
},
{
name = ogonek;
pos = (186,0);
},
{
name = top;
pos = (132,750);
}
);
layerId = "A22F00EF-5553-43E5-A27F-95FD0E0BDB40";
shapes = (
{
closed = 1;
nodes = (
(186,632,l),
(186,750,l),
(78,750,l),
(78,632,l)
);
},
{
closed = 1;
nodes = (
(186,-214,l),
(186,-96,l),
(78,-96,l),
(78,-214,l)
);
},
{
ref = idotless;
}
);
width = 264;
},
{
anchors = (
{
name = bottom;
pos = (164,-204);
},
{
name = center;
pos = (164,273);
},
{
name = ogonek;
pos = (262,0);
},
{
name = top;
pos = (164,753);
}
);
layerId = "0EDB233F-674C-46BF-8D38-84A6CD2C2EDF";
shapes = (
{
closed = 1;
nodes = (
(273,618,l),
(273,750,l),
(56,750,l),
(56,618,l)
);
},
{
closed = 1;
nodes = (
(272,-204,l),
(272,-72,l),
(55,-72,l),
(55,-204,l)
);
},
{
ref = idotless;
}
);
width = 328;
}
);
},
{
color = 2;
glyphname = istroke;
lastChange = "2026-03-13 10:15:51 +0000";
layers = (
{
background = {
anchors = (
{
name = bottom;
pos = (105,0);
},
{
name = center;
pos = (105,261);
},
{
name = ogonek;
pos = (117,0);
},
{
name = top;
pos = (105,703);
}
);
shapes = (
{
closed = 1;
nodes = (
(117,0,l),
(117,522,l),
(93,522,l),
(93,0,l)
);
},
{
closed = 1;
nodes = (
(117,632,l),
(117,750,l),
(93,750,l),
(93,632,l)
);
},
{
closed = 1;
nodes = (
(230,251,l),
(230,271,l),
(-22,271,l),
(-22,251,l)
);
}
);
};
layerId = "A5EF4BC6-6509-4D3B-8B47-D449F40BB885";
shapes = (
{
closed = 1;
nodes = (
(117,0,l),
(117,522,l),
(93,522,l),
(93,0,l)
);
},
{
closed = 1;
nodes = (
(117,632,l),
(117,750,l),
(93,750,l),
(93,632,l)
);
},
{
closed = 1;
nodes = (
(230,251,l),
(230,271,l),
(-22,271,l),
(-22,251,l)
);
}
);
width = 210;
},
{
background = {
anchors = (
{
name = bottom;
pos = (164,0);
},
{
name = center;
pos = (164,273);
},
{
name = ogonek;
pos = (262,0);
},
{
name = top;
pos = (164,753);
}
);
shapes = (
{
closed = 1;
nodes = (
(262,0,l),
(262,546,l),
(66,546,l),
(66,0,l)
);
},
{
closed = 1;
nodes = (
(273,618,l),
(273,750,l),
(56,750,l),
(56,618,l)
);
},
{
closed = 1;
nodes = (
(351,191,l),
(351,345,l),
(-22,345,l),
(-22,191,l)
);
}
);
};
layerId = "0EDB233F-674C-46BF-8D38-84A6CD2C2EDF";
shapes = (
{
closed = 1;
nodes = (
(262,0,l),
(262,546,l),
(66,546,l),
(66,0,l)
);
},
{
closed = 1;
nodes = (
(273,618,l),
(273,750,l),
(56,750,l),
(56,618,l)
);
},
{
closed = 1;
nodes = (
(351,191,l),
(351,345,l),
(-22,345,l),
(-22,191,l)
);
}
);
width = 328;
},
{
background = {
anchors = (
{
name = bottom;
pos = (132,0);
},
{
name = center;
pos = (132,268);
},
{
name = ogonek;
pos = (186,0);
},
{
name = top;
pos = (132,750);
}
);
shapes = (
{
closed = 1;
nodes = (
(186,0,l),
(186,536,l),
(78,536,l),
(78,0,l)
);
},
{
closed = 1;
nodes = (
(186,632,l),
(186,750,l),
(78,750,l),
(78,632,l)
);
},
{
closed = 1;
nodes = (
(287,223,l),
(287,313,l),
(-24,313,l),
(-24,223,l)
);
}
);
};
layerId = "A22F00EF-5553-43E5-A27F-95FD0E0BDB40";
shapes = (
{
closed = 1;
nodes = (
(186,0,l),
(186,536,l),
(78,536,l),
(78,0,l)
);
},
{
closed = 1;
nodes = (
(186,632,l),
(186,750,l),
(78,750,l),
(78,632,l)
);
},
{
closed = 1;
nodes = (
(287,223,l),
(287,313,l),
(-24,313,l),
(-24,223,l)
);
}
);
width = 264;
},
{
associatedMasterId = "A5EF4BC6-6509-4D3B-8B47-D449F40BB885";
layerId = "F2317331-641F-42D1-9A16-DC71E06BAE9F";
name = "12 Mar 26 at 16:02";
shapes = (
{
ref = i;
},
{
pos = (-72,10);
ref = _part.stroke;
}
);
width = 210;
},
{
associatedMasterId = "A22F00EF-5553-43E5-A27F-95FD0E0BDB40";
layerId = "360B912D-8999-4691-940C-2A5620C732F9";
name = "12 Mar 26 at 16:02";
shapes = (
{
ref = i;
},
{
pos = (-74,3);
ref = _part.stroke;
}
);
width = 264;
},
{
associatedMasterId = "0EDB233F-674C-46BF-8D38-84A6CD2C2EDF";
layerId = "D0396C11-183C-4A60-8E1D-E5B7F7C06890";
name = "12 Mar 26 at 16:02";
shapes = (
{
ref = i;
},
{
pos = (-72,-7);
ref = _part.stroke;
}
);
width = 328;
}
);
unicode = 616;
},
{
glyphname = ij;
kernLeft = KO_i;
lastChange = "2026-03-13 10:15:51 +0000";
layers = (
{
anchors = (
{
name = bottom;
pos = (307,-250);
},
{
name = center;
pos = (105,261);
},
{
name = ogonek;
pos = (117,0);
},
{
name = top;
pos = (315,703);
}
);
layerId = "A5EF4BC6-6509-4D3B-8B47-D449F40BB885";
shapes = (
{
closed = 1;
nodes = (
(117,0,l),
(117,522,l),
(93,522,l),
(93,0,l)
);
},
{
closed = 1;
nodes = (
(117,632,l),
(117,750,l),
(93,750,l),
(93,632,l)
);
},
{
closed = 1;
nodes = (
(301,-176,o),
(327,-115,o),
(327,1,cs),
(327,522,l),
(303,522,l),
(303,1,l),
(303,-105,o),
(281,-161,o),
(212,-197,c),
(224,-215,l)
);
},
{
closed = 1;
nodes = (
(327,632,l),
(327,750,l),
(303,750,l),
(303,632,l)
);
}
);
width = 420;
},
{
anchors = (
{
name = bottom;
pos = (507,-250);
},
{
name = center;
pos = (164,273);
},
{
name = ogonek;
pos = (262,0);
},
{
name = top;
pos = (496,753);
}
);
layerId = "0EDB233F-674C-46BF-8D38-84A6CD2C2EDF";
shapes = (
{
closed = 1;
nodes = (
(262,0,l),
(262,546,l),
(66,546,l),
(66,0,l)
);
},
{
closed = 1;
nodes = (
(273,618,l),
(273,750,l),
(56,750,l),
(56,618,l)
);
},
{
closed = 1;
nodes = (
(468,-222,o),
(594,-164,o),
(594,28,cs),
(594,546,l),
(398,546,l),
(398,28,ls),
(398,-16,o),
(373,-43,o),
(336,-49,c),
(379,-222,l)
);
},
{
closed = 1;
nodes = (
(605,618,l),
(605,750,l),
(388,750,l),
(388,618,l)
);
}
);
width = 660;
},
{
anchors = (
{
name = bottom;
pos = (411,-250);
},
{
name = center;
pos = (132,268);
},
{
name = ogonek;
pos = (186,0);
},
{
name = top;
pos = (412,750);
}
);
layerId = "A22F00EF-5553-43E5-A27F-95FD0E0BDB40";
shapes = (
{
closed = 1;
nodes = (
(186,0,l),
(186,536,l),
(78,536,l),
(78,0,l)
);
},
{
closed = 1;
nodes = (
(186,632,l),
(186,750,l),
(78,750,l),
(78,632,l)
);
},
{
closed = 1;
nodes = (
(388,-199,o),
(466,-132,o),
(466,9,cs),
(466,536,l),
(358,536,l),
(358,6,ls),
(358,-70,o),
(321,-113,o),
(264,-129,c),
(294,-222,l)
);
},
{
closed = 1;
nodes = (
(466,632,l),
(466,750,l),
(358,750,l),
(358,632,l)
);
}
);
width = 544;
}
);
unicode = 307;
},
{
glyphname = jdotless;
lastChange = "2026-03-13 10:15:51 +0000";
layers = (
{
anchors = (
{
name = bottom;
pos = (97,-250);
},
{
name = top;
pos = (105,522);
}
);
background = {
shapes = (
{
ref = idotless;
}
);
};
layerId = "A5EF4BC6-6509-4D3B-8B47-D449F40BB885";
shapes = (
{
closed = 1;
nodes = (
(91,-176,o),
(117,-115,o),
(117,1,cs),
(117,522,l),
(93,522,l),
(93,1,l),
(93,-105,o),
(71,-161,o),
(2,-197,c),
(14,-215,l)
);
}
);
width = 210;
},
{
anchors = (
{
name = bottom;
pos = (175,-250);
},
{
name = top;
pos = (164,546);
}
);
background = {
shapes = (
{
ref = idotless;
}
);
};
layerId = "0EDB233F-674C-46BF-8D38-84A6CD2C2EDF";
shapes = (
{
closed = 1;
nodes = (
(136,-222,o),
(262,-164,o),
(262,28,cs),
(262,546,l),
(66,546,l),
(66,28,ls),
(66,-16,o),
(41,-43,o),
(4,-49,c),
(47,-222,l)
);
}
);
width = 328;
},
{
anchors = (
{
name = bottom;
pos = (145,-250);
},
{
name = top;
pos = (146,536);
}
);
background = {
shapes = (
{
pos = (14,0);
ref = idotless;
}
);
};
layerId = "A22F00EF-5553-43E5-A27F-95FD0E0BDB40";
shapes = (
{
closed = 1;
nodes = (
(122,-199,o),
(200,-132,o),
(200,9,cs),
(200,536,l),
(92,536,l),
(92,6,ls),
(92,-70,o),
(55,-113,o),
(-2,-129,c),
(28,-222,l)
);
}
);
width = 278;
}
);
metricRight = idotless;
unicode = 567;
},
{
glyphname = k;
kernLeft = KO_h;
kernRight = KO_k;
lastChange = "2026-03-13 10:15:51 +0000";
layers = (
{
anchors = (
{
name = bottom;
pos = (242,0);
},
{
name = center;
pos = (108,608);
},
{
name = top;
pos = (249,704);
}
);
background = {
anchors = (
{
name = bottom;
pos = (231,0);
},
{
name = top;
pos = (250,670);
}
);
shapes = (
{
closed = 1;
nodes = (
(170,0,l),
(170,249,l),
(244,249,l),
(393,0,l),
(513,0,l),
(325,314,l),
(493,536,l),
(371,536,l),
(226,343,l),
(170,343,l),
(170,750,l),
(63,750,l),
(63,0,l)
);
}
);
};
layerId = "A5EF4BC6-6509-4D3B-8B47-D449F40BB885";
shapes = (
{
closed = 1;
nodes = (
(118,0,l),
(118,284,l),
(230,284,l),
(445,0,l),
(475,0,l),
(249,297,l),
(445,522,l),
(414,522,l),
(229,308,l),
(118,308,l),
(118,750,l),
(93,750,l),
(93,0,l)
);
}
);
width = 500;
},
{
anchors = (
{
name = bottom;
pos = (325,0);
},
{
name = center;
pos = (176,633);
},
{
name = top;
pos = (354,728);
}
);
layerId = "0EDB233F-674C-46BF-8D38-84A6CD2C2EDF";
shapes = (
{
closed = 1;
nodes = (
(262,0,l),
(262,222,l),
(311,222,l),
(413,0,l),
(622,0,l),
(471,315,l),
(599,546,l),
(392,546,l),
(304,382,l),
(262,382,l),
(262,750,l),
(66,750,l),
(66,0,l)
);
}
);
width = 644;
},
{
anchors = (
{
name = bottom;
pos = (279,0);
},
{
name = center;
pos = (133,632);
},
{
name = top;
pos = (290,718);
}
);
layerId = "A22F00EF-5553-43E5-A27F-95FD0E0BDB40";
shapes = (
{
closed = 1;
nodes = (
(186,0,l),
(186,249,l),
(260,249,l),
(409,0,l),
(529,0,l),
(341,314,l),
(509,536,l),
(387,536,l),
(242,343,l),
(186,343,l),
(186,750,l),
(78,750,l),
(78,0,l)
);
}
);
width = 554;
}
);
metricLeft = h;
unicode = 107;
userData = {
KernOnName = k;
com.schriftgestaltung.Glyphs.ColorIndex = 3;
com.schriftgestaltung.Glyphs.layer.leftMetricsKey = "==n";
com.schriftgestaltung.Glyphs.leftMetricsKey = n;
};
},
{
glyphname = kgreenlandic;
lastChange = "2026-03-13 10:15:51 +0000";
layers = (
{
background = {
shapes = (
{
ref = k;
}
);
};
layerId = "A5EF4BC6-6509-4D3B-8B47-D449F40BB885";
shapes = (
{
closed = 1;
nodes = (
(118,0,l),
(118,284,l),
(230,284,l),
(445,0,l),
(475,0,l),
(249,297,l),
(445,522,l),
(414,522,l),
(229,308,l),
(118,308,l),
(118,522,l),
(93,522,l),
(93,0,l)
);
}
);
width = 500;
},
{
background = {
shapes = (
{
ref = k;
}
);
};
layerId = "0EDB233F-674C-46BF-8D38-84A6CD2C2EDF";
shapes = (
{
closed = 1;
nodes = (
(262,0,l),
(262,222,l),
(311,222,l),
(413,0,l),
(622,0,l),
(471,316,l),
(599,546,l),
(392,546,l),
(304,382,l),
(262,382,l),
(262,546,l),
(66,546,l),
(66,0,l)
);
}
);
width = 644;
},
{
background = {
shapes = (
{
ref = k;
}
);
};
layerId = "A22F00EF-5553-43E5-A27F-95FD0E0BDB40";
shapes = (
{
closed = 1;
nodes = (
(185,0,l),
(185,249,l),
(259,249,l),
(408,0,l),
(528,0,l),
(340,314,l),
(508,536,l),
(386,536,l),
(241,343,l),
(185,343,l),
(185,536,l),
(78,536,l),
(78,0,l)
);
}
);
width = 553;
}
);
metricLeft = n;
metricRight = k;
unicode = 312;
},
{
glyphname = l;
kernLeft = KO_l;
kernRight = KO_l;
lastChange = "2026-03-13 10:15:51 +0000";
layers = (
{
anchors = (
{
name = bottom;
pos = (105,0);
},
{
name = center;
pos = (105,261);
},
{
name = top;
pos = (105,750);
},
{
name = topright;
pos = (222,750);
}
);
layerId = "A5EF4BC6-6509-4D3B-8B47-D449F40BB885";
shapes = (
{
closed = 1;
nodes = (
(117,0,l),
(117,750,l),
(93,750,l),
(93,0,l)
);
}
);
width = 210;
},
{
anchors = (
{
name = bottom;
pos = (164,0);
},
{
name = center;
pos = (164,273);
},
{
name = top;
pos = (164,750);
},
{
name = topright;
pos = (341,750);
}
);
layerId = "0EDB233F-674C-46BF-8D38-84A6CD2C2EDF";
shapes = (
{
closed = 1;
nodes = (
(262,0,l),
(262,750,l),
(66,750,l),
(66,0,l)
);
}
);
width = 328;
},
{
anchors = (
{
name = bottom;
pos = (131,0);
},
{
name = center;
pos = (131,268);
},
{
name = top;
pos = (131,750);
},
{
name = topright;
pos = (281,750);
}
);
layerId = "A22F00EF-5553-43E5-A27F-95FD0E0BDB40";
shapes = (
{
closed = 1;
nodes = (
(186,0,l),
(186,750,l),
(78,750,l),
(78,0,l)
);
}
);
width = 264;
}
);
metricLeft = h;
unicode = 108;
userData = {
KernOnName = l;
com.schriftgestaltung.Glyphs.ColorIndex = 3;
com.schriftgestaltung.Glyphs.layer.leftMetricsKey = "==h";
com.schriftgestaltung.Glyphs.leftMetricsKey = n;
com.typemytype.robofont.layerData = {
background = {
anchors = (
{
name = bottom;
x = 108;
y = 0;
},
{
name = top;
x = 108;
y = 500;
},
{
name = topright;
x = 204;
y = 500;
},
{
name = center;
x = 148;
y = 250;
}
);
components = (
);
contours = (
{
points = (
{
segmentType = line;
smooth = 0;
x = 95;
y = 750;
},
{
segmentType = line;
smooth = 0;
x = 95;
y = 61;
},
{
segmentType = line;
smooth = 0;
x = 148;
y = -11;
},
{
segmentType = line;
smooth = 0;
x = 215;
y = 31;
},
{
segmentType = line;
smooth = 0;
x = 175;
y = 90;
},
{
segmentType = line;
smooth = 0;
x = 175;
y = 750;
}
);
}
);
lib = {
};
name = l;
unicodes = (
);
width = 275;
};
};
};
},
{
glyphname = lj;
lastChange = "2026-03-13 10:15:51 +0000";
layers = (
{
anchors = (
{
name = bottom;
pos = (307,-250);
},
{
name = center;
pos = (105,261);
},
{
name = top;
pos = (315,703);
},
{
name = topright;
pos = (222,750);
}
);
layerId = "A5EF4BC6-6509-4D3B-8B47-D449F40BB885";
shapes = (
{
closed = 1;
nodes = (
(117,0,l),
(117,750,l),
(93,750,l),
(93,0,l)
);
},
{
closed = 1;
nodes = (
(301,-176,o),
(327,-115,o),
(327,1,cs),
(327,522,l),
(303,522,l),
(303,1,l),
(303,-105,o),
(281,-161,o),
(212,-197,c),
(224,-215,l)
);
},
{
closed = 1;
nodes = (
(327,632,l),
(327,750,l),
(303,750,l),
(303,632,l)
);
}
);
width = 420;
},
{
anchors = (
{
name = bottom;
pos = (505,-250);
},
{
name = center;
pos = (164,273);
},
{
name = top;
pos = (494,753);
},
{
name = topright;
pos = (341,750);
}
);
layerId = "0EDB233F-674C-46BF-8D38-84A6CD2C2EDF";
shapes = (
{
closed = 1;
nodes = (
(262,0,l),
(262,750,l),
(66,750,l),
(66,0,l)
);
},
{
closed = 1;
nodes = (
(466,-222,o),
(592,-164,o),
(592,28,cs),
(592,546,l),
(396,546,l),
(396,28,ls),
(396,-16,o),
(371,-43,o),
(334,-49,c),
(377,-222,l)
);
},
{
closed = 1;
nodes = (
(603,618,l),
(603,750,l),
(386,750,l),
(386,618,l)
);
}
);
width = 658;
},
{
anchors = (
{
name = bottom;
pos = (411,-250);
},
{
name = center;
pos = (131,268);
},
{
name = top;
pos = (412,750);
},
{
name = topright;
pos = (281,750);
}
);
layerId = "A22F00EF-5553-43E5-A27F-95FD0E0BDB40";
shapes = (
{
closed = 1;
nodes = (
(186,0,l),
(186,750,l),
(78,750,l),
(78,0,l)
);
},
{
closed = 1;
nodes = (
(388,-199,o),
(466,-132,o),
(466,9,cs),
(466,536,l),
(358,536,l),
(358,6,ls),
(358,-70,o),
(321,-113,o),
(264,-129,c),
(294,-222,l)
);
},
{
closed = 1;
nodes = (
(466,632,l),
(466,750,l),
(358,750,l),
(358,632,l)
);
}
);
width = 544;
}
);
unicode = 457;
},
{
color = 9;
glyphname = lj.ss01;
lastChange = "2026-03-13 10:15:51 +0000";
layers = (
{
anchors = (
{
name = bottom;
pos = (307,-250);
},
{
name = center;
pos = (105,261);
},
{
name = top;
pos = (315,703);
},
{
name = topright;
pos = (222,750);
}
);
layerId = "A5EF4BC6-6509-4D3B-8B47-D449F40BB885";
shapes = (
{
closed = 1;
nodes = (
(117,0,l),
(117,750,l),
(93,750,l),
(93,0,l)
);
},
{
closed = 1;
nodes = (
(301,-176,o),
(327,-115,o),
(327,1,cs),
(327,522,l),
(303,522,l),
(303,1,l),
(303,-105,o),
(281,-161,o),
(212,-197,c),
(224,-215,l)
);
},
{
closed = 1;
nodes = (
(327,632,l),
(327,750,l),
(303,750,l),
(303,632,l)
);
}
);
width = 420;
},
{
anchors = (
{
name = bottom;
pos = (411,-250);
},
{
name = center;
pos = (131,268);
},
{
name = top;
pos = (412,750);
},
{
name = topright;
pos = (281,750);
}
);
layerId = "A22F00EF-5553-43E5-A27F-95FD0E0BDB40";
shapes = (
{
closed = 1;
nodes = (
(186,0,l),
(186,750,l),
(78,750,l),
(78,0,l)
);
},
{
closed = 1;
nodes = (
(388,-199,o),
(466,-132,o),
(466,9,cs),
(466,536,l),
(358,536,l),
(358,6,ls),
(358,-70,o),
(321,-113,o),
(264,-129,c),
(294,-222,l)
);
},
{
closed = 1;
nodes = (
(466,632,l),
(466,750,l),
(358,750,l),
(358,632,l)
);
}
);
width = 544;
},
{
anchors = (
{
name = bottom;
pos = (505,-250);
},
{
name = center;
pos = (164,273);
},
{
name = top;
pos = (494,753);
},
{
name = topright;
pos = (341,750);
}
);
layerId = "0EDB233F-674C-46BF-8D38-84A6CD2C2EDF";
shapes = (
{
closed = 1;
nodes = (
(262,0,l),
(262,750,l),
(66,750,l),
(66,0,l)
);
},
{
closed = 1;
nodes = (
(466,-222,o),
(592,-164,o),
(592,28,cs),
(592,546,l),
(396,546,l),
(396,28,ls),
(396,-16,o),
(371,-43,o),
(334,-49,c),
(377,-222,l)
);
},
{
closed = 1;
nodes = (
(603,618,l),
(603,750,l),
(386,750,l),
(386,618,l)
);
}
);
width = 658;
}
);
},
{
glyphname = lslash;
lastChange = "2026-03-13 10:15:51 +0000";
layers = (
{
layerId = "A5EF4BC6-6509-4D3B-8B47-D449F40BB885";
shapes = (
{
closed = 1;
nodes = (
(113,1,l),
(113,389,l),
(235,472,l),
(235,496,l),
(113,413,l),
(113,750,l),
(89,750,l),
(89,397,l),
(20,350,l),
(20,326,l),
(89,373,l),
(89,1,l)
);
}
);
width = 255;
},
{
layerId = "0EDB233F-674C-46BF-8D38-84A6CD2C2EDF";
shapes = (
{
closed = 1;
nodes = (
(288,0,l),
(288,388,l),
(369,444,l),
(369,626,l),
(288,570,l),
(288,750,l),
(92,750,l),
(92,433,l),
(30,390,l),
(30,208,l),
(92,251,l),
(92,0,l)
);
}
);
width = 399;
},
{
layerId = "A22F00EF-5553-43E5-A27F-95FD0E0BDB40";
shapes = (
{
closed = 1;
nodes = (
(201,0,l),
(201,391,l),
(300,459,l),
(300,559,l),
(201,491,l),
(201,750,l),
(95,750,l),
(95,417,l),
(25,369,l),
(25,269,l),
(95,317,l),
(95,0,l)
);
}
);
width = 325;
}
);
metricLeft = t;
metricRight = "=|t";
unicode = 322;
},
